SplineFontDB: 3.0
FontName: Shabnam
FullName: Shabnam
FamilyName: Shabnam
Weight: Regular
Copyright: Copyright (c) 2003 by Bitstream, Inc. All Rights Reserved.\nDejaVu changes are in public domain\nCopyright (c) 2015 by Saber Rastikerdar. All Rights Reserved.\nNon-Arabic(Latin) glyphs and data are imported from Roboto font under the Apache License, Version 2.0.
Version: 1.0.2
ItalicAngle: 0
UnderlinePosition: -500
UnderlineWidth: 100
Ascent: 1638
Descent: 410
InvalidEm: 0
LayerCount: 2
Layer: 0 1 "Back" 1
Layer: 1 1 "Fore" 0
XUID: [1021 502 1027637223 10289273]
UniqueID: 4139606
UseUniqueID: 1
FSType: 0
OS2Version: 1
OS2_WeightWidthSlopeOnly: 0
OS2_UseTypoMetrics: 1
CreationTime: 1431850356
ModificationTime: 1474545622
PfmFamily: 33
TTFWeight: 400
TTFWidth: 5
LineGap: 0
VLineGap: 0
Panose: 2 11 6 3 3 8 4 2 2 4
OS2TypoAscent: 2250
OS2TypoAOffset: 0
OS2TypoDescent: -1100
OS2TypoDOffset: 0
OS2TypoLinegap: 0
OS2WinAscent: 2250
OS2WinAOffset: 0
OS2WinDescent: 1100
OS2WinDOffset: 0
HheadAscent: 2250
HheadAOffset: 0
HheadDescent: -1100
HheadDOffset: 0
OS2SubXSize: 1331
OS2SubYSize: 1433
OS2SubXOff: 0
OS2SubYOff: 286
OS2SupXSize: 1331
OS2SupYSize: 1433
OS2SupXOff: 0
OS2SupYOff: 983
OS2StrikeYSize: 102
OS2StrikeYPos: 530
OS2Vendor: 'PfEd'
OS2CodePages: 00000041.20080000
OS2UnicodeRanges: 80002003.80000000.00000008.00000000
Lookup: 1 9 0 "'fina' Terminal Forms in Arabic lookup 9" { "'fina' Terminal Forms in Arabic lookup 9 subtable"  } ['fina' ('arab' <'KUR ' 'SND ' 'URD ' 'dflt' > ) ]
Lookup: 1 9 0 "'medi' Medial Forms in Arabic lookup 11" { "'medi' Medial Forms in Arabic lookup 11 subtable"  } ['medi' ('arab' <'KUR ' 'SND ' 'URD ' 'dflt' > ) ]
Lookup: 1 9 0 "'init' Initial Forms in Arabic lookup 13" { "'init' Initial Forms in Arabic lookup 13 subtable"  } ['init' ('arab' <'KUR ' 'SND ' 'URD ' 'dflt' > ) ]
Lookup: 4 1 1 "'rlig' Required Ligatures in Arabic lookup 14" { "'rlig' Required Ligatures in Arabic lookup 14 subtable"  } ['rlig' ('arab' <'KUR ' 'dflt' > ) ]

StartChar: exclam
Encoding: 33 33 1
Width: 568
VWidth: 2391
GlyphClass: 2
Flags: W
LayerCount: 2
Fore
SplineSet
150.919921875 132.381835938 m 128,-1,1
 150.919921875 186.381835938 150.919921875 186.381835938 188.919921875 224.381835938 c 128,-1,2
 226.919921875 262.381835938 226.919921875 262.381835938 281.419921875 262.881835938 c 0,3,4
 336.919921875 262.381835938 336.919921875 262.381835938 374.919921875 224.381835938 c 128,-1,5
 412.919921875 186.381835938 412.919921875 186.381835938 412.919921875 132.381835938 c 128,-1,6
 412.919921875 78.3818359375 412.919921875 78.3818359375 374.919921875 40.3818359375 c 128,-1,7
 336.919921875 2.3818359375 336.919921875 2.3818359375 282.419921875 1.8818359375 c 0,8,9
 226.919921875 2.3818359375 226.919921875 2.3818359375 188.919921875 40.3818359375 c 128,-1,0
 150.919921875 78.3818359375 150.919921875 78.3818359375 150.919921875 132.381835938 c 128,-1,1
176.516601562 1365.35449219 m 5,10,-1
 379.28515625 1365.35449219 l 5,11,-1
 357.629882812 442.609375 l 5,12,-1
 199.25390625 442.609375 l 5,13,-1
 176.516601562 1365.35449219 l 5,10,-1
EndSplineSet
EndChar

StartChar: period
Encoding: 46 46 2
Width: 572
VWidth: 2391
GlyphClass: 2
Flags: W
LayerCount: 2
Fore
SplineSet
156.255859375 129.43359375 m 128,-1,1
 156.255859375 183.43359375 156.255859375 183.43359375 194.255859375 221.43359375 c 128,-1,2
 232.255859375 259.43359375 232.255859375 259.43359375 286.755859375 259.93359375 c 0,3,4
 342.255859375 259.43359375 342.255859375 259.43359375 380.255859375 221.43359375 c 128,-1,5
 418.255859375 183.43359375 418.255859375 183.43359375 418.255859375 129.43359375 c 128,-1,6
 418.255859375 75.43359375 418.255859375 75.43359375 380.255859375 37.43359375 c 128,-1,7
 342.255859375 -0.56640625 342.255859375 -0.56640625 287.755859375 -1.06640625 c 0,8,9
 232.255859375 -0.56640625 232.255859375 -0.56640625 194.255859375 37.43359375 c 128,-1,0
 156.255859375 75.43359375 156.255859375 75.43359375 156.255859375 129.43359375 c 128,-1,1
EndSplineSet
EndChar

StartChar: colon
Encoding: 58 58 3
Width: 579
VWidth: 2391
GlyphClass: 2
Flags: W
LayerCount: 2
Fore
SplineSet
158.203125 834.43359375 m 128,-1,1
 158.203125 888.43359375 158.203125 888.43359375 196.203125 926.43359375 c 128,-1,2
 234.203125 964.43359375 234.203125 964.43359375 288.703125 964.93359375 c 0,3,4
 344.203125 964.43359375 344.203125 964.43359375 382.203125 926.43359375 c 128,-1,5
 420.203125 888.43359375 420.203125 888.43359375 420.203125 834.43359375 c 128,-1,6
 420.203125 780.43359375 420.203125 780.43359375 382.203125 742.43359375 c 128,-1,7
 344.203125 704.43359375 344.203125 704.43359375 289.703125 703.93359375 c 0,8,9
 234.203125 704.43359375 234.203125 704.43359375 196.203125 742.43359375 c 128,-1,0
 158.203125 780.43359375 158.203125 780.43359375 158.203125 834.43359375 c 128,-1,1
158.203125 129.43359375 m 128,-1,11
 158.203125 183.43359375 158.203125 183.43359375 196.203125 221.43359375 c 128,-1,12
 234.203125 259.43359375 234.203125 259.43359375 288.703125 259.93359375 c 0,13,14
 344.203125 259.43359375 344.203125 259.43359375 382.203125 221.43359375 c 128,-1,15
 420.203125 183.43359375 420.203125 183.43359375 420.203125 129.43359375 c 128,-1,16
 420.203125 75.43359375 420.203125 75.43359375 382.203125 37.43359375 c 128,-1,17
 344.203125 -0.56640625 344.203125 -0.56640625 289.703125 -1.06640625 c 0,18,19
 234.203125 -0.56640625 234.203125 -0.56640625 196.203125 37.43359375 c 128,-1,10
 158.203125 75.43359375 158.203125 75.43359375 158.203125 129.43359375 c 128,-1,11
EndSplineSet
EndChar

StartChar: afii57388
Encoding: 1548 1548 5
Width: 627
VWidth: 2398
GlyphClass: 2
Flags: W
LayerCount: 2
Fore
SplineSet
322.662109375 -1.06640625 m 4,0,1
 193 -1 193 -1 166.620117188 119.826171875 c 4,2,3
 154 177 154 177 176.984375 276.125976562 c 4,4,5
 218 456 218 456 410.700195312 641.693359375 c 5,6,-1
 475.494140625 594.291992188 l 5,7,8
 314 425 314 425 302.362304688 273.772460938 c 5,9,10
 461 276 461 276 462.09765625 129.543945312 c 4,11,12
 463 -1 463 -1 322.662109375 -1.06640625 c 4,0,1
EndSplineSet
EndChar

StartChar: uni0615
Encoding: 1557 1557 6
Width: 11
VWidth: 2553
GlyphClass: 4
Flags: W
AnchorPoint: "Anchor-10" 648 1490.29 mark 0
AnchorPoint: "Anchor-9" 648 1490.29 mark 0
AnchorPoint: "Anchor-1" 648 2306.6 basemark 0
AnchorPoint: "Anchor-1" 648 1490.29 mark 0
LayerCount: 2
Fore
SplineSet
791 1869.37722657 m 0,0,1
 716.466917586 1875.04050543 716.466917586 1875.04050543 570 1728 c 6,2,-1
 530.350585938 1688.1953125 l 1,3,-1
 653.0234375 1688.1953125 l 2,4,5
 843 1688 843 1688 849 1778 c 0,6,7
 855 1864 855 1864 791 1869.37722657 c 0,0,1
930.134765625 1836.81933594 m 0,8,9
 951.033502215 1612.640625 951.033502215 1612.640625 631.908203125 1612.640625 c 2,10,-1
 347.12109375 1612.640625 l 1,11,-1
 347.12109375 1688.1953125 l 1,12,-1
 448.844726562 1688.1953125 l 1,13,-1
 448.844726562 2189.28320312 l 1,14,-1
 525.655273438 2189.28320312 l 1,15,-1
 526 1784 l 1,16,-1
 560.297851562 1819.453125 l 2,17,18
 690 1954 690 1954 784 1954.69824219 c 0,19,20
 919 1956 919 1956 930.134765625 1836.81933594 c 0,8,9
EndSplineSet
EndChar

StartChar: uni061B
Encoding: 1563 1563 7
Width: 627
VWidth: 2398
GlyphClass: 2
Flags: W
LayerCount: 2
Fore
SplineSet
322.744140625 442.862304688 m 4,0,1
 193.08203125 442.928710938 193.08203125 442.928710938 166.702148438 563.754882812 c 4,2,3
 154.08203125 620.928710938 154.08203125 620.928710938 177.06640625 720.0546875 c 4,4,5
 218.08203125 899.928710938 218.08203125 899.928710938 410.782226562 1085.62207031 c 5,6,-1
 475.576171875 1038.22070312 l 5,7,8
 314.08203125 868.928710938 314.08203125 868.928710938 302.444335938 717.701171875 c 5,9,10
 461.08203125 719.928710938 461.08203125 719.928710938 462.1796875 573.47265625 c 4,11,12
 463.08203125 442.928710938 463.08203125 442.928710938 322.744140625 442.862304688 c 4,0,1
184.907226562 129.43359375 m 128,-1,14
 184.907226562 183.43359375 184.907226562 183.43359375 222.907226562 221.43359375 c 128,-1,15
 260.907226562 259.43359375 260.907226562 259.43359375 315.407226562 259.93359375 c 0,16,17
 370.907226562 259.43359375 370.907226562 259.43359375 408.907226562 221.43359375 c 128,-1,18
 446.907226562 183.43359375 446.907226562 183.43359375 446.907226562 129.43359375 c 128,-1,19
 446.907226562 75.43359375 446.907226562 75.43359375 408.907226562 37.43359375 c 128,-1,20
 370.907226562 -0.56640625 370.907226562 -0.56640625 316.407226562 -1.06640625 c 0,21,22
 260.907226562 -0.56640625 260.907226562 -0.56640625 222.907226562 37.43359375 c 128,-1,13
 184.907226562 75.43359375 184.907226562 75.43359375 184.907226562 129.43359375 c 128,-1,14
EndSplineSet
EndChar

StartChar: uni061F
Encoding: 1567 1567 8
Width: 1041
VWidth: 2398
GlyphClass: 2
Flags: W
LayerCount: 2
Fore
SplineSet
445.284179688 129.43359375 m 128,-1,1
 445.284179688 183.43359375 445.284179688 183.43359375 483.284179688 221.43359375 c 128,-1,2
 521.284179688 259.43359375 521.284179688 259.43359375 575.784179688 259.93359375 c 0,3,4
 631.284179688 259.43359375 631.284179688 259.43359375 669.284179688 221.43359375 c 128,-1,5
 707.284179688 183.43359375 707.284179688 183.43359375 707.284179688 129.43359375 c 128,-1,6
 707.284179688 75.43359375 707.284179688 75.43359375 669.284179688 37.43359375 c 128,-1,7
 631.284179688 -0.56640625 631.284179688 -0.56640625 576.784179688 -1.06640625 c 0,8,9
 521.284179688 -0.56640625 521.284179688 -0.56640625 483.284179688 37.43359375 c 128,-1,0
 445.284179688 75.43359375 445.284179688 75.43359375 445.284179688 129.43359375 c 128,-1,1
478.524414062 431.693359375 m 1,10,11
 477 567 477 567 342 650 c 0,12,13
 110 793 110 793 114 1010 c 0,14,15
 117 1179 117 1179 239.84765625 1286.24511719 c 0,16,17
 347 1380 347 1380 519 1380.4453125 c 0,18,19
 818 1381 818 1381 923 1083.94335938 c 1,20,-1
 782 1016 l 1,21,22
 691 1188 691 1188 524 1186.69824219 c 4,23,24
 387 1186 387 1186 333 1092 c 0,25,26
 306 1045 306 1045 309 992 c 0,27,28
 317 866 317 866 438 786 c 0,29,30
 673 630 673 630 679.544921875 431.693359375 c 1,31,-1
 478.524414062 431.693359375 l 1,10,11
EndSplineSet
EndChar

StartChar: uni0621
Encoding: 1569 1569 9
Width: 807
VWidth: 2553
GlyphClass: 2
Flags: W
AnchorPoint: "Anchor-7" 470.143 -66.166 basechar 0
AnchorPoint: "Anchor-10" 322.188 1091.55 basechar 0
LayerCount: 2
Fore
SplineSet
444.823242188 670.458007812 m 0,0,1
 355 670 355 670 301 620 c 4,2,3
 257 578 257 578 257.30078125 506 c 0,4,5
 257 373 257 373 425.74609375 330.51171875 c 0,6,7
 459 322 459 322 497.721679688 322.09765625 c 0,8,9
 572 322 572 322 668.30078125 372.385742188 c 1,10,-1
 715.30078125 214 l 1,11,-1
 167 4 l 1,12,-1
 105.973632812 147.525390625 l 1,13,-1
 319.138671875 222.68359375 l 1,14,15
 91 282 91 282 91.69921875 515.701171875 c 0,16,17
 92 690 92 690 231.30078125 776 c 0,18,19
 316 829 316 829 436.303710938 829.607421875 c 0,20,21
 526 830 526 830 597.30078125 795.682617188 c 1,22,-1
 597.30078125 644 l 1,23,24
 522 670 522 670 444.823242188 670.458007812 c 0,0,1
EndSplineSet
EndChar

StartChar: uni0627
Encoding: 1575 1575 15
Width: 491
VWidth: 2553
GlyphClass: 2
Flags: W
AnchorPoint: "Anchor-10" 239.338 1495.41 basechar 0
AnchorPoint: "Anchor-7" 243.805 -254.859 basechar 0
LayerCount: 2
Fore
SplineSet
157.299804688 1367.72753906 m 5,0,-1
 332.393554688 1367.72753906 l 5,1,-1
 332.393554688 0.6943359375 l 1,2,-1
 157.299804688 0.6943359375 l 1,3,-1
 157.299804688 1367.72753906 l 5,0,-1
EndSplineSet
Substitution2: "'fina' Terminal Forms in Arabic lookup 9 subtable" uniFE8E
EndChar

StartChar: uni062D
Encoding: 1581 1581 21
Width: 1329
VWidth: 2553
GlyphClass: 2
Flags: W
AnchorPoint: "Anchor-10" 538.649 1165.29 basechar 0
AnchorPoint: "Anchor-7" 312.854 -893.488 basechar 0
LayerCount: 2
Fore
SplineSet
1088 305.45703125 m 1,0,1
 267 182 267 182 265.6875 -197.775390625 c 0,2,3
 264 -573 264 -573 814.475585938 -572.172851562 c 2,4,-1
 1228.33007812 -571.918945312 l 1,5,-1
 1228.33007812 -755.474609375 l 1,6,-1
 802.448242188 -754.58203125 l 2,7,8
 414 -754 414 -754 252.054809136 -598.833917204 c 0,9,10
 87 -441 87 -441 90.109375 -215.653320312 c 0,11,12
 96 342 96 342 987.4375 454.530273438 c 1,13,14
 986.994427792 475.260712174 986.994427792 475.260712174 952.010742188 491.46875 c 2,15,-1
 734.010742188 592.46875 l 2,16,17
 651 631 651 631 578.987304688 631.418945312 c 0,18,19
 500.523246148 630.997438894 500.523246148 630.997438894 439.010742188 584.46875 c 2,20,-1
 283.010742188 466.46875 l 1,21,-1
 165.3828125 598.612304688 l 1,22,-1
 311.010742188 721.46875 l 2,23,24
 434 825 434 825 570.834960938 825.236328125 c 0,25,26
 667.624338772 825.000913696 667.624338772 825.000913696 771.010742188 773.46875 c 2,27,-1
 1092.01074219 613.46875 l 2,28,29
 1225 547 1225 547 1225.26367188 466.450195312 c 0,30,-1
 1225.18945312 324.193359375 l 1,31,32
 1146 317 1146 317 1088 305.45703125 c 1,0,1
EndSplineSet
Substitution2: "'fina' Terminal Forms in Arabic lookup 9 subtable" uniFEA2
Substitution2: "'medi' Medial Forms in Arabic lookup 11 subtable" uniFEA4
Substitution2: "'init' Initial Forms in Arabic lookup 13 subtable" uniFEA3
EndChar

StartChar: uni062F
Encoding: 1583 1583 23
Width: 1000
VWidth: 2553
GlyphClass: 2
Flags: W
AnchorPoint: "Anchor-10" 333.659 1300.16 basechar 0
AnchorPoint: "Anchor-7" 386.382 -302.53 basechar 0
LayerCount: 2
Fore
SplineSet
457.978515625 0 m 6,0,-1
 91.8994140625 0 l 5,1,-1
 91.8994140625 188 l 5,2,-1
 458.911132812 188 l 6,3,4
 725.465018034 187.841639124 725.465018034 187.841639124 719.723510937 309 c 4,5,6
 716.340677796 380.385180152 716.340677796 380.385180152 618 494 c 6,7,-1
 343.180664062 811.50390625 l 5,8,-1
 466.696289062 949.658203125 l 5,9,-1
 767 600 l 6,10,11
 900.904731221 444.262975646 900.904731221 444.262975646 900.288517021 297 c 4,12,13
 899.046065159 0.0786397818684 899.046065159 0.0786397818684 457.978515625 0 c 6,0,-1
EndSplineSet
Substitution2: "'fina' Terminal Forms in Arabic lookup 9 subtable" uniFEAA
EndChar

StartChar: uni0631
Encoding: 1585 1585 25
Width: 757
VWidth: 2553
GlyphClass: 2
Flags: W
AnchorPoint: "Anchor-10" 450.527 955.269 basechar 0
AnchorPoint: "Anchor-7" 333.998 -866.627 basechar 0
LayerCount: 2
Fore
SplineSet
124.200195312 -304.440429688 m 6,0,1
 480.382317502 -304.685364004 480.382317502 -304.685364004 480.3828125 2.53125 c 6,2,-1
 480.383789062 608.626953125 l 1,3,-1
 666.180664062 609.684570312 l 1,4,-1
 666.180664062 5.0263671875 l 6,5,6
 665.999862124 -488.376259535 665.999862124 -488.376259535 126.435546875 -491.412109375 c 6,7,-1
 21.94921875 -492 l 5,8,-1
 21.9521484375 -304.370117188 l 5,9,-1
 124.200195312 -304.440429688 l 6,0,1
EndSplineSet
PairPos2: "'kern' Horizontal Kerning lookup 15-1" uniFEFB dx=-100 dy=0 dh=-100 dv=0 dx=0 dy=0 dh=0 dv=0
PairPos2: "'kern' Horizontal Kerning lookup 15-1" uniFEDF dx=-100 dy=0 dh=-100 dv=0 dx=0 dy=0 dh=0 dv=0
PairPos2: "'kern' Horizontal Kerning lookup 15-1" uni062F dx=-100 dy=0 dh=-100 dv=0 dx=0 dy=0 dh=0 dv=0
PairPos2: "'kern' Horizontal Kerning lookup 15-2" uniFB90 dx=-142 dy=0 dh=-142 dv=0 dx=0 dy=0 dh=0 dv=0
PairPos2: "'kern' Horizontal Kerning lookup 15-2" uniFB8E dx=-142 dy=0 dh=-142 dv=0 dx=0 dy=0 dh=0 dv=0
PairPos2: "'kern' Horizontal Kerning lookup 15-2" uni06A9 dx=-142 dy=0 dh=-142 dv=0 dx=0 dy=0 dh=0 dv=0
PairPos2: "'kern' Horizontal Kerning lookup 15-2" uniFEEB dx=-100 dy=0 dh=-100 dv=0 dx=0 dy=0 dh=0 dv=0
PairPos2: "'kern' Horizontal Kerning lookup 15-2" uni0647 dx=-100 dy=0 dh=-100 dv=0 dx=0 dy=0 dh=0 dv=0
PairPos2: "'kern' Horizontal Kerning lookup 15-2" uniFEE7 dx=-100 dy=0 dh=-100 dv=0 dx=0 dy=0 dh=0 dv=0
PairPos2: "'kern' Horizontal Kerning lookup 15-2" uniFEE3 dx=-100 dy=0 dh=-100 dv=0 dx=0 dy=0 dh=0 dv=0
PairPos2: "'kern' Horizontal Kerning lookup 15-2" uni0645 dx=-100 dy=0 dh=-100 dv=0 dx=0 dy=0 dh=0 dv=0
PairPos2: "'kern' Horizontal Kerning lookup 15-2" uniFEDB dx=-100 dy=0 dh=-100 dv=0 dx=0 dy=0 dh=0 dv=0
PairPos2: "'kern' Horizontal Kerning lookup 15-2" uni0643 dx=-100 dy=0 dh=-100 dv=0 dx=0 dy=0 dh=0 dv=0
PairPos2: "'kern' Horizontal Kerning lookup 15-2" uniFED7 dx=-100 dy=0 dh=-100 dv=0 dx=0 dy=0 dh=0 dv=0
PairPos2: "'kern' Horizontal Kerning lookup 15-2" uniFED3 dx=-100 dy=0 dh=-100 dv=0 dx=0 dy=0 dh=0 dv=0
PairPos2: "'kern' Horizontal Kerning lookup 15-2" uni0641 dx=-100 dy=0 dh=-100 dv=0 dx=0 dy=0 dh=0 dv=0
PairPos2: "'kern' Horizontal Kerning lookup 15-2" uniFECF dx=-100 dy=0 dh=-100 dv=0 dx=0 dy=0 dh=0 dv=0
PairPos2: "'kern' Horizontal Kerning lookup 15-2" uniFECB dx=-100 dy=0 dh=-100 dv=0 dx=0 dy=0 dh=0 dv=0
PairPos2: "'kern' Horizontal Kerning lookup 15-2" uniFEC7 dx=-100 dy=0 dh=-100 dv=0 dx=0 dy=0 dh=0 dv=0
PairPos2: "'kern' Horizontal Kerning lookup 15-2" uni0638 dx=-100 dy=0 dh=-100 dv=0 dx=0 dy=0 dh=0 dv=0
PairPos2: "'kern' Horizontal Kerning lookup 15-2" uniFEC3 dx=-100 dy=0 dh=-100 dv=0 dx=0 dy=0 dh=0 dv=0
PairPos2: "'kern' Horizontal Kerning lookup 15-2" uni0637 dx=-100 dy=0 dh=-100 dv=0 dx=0 dy=0 dh=0 dv=0
PairPos2: "'kern' Horizontal Kerning lookup 15-2" uniFEBF dx=-100 dy=0 dh=-100 dv=0 dx=0 dy=0 dh=0 dv=0
PairPos2: "'kern' Horizontal Kerning lookup 15-2" uni0636 dx=-100 dy=0 dh=-100 dv=0 dx=0 dy=0 dh=0 dv=0
PairPos2: "'kern' Horizontal Kerning lookup 15-2" uniFEBB dx=-100 dy=0 dh=-100 dv=0 dx=0 dy=0 dh=0 dv=0
PairPos2: "'kern' Horizontal Kerning lookup 15-2" uni0635 dx=-100 dy=0 dh=-100 dv=0 dx=0 dy=0 dh=0 dv=0
PairPos2: "'kern' Horizontal Kerning lookup 15-2" uniFEB7 dx=-100 dy=0 dh=-100 dv=0 dx=0 dy=0 dh=0 dv=0
PairPos2: "'kern' Horizontal Kerning lookup 15-2" uni0634 dx=-100 dy=0 dh=-100 dv=0 dx=0 dy=0 dh=0 dv=0
PairPos2: "'kern' Horizontal Kerning lookup 15-2" uniFEB3 dx=-100 dy=0 dh=-100 dv=0 dx=0 dy=0 dh=0 dv=0
PairPos2: "'kern' Horizontal Kerning lookup 15-2" uni0633 dx=-100 dy=0 dh=-100 dv=0 dx=0 dy=0 dh=0 dv=0
PairPos2: "'kern' Horizontal Kerning lookup 15-2" uniFEA7 dx=-100 dy=0 dh=-100 dv=0 dx=0 dy=0 dh=0 dv=0
PairPos2: "'kern' Horizontal Kerning lookup 15-2" uniFEA3 dx=-100 dy=0 dh=-100 dv=0 dx=0 dy=0 dh=0 dv=0
PairPos2: "'kern' Horizontal Kerning lookup 15-2" uniFE9F dx=-100 dy=0 dh=-100 dv=0 dx=0 dy=0 dh=0 dv=0
PairPos2: "'kern' Horizontal Kerning lookup 15-2" uniFE9B dx=-100 dy=0 dh=-100 dv=0 dx=0 dy=0 dh=0 dv=0
PairPos2: "'kern' Horizontal Kerning lookup 15-2" uni062B dx=-100 dy=0 dh=-100 dv=0 dx=0 dy=0 dh=0 dv=0
PairPos2: "'kern' Horizontal Kerning lookup 15-2" uniFE97 dx=-100 dy=0 dh=-100 dv=0 dx=0 dy=0 dh=0 dv=0
PairPos2: "'kern' Horizontal Kerning lookup 15-2" uni062A dx=-100 dy=0 dh=-100 dv=0 dx=0 dy=0 dh=0 dv=0
PairPos2: "'kern' Horizontal Kerning lookup 15-2" uni0629 dx=-100 dy=0 dh=-100 dv=0 dx=0 dy=0 dh=0 dv=0
PairPos2: "'kern' Horizontal Kerning lookup 15-2" uniFE91 dx=-47 dy=0 dh=-47 dv=0 dx=0 dy=0 dh=0 dv=0
PairPos2: "'kern' Horizontal Kerning lookup 15-2" uni0628 dx=-100 dy=0 dh=-100 dv=0 dx=0 dy=0 dh=0 dv=0
PairPos2: "'kern' Horizontal Kerning lookup 15-2" uni0627 dx=-100 dy=0 dh=-100 dv=0 dx=0 dy=0 dh=0 dv=0
PairPos2: "'kern' Horizontal Kerning lookup 15-2" uni0622 dx=-100 dy=0 dh=-100 dv=0 dx=0 dy=0 dh=0 dv=0
PairPos2: "'kern' Horizontal Kerning lookup 15-2" uni0621 dx=-100 dy=0 dh=-100 dv=0 dx=0 dy=0 dh=0 dv=0
PairPos2: "'kern' Horizontal Kerning lookup 15-2" uniFB94 dx=-142 dy=0 dh=-142 dv=0 dx=0 dy=0 dh=0 dv=0
PairPos2: "'kern' Horizontal Kerning lookup 15-2" uniFB92 dx=-142 dy=0 dh=-142 dv=0 dx=0 dy=0 dh=0 dv=0
PairPos2: "'kern' Horizontal Kerning lookup 15-2" afii57509 dx=-142 dy=0 dh=-142 dv=0 dx=0 dy=0 dh=0 dv=0
PairPos2: "'kern' Horizontal Kerning lookup 15-2" uniFB7C dx=-100 dy=0 dh=-100 dv=0 dx=0 dy=0 dh=0 dv=0
PairPos2: "'kern' Horizontal Kerning lookup 15-2" afii57506 dx=-100 dy=0 dh=-100 dv=0 dx=0 dy=0 dh=0 dv=0
PairPos2: "'kern' Horizontal Kerning lookup 15-2" afii57440 dx=-94 dy=0 dh=-94 dv=0 dx=0 dy=0 dh=0 dv=0
Substitution2: "'fina' Terminal Forms in Arabic lookup 9 subtable" uniFEAE
EndChar

StartChar: uni0633
Encoding: 1587 1587 27
Width: 2463
VWidth: 2553
GlyphClass: 2
Flags: W
AnchorPoint: "Anchor-10" 547.364 987.957 basechar 0
AnchorPoint: "Anchor-7" 309.092 -641.765 basechar 0
LayerCount: 2
Fore
SplineSet
91 446 m 5,0,-1
 269.91796875 446.033203125 l 5,1,-1
 269.91796875 104.447265625 l 6,2,3
 270.000109443 -263.490234375 270.000109443 -263.490234375 693.396484375 -263.490234375 c 6,4,-1
 718.682617188 -263.490234375 l 5,5,-1
 740.385742188 -262.901367188 l 6,6,7
 1144.0403092 -251.998911274 1144.0403092 -251.998911274 1143.88574219 48.5576171875 c 6,8,-1
 1143.57910156 644.822265625 l 5,9,-1
 1333.88769531 644.990234375 l 5,10,-1
 1334.48339844 365.1328125 l 6,11,12
 1335 181 1335 181 1531.29003906 177.67578125 c 0,13,14
 1681.29119622 174.99479542 1681.29119622 174.99479542 1680.69042969 396.787109375 c 2,15,-1
 1679.99902344 652.041992188 l 1,16,-1
 1863.94628906 652.041992188 l 1,17,-1
 1864.58886719 390.651367188 l 2,18,19
 1865 176 1865 176 2051.46484375 178.571289062 c 0,20,21
 2192.39550781 181.006835116 2192.39550781 181.006835116 2192.39550781 411.665039062 c 2,22,-1
 2192.39550781 693.979492188 l 1,23,-1
 2371.15234375 693.979492188 l 1,24,-1
 2371.15234375 417.647460938 l 2,25,26
 2371 0 2371 0 2056.42285156 -1.06640625 c 0,27,28
 1830 -2 1830 -2 1772.8828125 170.721679688 c 1,29,30
 1713 -3 1713 -3 1542.75390625 -1 c 0,31,32
 1377 1 1377 1 1320.62597656 98.7099609375 c 5,33,-1
 1320.29394531 43.9072265625 l 6,34,35
 1316.99651843 -434.505129171 1316.99651843 -434.505129171 737.471679688 -452.205078125 c 6,36,-1
 718.415039062 -452.787109375 l 5,37,-1
 691.224609375 -452.787109375 l 6,38,39
 91.4201065555 -452.999850995 91.4201065555 -452.999850995 91.16015625 103.276367188 c 6,40,-1
 91 446 l 5,0,-1
EndSplineSet
Substitution2: "'fina' Terminal Forms in Arabic lookup 9 subtable" uniFEB2
Substitution2: "'medi' Medial Forms in Arabic lookup 11 subtable" uniFEB4
Substitution2: "'init' Initial Forms in Arabic lookup 13 subtable" uniFEB3
EndChar

StartChar: uni0635
Encoding: 1589 1589 29
Width: 2488
VWidth: 2553
GlyphClass: 2
Flags: W
AnchorPoint: "Anchor-10" 539.495 987.957 basechar 0
AnchorPoint: "Anchor-7" 246.07 -630.58 basechar 0
LayerCount: 2
Fore
SplineSet
2214.57617188 423.748046875 m 0,0,1
 2175 592 2175 592 1997.12109375 592.013671875 c 0,2,3
 1797 592 1797 592 1613.00390625 191.52734375 c 1,4,-1
 1971.26074219 191.52734375 l 2,5,6
 2125 192 2125 192 2177 237 c 0,7,8
 2221 276 2221 276 2221 349 c 0,9,10
 2221 394 2221 394 2214.57617188 423.748046875 c 0,0,1
1438 215 m 1,11,12
 1669 773 1669 773 2007.5 773 c 0,13,14
 2198 773 2198 773 2305 631.907226562 c 0,15,16
 2390 519 2390 519 2390.5625 359.46875 c 0,17,18
 2391 184 2391 184 2276 91 c 0,19,20
 2164.35423364 0.287814831236 2164.35423364 0.287814831236 1951.26464844 0.1845703125 c 2,21,-1
 1570.32421875 0 l 2,22,23
 1392 -0 1392 -0 1320.25390625 112.287109375 c 1,24,-1
 1320.25390625 43.865234375 l 2,25,26
 1319.99978099 -434.41218012 1319.99978099 -434.41218012 737.431640625 -452.205078125 c 2,27,-1
 718.375 -452.787109375 l 1,28,-1
 691.1875 -452.787109375 l 2,29,30
 91.3176415548 -452.99988733 91.3176415548 -452.99988733 91.12109375 103.276367188 c 2,31,-1
 91 446 l 1,32,-1
 269.877929688 446.033203125 l 1,33,-1
 269.877929688 104.44921875 l 2,34,35
 270.000162861 -263.490234375 270.000162861 -263.490234375 693.356445312 -263.490234375 c 2,36,-1
 718.642578125 -263.490234375 l 1,37,-1
 746.364257812 -262.901367188 l 2,38,39
 1144.02260783 -253.999493907 1144.02260783 -253.999493907 1143.84570312 48.5576171875 c 2,40,-1
 1143.49707031 644.818359375 l 1,41,-1
 1324.94824219 644.911132812 l 1,42,-1
 1325.0390625 446.603515625 l 6,43,44
 1325 244 1325 244 1438 215 c 1,11,12
EndSplineSet
Substitution2: "'fina' Terminal Forms in Arabic lookup 9 subtable" uniFEBA
Substitution2: "'medi' Medial Forms in Arabic lookup 11 subtable" uniFEBC
Substitution2: "'init' Initial Forms in Arabic lookup 13 subtable" uniFEBB
EndChar

StartChar: uni0637
Encoding: 1591 1591 31
Width: 1281
VWidth: 2553
GlyphClass: 2
Flags: W
AnchorPoint: "Anchor-10" 385.723 1490.59 basechar 0
AnchorPoint: "Anchor-7" 654.688 -277.098 basechar 0
LayerCount: 2
Fore
SplineSet
1008.25195312 423.748046875 m 0,0,1
 969 592 969 592 790.796875 592.013671875 c 0,2,3
 590 592 590 592 406.6796875 191.52734375 c 1,4,-1
 764.936523438 191.52734375 l 2,5,6
 919 192 919 192 970.67578125 237 c 0,7,8
 1015 276 1015 276 1014.67578125 349 c 0,9,10
 1015 394 1015 394 1008.25195312 423.748046875 c 0,0,1
315.905273438 402.119140625 m 1,11,-1
 315.905273438 1368.64355469 l 5,12,-1
 491 1368.64355469 l 5,13,-1
 491 622.859375 l 1,14,15
 643 773 643 773 799.17578125 773 c 0,16,17
 995 773 995 773 1099.67578125 633.907226562 c 0,18,19
 1184 522 1184 522 1184.23828125 359.46875 c 0,20,21
 1185 184 1185 184 1069.67578125 91 c 0,22,23
 958.302452814 0.246456355754 958.302452814 0.246456355754 744.940429688 0.1845703125 c 2,24,-1
 91.7705078125 -0.0048828125 l 1,25,-1
 91.7705078125 189.200195312 l 1,26,-1
 213 189 l 1,27,28
 231 241 231 241 315.905273438 402.119140625 c 1,11,-1
EndSplineSet
Substitution2: "'fina' Terminal Forms in Arabic lookup 9 subtable" uniFEC2
Substitution2: "'medi' Medial Forms in Arabic lookup 11 subtable" uniFEC4
Substitution2: "'init' Initial Forms in Arabic lookup 13 subtable" uniFEC3
EndChar

StartChar: uni0639
Encoding: 1593 1593 33
Width: 1260
VWidth: 2553
GlyphClass: 2
Flags: W
AnchorPoint: "Anchor-10" 665.349 1455.99 basechar 0
AnchorPoint: "Anchor-7" 290.438 -871.494 basechar 0
LayerCount: 2
Fore
SplineSet
1167.51855469 -753.981445312 m 1,0,-1
 800.526367188 -753.098632812 l 2,1,2
 455 -752 455 -752 281 -621.71875 c 0,3,4
 91 -479 91 -479 91.8046875 -214.764648438 c 0,5,6
 93 158 93 158 515.569335938 327.666992188 c 1,7,8
 415 360 415 360 355.041015625 441.03515625 c 0,9,10
 287 531 287 531 287.923843387 642 c 0,11,12
 289 793 289 793 374 888 c 4,13,14
 488 1015 488 1015 713 1014.37147612 c 0,15,16
 865 1014 865 1014 1016.95019531 935.385742188 c 1,17,-1
 974.638671875 780.612304688 l 1,18,19
 834 836 834 836 723 835.978543871 c 0,20,21
 467 837 467 837 464 634 c 0,22,23
 462 443 462 443 716.225585938 397.77734375 c 1,24,-1
 1090.83789062 424.2890625 l 1,25,-1
 1090.67871094 246.701171875 l 1,26,27
 673 238 673 238 463 112 c 0,28,29
 264 -8 264 -8 265.932617188 -219.747070312 c 0,30,31
 269.001706716 -571.195439904 269.001706716 -571.195439904 796.560546875 -572.5 c 2,32,-1
 1168.57324219 -573.419921875 l 1,33,-1
 1167.51855469 -753.981445312 l 1,0,-1
EndSplineSet
Substitution2: "'fina' Terminal Forms in Arabic lookup 9 subtable" uniFECA
Substitution2: "'medi' Medial Forms in Arabic lookup 11 subtable" uniFECC
Substitution2: "'init' Initial Forms in Arabic lookup 13 subtable" uniFECB
EndChar

StartChar: afii57440
Encoding: 1600 1600 35
Width: 763
VWidth: 2553
GlyphClass: 2
Flags: W
AnchorPoint: "Anchor-10" 381.758 1491.26 basechar 0
AnchorPoint: "Anchor-7" 381.758 -141.351 basechar 0
LayerCount: 2
Fore
SplineSet
767.9765625 188 m 6,0,1
 843 188 843 188 842.9765625 99 c 2,2,-1
 842.9765625 88 l 2,3,4
 842.9765625 0 842.9765625 0 767.9765625 0 c 2,5,-1
 -5.0234375 0 l 2,6,7
 -80 0 -80 0 -80.0234375 88 c 2,8,-1
 -80.0234375 99 l 2,9,10
 -80.0234375 188 -80.0234375 188 -5.0234375 188 c 2,11,-1
 767.9765625 188 l 6,0,1
EndSplineSet
EndChar

StartChar: uni0643
Encoding: 1603 1603 38
Width: 1877
VWidth: 2553
GlyphClass: 2
Flags: W
AnchorPoint: "Anchor-10" 597.194 1631.14 basechar 0
AnchorPoint: "Anchor-7" 427.008 -289.033 basechar 0
LayerCount: 2
Fore
SplineSet
703.514648438 743.643554688 m 2,0,1
 768.202148438 735.491210938 768.202148438 735.491210938 832.82421875 735.491210938 c 128,-1,2
 897.4453125 735.491210938 897.4453125 735.491210938 953.028320312 757.094726562 c 0,3,4
 1037.05957031 789.754882812 1037.05957031 789.754882812 1037.05957031 841.939453125 c 128,-1,5
 1037.05957031 894.123046875 1037.05957031 894.123046875 946.17578125 908.501953125 c 128,-1,6
 855.29296875 922.880859375 855.29296875 922.880859375 819.223632812 970.057617188 c 0,7,8
 764.521484375 1041.6015625 764.521484375 1041.6015625 788.9921875 1118.515625 c 0,9,10
 836.159179688 1266.76855469 836.159179688 1266.76855469 1100.4453125 1286.41015625 c 2,11,-1
 1129.71484375 1288.58496094 l 1,12,-1
 1129.71484375 1188.15820312 l 1,13,-1
 1104.67480469 1186.12109375 l 2,14,15
 888.592773438 1168.54476636 888.592773438 1168.54476636 888.592773438 1073.37695312 c 0,16,17
 888.592773438 1024.77539062 888.592773438 1024.77539062 942.532226562 1007.42089844 c 0,18,19
 970.375 998.463867188 970.375 998.463867188 1021.78027344 990.90234375 c 128,-1,20
 1073.18457031 983.341796875 1073.18457031 983.341796875 1106.89746094 950.685546875 c 128,-1,21
 1140.609375 918.029296875 1140.609375 918.029296875 1140.609375 860.932617188 c 128,-1,22
 1140.609375 803.8359375 1140.609375 803.8359375 1117.30957031 766.818359375 c 0,23,24
 1004.61328125 587.772460938 1004.61328125 587.772460938 695.8984375 636.025390625 c 2,25,-1
 672.857421875 639.627929688 l 1,26,-1
 672.857421875 747.506835938 l 1,27,-1
 703.514648438 743.643554688 l 2,0,1
1371.84667969 188.23046875 m 2,28,29
 1569.41601562 188.23046875 1569.41601562 188.23046875 1569.41601562 450.396484375 c 2,30,-1
 1569.41601562 1367.18847656 l 5,31,-1
 1748.17382812 1367.18847656 l 5,32,-1
 1748.17382812 477.391601562 l 2,33,34
 1747.99997587 -1.06640625 1747.99997587 -1.06640625 1364.62988281 -1.06640625 c 2,35,-1
 472.955078125 -1.06640625 l 2,36,37
 91.1514430223 -1.00002633009 91.1514430223 -1.00002633009 91.1494140625 441.006835938 c 2,38,-1
 91.1484375 653.75 l 1,39,-1
 269.904296875 653.75 l 1,40,-1
 269.904296875 451.571289062 l 2,41,42
 269.999916316 188.23046875 269.999916316 188.23046875 467.470703125 188.23046875 c 2,43,-1
 1371.84667969 188.23046875 l 2,28,29
EndSplineSet
Substitution2: "'fina' Terminal Forms in Arabic lookup 9 subtable" uniFEDA
Substitution2: "'medi' Medial Forms in Arabic lookup 11 subtable" uniFEDC
Substitution2: "'init' Initial Forms in Arabic lookup 13 subtable" uniFEDB
EndChar

StartChar: uni0644
Encoding: 1604 1604 39
Width: 1377
VWidth: 2553
GlyphClass: 2
Flags: W
AnchorPoint: "Anchor-10" 397.625 1229.69 basechar 0
AnchorPoint: "Anchor-7" 360.231 -611.937 basechar 0
LayerCount: 2
Fore
SplineSet
269.877929688 104.44921875 m 2,0,1
 269.877929688 -257.528320312 269.877929688 -257.528320312 676.356445312 -257.528320312 c 2,2,-1
 701.643554688 -257.528320312 l 1,3,-1
 729.362304688 -256.938476562 l 2,4,5
 1072.36213184 -249.992666762 1072.36213184 -249.992666762 1072.36523438 88.416015625 c 2,6,7
 1072.37695312 1366.63671875 l 5,8,-1
 1246.29882812 1366.63671875 l 5,9,-1
 1245.25488281 83.9853515625 l 2,10,11
 1244.99990429 -430.192997926 1244.99990429 -430.192997926 720.430664062 -446.2421875 c 2,12,-1
 701.375 -446.825195312 l 1,13,-1
 674.186523438 -446.825195312 l 2,14,15
 91.3155215951 -446.999905425 91.3155215951 -446.999905425 91.12109375 103.276367188 c 2,16,-1
 91 446 l 1,17,-1
 269.877929688 446.033203125 l 1,18,-1
 269.877929688 104.44921875 l 2,0,1
EndSplineSet
Substitution2: "'fina' Terminal Forms in Arabic lookup 9 subtable" uniFEDE
Substitution2: "'medi' Medial Forms in Arabic lookup 11 subtable" uniFEE0
Substitution2: "'init' Initial Forms in Arabic lookup 13 subtable" uniFEDF
EndChar

StartChar: uni0645
Encoding: 1605 1605 40
Width: 1284
VWidth: 2553
GlyphClass: 2
Flags: W
AnchorPoint: "Anchor-10" 635.137 1252.98 basechar 0
AnchorPoint: "Anchor-7" 134.119 -737.918 basechar 0
LayerCount: 2
Fore
SplineSet
832.837890625 574.115234375 m 0,0,1
 711 574 711 574 678.53125 569.491210938 c 1,2,3
 675 524 675 524 675.83203125 400.116680651 c 0,4,5
 677 248 677 248 730.286132812 193.526367188 c 0,6,7
 780 143 780 143 868.740234375 142.890625 c 0,8,9
 1031 143 1031 143 1022.97265625 411.822265625 c 0,10,11
 1018 574 1018 574 832.837890625 574.115234375 c 0,0,1
878.190429688 744.5390625 m 6,12,13
 1194.99752945 744.553266685 1194.99752945 744.553266685 1193.04785156 392.005859375 c 0,14,15
 1192 128 1192 128 1040.48242188 26.3974609375 c 0,16,17
 977 -16 977 -16 865 -16.4759455026 c 0,18,19
 708 -18 708 -18 611.139648438 71.6201171875 c 0,20,21
 493 180 493 180 498.890625 425.30859375 c 0,22,23
 501 513 501 513 505.227539062 553.943359375 c 1,24,25
 265.010742188 531.001025952 265.010742188 531.001025952 265.010742188 161.032226562 c 2,26,-1
 265.010742188 -496.416992188 l 1,27,-1
 90.94921875 -496.416992188 l 1,28,-1
 90.94921875 153.58984375 l 1,29,-1
 90.9541015625 159.58984375 l 0,30,31
 90.0008088312 744.503723673 90.0008088312 744.503723673 573.255859375 744.525390625 c 2,32,-1
 878.190429688 744.5390625 l 6,12,13
EndSplineSet
Substitution2: "'init' Initial Forms in Arabic lookup 13 subtable" uniFEE3
Substitution2: "'medi' Medial Forms in Arabic lookup 11 subtable" uniFEE4
Substitution2: "'fina' Terminal Forms in Arabic lookup 9 subtable" uniFEE2
EndChar

StartChar: uni0647
Encoding: 1607 1607 42
Width: 899
VWidth: 2330
GlyphClass: 2
Flags: W
AnchorPoint: "Anchor-10" 407.833 1117.93 basechar 0
AnchorPoint: "Anchor-7" 309.418 -200.202 basechar 0
LayerCount: 2
Fore
SplineSet
447.696289062 624.520507812 m 1,0,1
 262 438 262 438 261.731445312 319.337890625 c 0,2,3
 262 182 262 182 461.715820312 181.935546875 c 0,4,5
 647 182 647 182 647.15625 314.548828125 c 0,6,7
 647 434 647 434 447.696289062 624.520507812 c 1,0,1
90.951171875 302.149414062 m 0,8,9
 91 498 91 498 328.166015625 743.556640625 c 1,10,-1
 289.388671875 779.409179688 l 1,11,-1
 394.168945312 897.5390625 l 1,12,13
 814 579 814 579 813.499023438 305.068359375 c 0,14,15
 813 1 813 1 460.139648438 0.9775390625 c 4,16,17
 91 2 91 2 90.951171875 302.149414062 c 0,8,9
EndSplineSet
Substitution2: "'fina' Terminal Forms in Arabic lookup 9 subtable" uniFEEA
Substitution2: "'medi' Medial Forms in Arabic lookup 11 subtable" uniFEEC
Substitution2: "'init' Initial Forms in Arabic lookup 13 subtable" uniFEEB
EndChar

StartChar: uni0648
Encoding: 1608 1608 43
Width: 857
VWidth: 2553
GlyphClass: 2
Flags: W
AnchorPoint: "Anchor-10" 352.019 1205.88 basechar 0
AnchorPoint: "Anchor-7" 355.433 -717.366 basechar 0
LayerCount: 2
Fore
SplineSet
762.920898438 9.51953125 m 2,0,1
 763.297692736 -490.677711681 763.297692736 -490.677711681 220.75390625 -490.412109375 c 2,2,-1
 117.0234375 -490.361328125 l 1,3,-1
 116.920898438 -302.1953125 l 1,4,-1
 216.883789062 -302.265625 l 2,5,6
 580.979603696 -302.999958863 580.979603696 -302.999958863 579.970703125 -20.1533203125 c 2,7,-1
 579.8984375 0.1064453125 l 1,8,-1
 399.0390625 0.1064453125 l 2,9,10
 90 0 90 0 91.076171875 363.728515625 c 0,11,12
 93 728 93 728 427.5703125 728.58984375 c 0,13,14
 762.378919614 729.00046472 762.378919614 729.00046472 762.659179688 356.953125 c 2,15,-1
 762.920898438 9.51953125 l 2,0,1
423.612304688 553.374023438 m 0,17,18
 250 553 250 553 249.859375 365.225585938 c 0,19,20
 249.999957286 189.053527327 249.999957286 189.053527327 398 189 c 2,21,-1
 589.709960938 188.930664062 l 1,22,-1
 589.258789062 351 l 2,23,24
 589 553 589 553 423.612304688 553.374023438 c 0,17,18
EndSplineSet
Substitution2: "'fina' Terminal Forms in Arabic lookup 9 subtable" uniFEEE
EndChar

StartChar: uni0649
Encoding: 1609 1609 44
Width: 1456
VWidth: 2553
GlyphClass: 2
Flags: W
AnchorPoint: "Anchor-10" 444.637 1228.75 basechar 0
AnchorPoint: "Anchor-7" 285.837 -686.501 basechar 0
LayerCount: 2
Fore
SplineSet
1140.77441406 273.370117188 m 6,0,1
 1365.12792969 273.370117188 1365.12792969 273.370117188 1365.12792969 51.36328125 c 6,2,-1
 1365.12792969 22.0224609375 l 6,3,4
 1365 -479.303710938 1365 -479.303710938 755.421875 -479.280273438 c 6,5,-1
 729.877929688 -479.279296875 l 5,6,-1
 700.94140625 -479.280273438 l 6,7,8
 90.626953125 -479 90.626953125 -479 90.267578125 76.033203125 c 6,9,-1
 90 489 l 5,10,-1
 269.022460938 489 l 5,11,-1
 269.022460938 77.2060546875 l 6,12,13
 269 -289.95703125 269 -289.95703125 703.11328125 -289.98046875 c 6,14,-1
 730.028320312 -289.981445312 l 5,15,-1
 764.020507812 -289.98046875 l 6,16,17
 1188.71875 -290 1188.71875 -290 1188.71875 4.416015625 c 6,18,-1
 1188.71875 16.1513671875 l 6,19,20
 1188.99902344 94.740234375 1188.99902344 94.740234375 1110.29003906 94.740234375 c 6,21,-1
 918.9765625 94.7412109375 l 6,22,23
 745.765625 95 745.765625 95 745.765625 261.583007812 c 6,24,-1
 745.765625 327.377929688 l 6,25,26
 746 799.689453125 746 799.689453125 1168.53320312 799.901367188 c 6,27,-1
 1365 800 l 5,28,-1
 1365.89160156 610.604492188 l 5,29,-1
 1127.28222656 610.604492188 l 6,30,31
 929.9296875 611 929.9296875 611 924.522460938 334.002929688 c 6,32,-1
 923.338867188 273.370117188 l 5,33,-1
 1140.77441406 273.370117188 l 6,0,1
EndSplineSet
Substitution2: "'fina' Terminal Forms in Arabic lookup 9 subtable" uniFEF0
Substitution2: "'medi' Medial Forms in Arabic lookup 11 subtable" uniFBE9
Substitution2: "'init' Initial Forms in Arabic lookup 13 subtable" uniFBE8
EndChar

StartChar: uni064B
Encoding: 1611 1611 46
Width: 0
VWidth: 2186
GlyphClass: 4
Flags: W
AnchorPoint: "Anchor-10" 547.84 1041.5 mark 0
AnchorPoint: "Anchor-9" 547.84 1041.5 mark 0
AnchorPoint: "Anchor-1" 547.84 1576.5 basemark 0
AnchorPoint: "Anchor-1" 547.84 1041.5 mark 0
LayerCount: 2
Fore
SplineSet
286 993 m 5,0,-1
 286 1120.0703125 l 5,1,-1
 780 1322.0703125 l 5,2,-1
 780 1195 l 5,3,-1
 286 993 l 5,0,-1
286 1252 m 5,4,-1
 286 1379.0703125 l 5,5,-1
 780 1581.0703125 l 5,6,-1
 780 1454 l 5,7,-1
 286 1252 l 5,4,-1
EndSplineSet
EndChar

StartChar: uni064C
Encoding: 1612 1612 47
Width: 0
VWidth: 2186
GlyphClass: 4
Flags: W
AnchorPoint: "Anchor-10" 554.386 1155.44 mark 0
AnchorPoint: "Anchor-9" 554.386 1155.44 mark 0
AnchorPoint: "Anchor-1" 546.386 1810.94 basemark 0
AnchorPoint: "Anchor-1" 554.386 1155.44 mark 0
LayerCount: 2
Fore
SplineSet
567.219 1298.72 m 0,0,1
 608.391 1338.78 608.391 1338.78 631.845 1385.69 c 2,2,-1
 639.364 1400.73 l 1,3,-1
 622.913 1404.22 l 2,4,5
 589.558 1411.29 589.558 1411.29 566.532 1424.31 c 0,6,7
 457.736 1481.73 457.736 1481.73 457.736 1574.47 c 0,8,9
 457.736 1661.08 457.736 1661.08 526.365 1712.8 c 0,10,11
 552.86 1732.67 552.86 1732.67 615.937 1732.67 c 0,12,13
 688.759 1732.67 688.759 1732.67 727.738 1694.66 c 0,14,15
 782.696 1640.71 782.696 1640.71 782.696 1561.63 c 0,16,17
 782.696 1521.9 782.696 1521.9 770.46 1483.15 c 2,18,-1
 765.402 1467.14 l 1,19,-1
 782.175 1466.26 l 2,20,21
 802.247 1465.2 802.247 1465.2 817.806 1465.17 c 0,22,23
 831.205 1464.45 831.205 1464.45 845.826 1464.2 c 1,24,-1
 845.826 1372.44 l 1,25,26
 806.232 1372.69 806.232 1372.69 788.381 1374.48 c 2,27,-1
 723.27 1380.74 l 1,28,-1
 719.537 1371.99 l 2,29,30
 692.652 1308.91 692.652 1308.91 614.12 1227.24 c 1,31,32
 527.043 1139.14 527.043 1139.14 431.896 1139.14 c 0,33,34
 298 1139 298 1139 262.205 1295.39 c 0,35,36
 247.727265594 1354.15981632 247.727265594 1354.15981632 246.994 1442.7 c 1,37,-1
 317.299 1442.7 l 1,38,39
 318.019505835 1361.09673846 318.019505835 1361.09673846 331.307 1318.59 c 4,40,41
 359 1230 359 1230 431.896 1230.84 c 0,42,43
 497.076 1230.84 497.076 1230.84 567.219 1298.72 c 0,0,1
669.292 1482.64 m 1,44,-1
 680.316 1508.36 l 2,45,46
 690.996 1533.28 690.996 1533.28 690.996 1561.63 c 0,47,48
 690.996 1604.15 690.996 1604.15 668.07 1623.02 c 0,49,50
 646.28 1640.97 646.28 1640.97 620.217 1640.97 c 0,51,52
 591.787 1640.97 591.787 1640.97 575.875 1628.63 c 0,53,54
 551.576 1610.34 551.576 1610.34 551.576 1574.47 c 0,55,56
 551.576 1526.08 551.576 1526.08 607.898 1503.55 c 0,57,58
 629.803 1494.79 629.803 1494.79 658.123 1486.08 c 2,59,-1
 669.292 1482.64 l 1,44,-1
EndSplineSet
EndChar

StartChar: uni064D
Encoding: 1613 1613 48
Width: 0
VWidth: 2186
GlyphClass: 4
Flags: W
AnchorPoint: "Anchor-7" 531.84 75.5 mark 0
AnchorPoint: "Anchor-6" 531.84 75.5 mark 0
AnchorPoint: "Anchor-0" 547.84 -439.5 basemark 0
AnchorPoint: "Anchor-0" 531.84 75.5 mark 0
LayerCount: 2
Fore
SplineSet
291 -497 m 5,0,-1
 291 -369.9296875 l 5,1,-1
 785 -167.9296875 l 5,2,-1
 785 -295 l 5,3,-1
 291 -497 l 5,0,-1
291 -238 m 5,4,-1
 291 -110.9296875 l 5,5,-1
 785 91.0703125 l 5,6,-1
 785 -36 l 5,7,-1
 291 -238 l 5,4,-1
EndSplineSet
EndChar

StartChar: uni064E
Encoding: 1614 1614 49
Width: 0
VWidth: 2186
GlyphClass: 4
Flags: W
AnchorPoint: "Anchor-10" 517.84 1279.5 mark 0
AnchorPoint: "Anchor-9" 517.84 1279.5 mark 0
AnchorPoint: "Anchor-1" 517.84 1600.5 basemark 0
AnchorPoint: "Anchor-1" 517.84 1279.5 mark 0
LayerCount: 2
Fore
SplineSet
257 1251 m 5,0,-1
 257 1378.0703125 l 5,1,-1
 751 1580.0703125 l 5,2,-1
 751 1453 l 5,3,-1
 257 1251 l 5,0,-1
EndSplineSet
EndChar

StartChar: uni064F
Encoding: 1615 1615 50
Width: 0
VWidth: 2186
GlyphClass: 4
Flags: W
AnchorPoint: "Anchor-10" 531.84 1205.5 mark 0
AnchorPoint: "Anchor-9" 531.84 1205.5 mark 0
AnchorPoint: "Anchor-1" 547.84 1825 basemark 0
AnchorPoint: "Anchor-1" 531.84 1205.5 mark 0
LayerCount: 2
Fore
SplineSet
567.734 1438.5 m 4,0,1
 459 1485 459 1485 459.19 1588.53 c 0,2,3
 459.19 1675.14 459.19 1675.14 527.819 1726.86 c 0,4,5
 554.314 1746.73 554.314 1746.73 617.39 1746.73 c 0,6,7
 690.212 1746.73 690.212 1746.73 729.192 1708.72 c 0,8,9
 784.15 1654.77 784.15 1654.77 784.15 1575.69 c 0,10,11
 784.15 1543.43 784.15 1543.43 769.757 1497.16 c 2,12,-1
 764.821 1481.3 l 1,13,-1
 781.407 1480.32 l 2,14,15
 799.81 1479.24 799.81 1479.24 819.259 1478.7 c 0,16,17
 832.229 1478.34 832.229 1478.34 847.28 1478.21 c 1,18,-1
 847.28 1386.53 l 1,19,20
 817.029 1386.85 817.029 1386.85 789.455 1388.57 c 0,21,22
 757.6 1390.7 757.6 1390.7 727.915 1393.88 c 2,23,-1
 720.312 1394.69 l 1,24,-1
 715.905 1388.44 l 2,25,26
 671.45 1325.37 671.45 1325.37 599.88 1281.81 c 0,27,28
 398.294 1157.85 398.294 1157.85 248.4 1152.36 c 1,29,-1
 248.4 1244.01 l 1,30,31
 408.671 1248.65 408.671 1248.65 554.781 1363.22 c 0,32,33
 580.142 1383.07 580.142 1383.07 601.135 1405.16 c 2,34,-1
 616.962 1421.83 l 1,35,36
 595.827546953 1426.52172987 595.827546953 1426.52172987 567.734 1438.5 c 4,0,1
670.746 1496.7 m 1,37,-1
 681.77 1522.42 l 2,38,39
 692.45 1547.34 692.45 1547.34 692.45 1575.69 c 0,40,41
 692.45 1618.21 692.45 1618.21 669.524 1637.08 c 0,42,43
 647.734 1655.03 647.734 1655.03 621.67 1655.03 c 0,44,45
 593.241 1655.03 593.241 1655.03 577.329 1642.69 c 0,46,47
 553.03 1624.4 553.03 1624.4 553.03 1588.53 c 0,48,49
 553.03 1540.14 553.03 1540.14 609.352 1517.61 c 0,50,51
 631.256 1508.85 631.256 1508.85 659.577 1500.14 c 2,52,-1
 670.746 1496.7 l 1,37,-1
EndSplineSet
EndChar

StartChar: uni0650
Encoding: 1616 1616 51
Width: 0
VWidth: 2186
GlyphClass: 4
Flags: W
AnchorPoint: "Anchor-7" 509.84 -12.5 mark 0
AnchorPoint: "Anchor-6" 509.84 -12.5 mark 0
AnchorPoint: "Anchor-0" 556.84 -311.5 basemark 0
AnchorPoint: "Anchor-0" 509.84 -12.5 mark 0
LayerCount: 2
Fore
SplineSet
301 -343 m 1,0,-1
 301 -215.9296875 l 1,1,-1
 795 -13.9296875 l 1,2,-1
 795 -141 l 1,3,-1
 301 -343 l 1,0,-1
EndSplineSet
EndChar

StartChar: uni0651
Encoding: 1617 1617 52
Width: 0
VWidth: 2186
GlyphClass: 4
Flags: W
AnchorPoint: "Anchor-10" 547.84 1316.5 mark 0
AnchorPoint: "Anchor-9" 547.84 1316.5 mark 0
AnchorPoint: "Anchor-1" 535.84 1818.5 basemark 0
AnchorPoint: "Anchor-1" 547.84 1316.5 mark 0
LayerCount: 2
Fore
SplineSet
408.798468648 1289.38967749 m 0,0,1
 239.027079407 1288.98822678 239.027079407 1288.98822678 238.000071487 1481.04357559 c 2,2,-1
 237.195191222 1631.56 l 1,3,-1
 325.682175933 1631.56 l 1,4,-1
 327.139397609 1479.93973063 l 2,5,6
 327.950689129 1398.9477891 327.950689129 1398.9477891 408.868686112 1398.08981898 c 0,7,8
 499.68061644 1398.00497216 499.68061644 1398.00497216 501.266432204 1518.60574082 c 2,9,-1
 503.465314262 1685.83 l 1,10,-1
 590.986193867 1685.83 l 1,11,-1
 593.33890213 1527.62730596 l 2,12,13
 594.903806353 1447.00436094 594.903806353 1447.00436094 690.845447762 1447.08984061 c 0,14,15
 766.037901545 1447.00556467 766.037901545 1447.00556467 767.540417493 1569.12108592 c 2,16,-1
 769.582626184 1735.09960938 l 1,17,-1
 862.769082334 1735.09960938 l 1,18,-1
 860.679332524 1570.81053841 l 2,19,20
 857.940723544 1340.99593417 857.940723544 1340.99593417 692.006640619 1341.13281691 c 0,21,22
 597.603332438 1341.00743752 597.603332438 1341.00743752 557.150289792 1398.14186304 c 1,23,24
 530.034257024 1289.98536752 530.034257024 1289.98536752 408.798468648 1289.38967749 c 0,0,1
EndSplineSet
EndChar

StartChar: uni0652
Encoding: 1618 1618 53
Width: 0
VWidth: 2186
GlyphClass: 4
Flags: W
AnchorPoint: "Anchor-10" 565.84 1128.5 mark 0
AnchorPoint: "Anchor-9" 565.84 1128.5 mark 0
AnchorPoint: "Anchor-1" 551.84 1702 basemark 0
AnchorPoint: "Anchor-1" 565.84 1128.5 mark 0
LayerCount: 2
Fore
SplineSet
674.569 1383.62 m 0,0,1
 674.569 1428.15 674.569 1428.15 643.439 1459.28 c 128,-1,2
 612.312 1490.41 612.312 1490.41 567.126 1490.41 c 0,3,4
 521.285 1490.41 521.285 1490.41 490.485 1459.61 c 128,-1,5
 459.685 1428.81 459.685 1428.81 459.685 1383.62 c 0,6,7
 459.685 1337.78 459.685 1337.78 490.485 1306.98 c 128,-1,8
 521.285 1276.18 521.285 1276.18 567.126 1276.18 c 0,9,10
 612.314 1276.18 612.314 1276.18 643.439 1307.31 c 128,-1,11
 674.569 1338.44 674.569 1338.44 674.569 1383.62 c 0,0,1
750.396 1383.73 m 128,-1,13
 750.396 1306.88 750.396 1306.88 697.316 1253.46 c 128,-1,14
 644.259 1200.07 644.259 1200.07 567.436 1200.07 c 128,-1,15
 490.613 1200.07 490.613 1200.07 437.557 1253.46 c 128,-1,16
 384.476 1306.88 384.476 1306.88 384.476 1383.73 c 128,-1,17
 384.476 1460.56 384.476 1460.56 437.537 1513.63 c 128,-1,18
 490.596 1566.69 490.596 1566.69 567.436 1566.69 c 128,-1,19
 644.276 1566.69 644.276 1566.69 697.335 1513.63 c 128,-1,12
 750.396 1460.56 750.396 1460.56 750.396 1383.73 c 128,-1,13
EndSplineSet
EndChar

StartChar: uni0653
Encoding: 1619 1619 54
Width: 11
VWidth: 2553
GlyphClass: 4
Flags: W
AnchorPoint: "Anchor-10" 404.334 1442.64 mark 0
AnchorPoint: "Anchor-9" 404.334 1442.64 mark 0
AnchorPoint: "Anchor-1" 397.691 1800.13 basemark 0
AnchorPoint: "Anchor-1" 404.334 1442.64 mark 0
LayerCount: 2
Fore
SplineSet
305.553710938 1686.04003906 m 2,0,-1
 710.001953125 1686.04003906 l 5,1,-1
 711.517578125 1534.54003906 l 5,2,-1
 318.1640625 1534.54003906 l 2,3,4
 229.134542678 1534.99930595 229.134542678 1534.99930595 165.71875 1452.35839844 c 2,5,-1
 145.598632812 1426.13867188 l 1,6,-1
 43.5888671875 1541.40039062 l 1,7,-1
 55.0322265625 1558.83007812 l 2,8,9
 139 1686 139 1686 305.553710938 1686.04003906 c 2,0,-1
EndSplineSet
EndChar

StartChar: uni0657
Encoding: 1623 1623 57
Width: 11
VWidth: 2553
GlyphClass: 4
Flags: W
AnchorPoint: "Anchor-10" 648 1490.29 mark 0
AnchorPoint: "Anchor-9" 648 1490.29 mark 0
AnchorPoint: "Anchor-1" 648 2306.6 basemark 0
AnchorPoint: "Anchor-1" 648 1490.29 mark 0
LayerCount: 2
Fore
SplineSet
306.93359375 1991.88769531 m 1,0,-1
 450.541015625 1981.86425781 l 1,1,2
 510.180800958 2066.46174183 510.180800958 2066.46174183 592.361328125 2116.48046875 c 0,3,4
 817.018263895 2254.62504563 817.018263895 2254.62504563 989.06640625 2266.37109375 c 1,5,-1
 989.06640625 2179.70019531 l 1,6,7
 801.000944794 2169.33489258 801.000944794 2169.33489258 633.450195312 2037.95410156 c 0,8,9
 603.086914062 2014.18554688 603.086914062 2014.18554688 577.916992188 1987.703125 c 2,10,-1
 546.705078125 1954.84375 l 1,11,-1
 590.9453125 1945.00195312 l 2,12,13
 598.904296875 1943.23632812 598.904296875 1943.23632812 639.939453125 1921.87646484 c 128,-1,14
 680.974609375 1900.51660156 680.974609375 1900.51660156 711.318359375 1858.87304688 c 128,-1,15
 741.662109375 1817.22949219 741.662109375 1817.22949219 741.662109375 1767.10302734 c 128,-1,16
 741.662109375 1716.9765625 741.662109375 1716.9765625 727.368164062 1688.15576172 c 0,17,18
 678.704817741 1590.03613281 678.704817741 1590.03613281 560.003986708 1590.03613281 c 0,19,20
 441.303155674 1590.03613281 441.303155674 1590.03613281 396.317382812 1698.92773438 c 0,21,22
 381.028320312 1735.93894084 381.028320312 1735.93894084 381.028320312 1776.31761495 c 128,-1,23
 381.028320312 1816.69628906 381.028320312 1816.69628906 397.453125 1869.484375 c 2,24,-1
 407.186523438 1900.77050781 l 1,25,-1
 374.467773438 1902.703125 l 2,26,27
 343.974695766 1904.49603037 343.974695766 1904.49603037 306.93359375 1905.08398438 c 1,28,-1
 306.93359375 1991.88769531 l 1,0,-1
497.87890625 1885.78320312 m 1,29,-1
 481.260742188 1847.01367188 l 2,30,31
 467.884765625 1815.82258117 467.884765625 1815.82258117 467.884765625 1770.71402496 c 128,-1,32
 467.884765625 1725.60546875 467.884765625 1725.60546875 497.455566406 1701.24902344 c 128,-1,33
 527.026367188 1676.89257812 527.026367188 1676.89257812 561.344726562 1676.89257812 c 0,34,35
 633.005376407 1678.9500117 633.005376407 1678.9500117 648.71484375 1736.82519531 c 0,36,37
 652.293945312 1750.00585938 652.293945312 1750.00585938 652.293945312 1761.6640625 c 0,38,39
 652.293945312 1838.29363789 652.293945312 1838.29363789 519.913085938 1878.99902344 c 2,40,-1
 497.87890625 1885.78320312 l 1,29,-1
EndSplineSet
EndChar

StartChar: uni065A
Encoding: 1626 1626 58
Width: 1295
VWidth: 2553
GlyphClass: 4
Flags: W
AnchorPoint: "Anchor-10" 648 1490.29 mark 0
AnchorPoint: "Anchor-9" 648 1490.29 mark 0
AnchorPoint: "Anchor-1" 645.488 2055.43 basemark 0
AnchorPoint: "Anchor-1" 648 1490.29 mark 0
LayerCount: 2
Fore
SplineSet
569.607421875 1593.80273438 m 1,0,-1
 355.39453125 1951.92480469 l 1,1,-1
 471.013671875 1951.92480469 l 1,2,-1
 648 1686.44140625 l 1,3,-1
 824.983398438 1951.92480469 l 1,4,-1
 940.604492188 1951.92480469 l 1,5,-1
 726.388671875 1593.80273438 l 1,6,-1
 569.607421875 1593.80273438 l 1,0,-1
EndSplineSet
EndChar

StartChar: afii57392
Encoding: 1632 1632 59
Width: 1016
VWidth: 2553
GlyphClass: 2
Flags: W
LayerCount: 2
Fore
SplineSet
398.626953125 442.924804688 m 0,0,1
 433.595703125 374.819335938 433.595703125 374.819335938 509.271484375 374.819335938 c 0,2,3
 560.361328125 374.819335938 560.361328125 374.819335938 596.65234375 411.321289062 c 128,-1,4
 632.966796875 447.84375 632.966796875 447.84375 632.966796875 499.287109375 c 128,-1,5
 632.966796875 550.72265625 632.966796875 550.72265625 596.654296875 587.252929688 c 128,-1,6
 560.36328125 623.755859375 560.36328125 623.755859375 509.271484375 623.755859375 c 128,-1,7
 458.18359375 623.755859375 458.18359375 623.755859375 421.890625 587.252929688 c 128,-1,8
 385.576171875 550.724609375 385.576171875 550.724609375 385.576171875 496.697265625 c 0,9,10
 385.576171875 468.338867188 385.576171875 468.338867188 398.626953125 442.924804688 c 0,0,1
250.685546875 369.219726562 m 0,11,12
 220.337890625 428.323242188 220.337890625 428.323242188 220.337890625 494.272460938 c 0,13,14
 220.337890625 619.91796875 220.337890625 619.91796875 304.7890625 704.8671875 c 128,-1,15
 389.189453125 789.756835938 389.189453125 789.756835938 508 789.756835938 c 128,-1,16
 626.81640625 789.756835938 626.81640625 789.756835938 711.212890625 704.8671875 c 128,-1,17
 795.662109375 619.9140625 795.662109375 619.9140625 795.662109375 500.294921875 c 128,-1,18
 795.662109375 380.659179688 795.662109375 380.659179688 711.2109375 295.723632812 c 128,-1,19
 626.810546875 210.834960938 626.810546875 210.834960938 508 210.834960938 c 0,20,21
 332.0078125 210.834960938 332.0078125 210.834960938 250.685546875 369.219726562 c 0,11,12
EndSplineSet
EndChar

StartChar: afii57393
Encoding: 1633 1633 60
Width: 672
VWidth: 2553
GlyphClass: 2
Flags: W
LayerCount: 2
Fore
SplineSet
451.849609375 3.9091796875 m 1,0,-1
 266.869140625 3.9091796875 l 1,1,2
 264 822 264 822 117 1282 c 1,3,-1
 295 1331 l 1,4,5
 451 837 451 837 451.849609375 3.9091796875 c 1,0,-1
EndSplineSet
EndChar

StartChar: afii57394
Encoding: 1634 1634 61
Width: 1058
VWidth: 2553
GlyphClass: 2
Flags: W
LayerCount: 2
Fore
SplineSet
438.8515625 11.921875 m 6,0,-1
 438.864257812 3.9091796875 l 5,1,-1
 254.094726562 3.9091796875 l 5,2,-1
 254.076171875 11.8916015625 l 6,3,4
 252 697 252 697 113.909179688 1279.46484375 c 5,5,-1
 291 1331 l 5,6,7
 335.04296875 1135.35644531 l 6,8,9
 385 912 385 912 595.235351562 910.3828125 c 4,10,11
 796 909 796 909 803.625 1130.23925781 c 4,12,13
 807 1224 807 1224 804.225585938 1341.6875 c 5,14,-1
 967.573242188 1341.6875 l 5,15,16
 972 1095 972 1095 956.909179688 1009.46484375 c 4,17,18
 906 728 906 728 596.358398438 727.407226562 c 4,19,20
 478 727 478 727 400.331054688 792.1953125 c 5,21,22
 438 515 438 515 438.8515625 11.921875 c 6,0,-1
EndSplineSet
EndChar

StartChar: afii57395
Encoding: 1635 1635 62
Width: 1335
VWidth: 2553
GlyphClass: 2
Flags: W
LayerCount: 2
Fore
SplineSet
823.4140625 1084.46484375 m 6,0,1
 822.967773438 913 822.967773438 913 967.739257812 913.254882812 c 4,2,3
 1083.859375 913 1083.859375 913 1083.40429688 1078.765625 c 6,4,-1
 1082.68554688 1340.45996094 l 5,5,-1
 1254.08007812 1340.45996094 l 5,6,7
 1255.0078125 1155.07226562 l 6,8,9
 1257 737 1257 737 974.7265625 736.75 c 4,10,11
 811 737 811 737 748.731445312 857.973632812 c 5,12,13
 686 743 686 743 567.7734375 739.915039062 c 4,14,15
 473 737 473 737 407.9140625 789.46484375 c 5,16,17
 438.993164062 549.049804688 438.993164062 549.049804688 439.517578125 11.9169921875 c 6,18,-1
 439.525390625 3.9091796875 l 5,19,-1
 254.75390625 3.9091796875 l 5,20,-1
 254.825195312 39.0595703125 l 6,21,22
 256 833 256 833 113.100585938 1286.46484375 c 5,23,-1
 284 1341 l 5,24,-1
 344.03125 1114.65820312 l 6,25,26
 398 913 398 913 538.471679688 913.147460938 c 4,27,28
 666.110351562 913 666.110351562 913 666.405273438 1094.42871094 c 6,29,-1
 666.805664062 1341 l 5,30,-1
 824.08203125 1341 l 5,31,-1
 823.4140625 1084.46484375 l 6,0,1
EndSplineSet
EndChar

StartChar: afii57396
Encoding: 1636 1636 63
Width: 907
VWidth: 2553
GlyphClass: 2
Flags: W
LayerCount: 2
Fore
SplineSet
110.43359375 297 m 4,0,1
 160 519 160 519 359.760742188 683.260742188 c 5,2,3
 226 750 226 750 139.000976562 853.2890625 c 4,4,5
 102 897 102 897 119.670898438 957 c 4,6,7
 195 1209 195 1209 580.29296875 1349.23925781 c 5,8,9
 594 1305 594 1305 604.83984375 1150.83105469 c 5,10,11
 382 1068 382 1068 316.000976562 983.080078125 c 4,12,13
 290 950 290 950 337.000976562 919.455078125 c 4,14,15
 497 816 497 816 671.162109375 781.5625 c 5,16,17
 666 718 666 718 661.497070312 662.63671875 c 5,18,19
 432 530 432 530 316.000976562 371.37109375 c 4,20,21
 269 307 269 307 343.000976562 283.865234375 c 4,22,23
 513 230 513 230 778.109375 254.153320312 c 5,24,-1
 806.447265625 42.1474609375 l 5,25,26
 373 13 373 13 139.000976562 164.299804688 c 4,27,28
 88 197 88 197 110.43359375 297 c 4,0,1
EndSplineSet
EndChar

StartChar: afii57397
Encoding: 1637 1637 64
Width: 1218
VWidth: 2553
GlyphClass: 2
Flags: W
LayerCount: 2
Fore
SplineSet
597.77734375 983.793945312 m 1,0,1
 390 812 390 812 317.069335938 597.463867188 c 0,2,3
 294 530 294 530 293.795898438 462.901367188 c 0,4,5
 293 189 293 189 608.357421875 188.442382812 c 0,6,7
 823 188 823 188 888.504882812 308 c 0,8,9
 946.81780415 414.128347026 946.81780415 414.128347026 890.504882812 581 c 0,10,11
 822 784 822 784 597.77734375 983.793945312 c 1,0,1
388.1953125 1128.59375 m 1,12,-1
 495.268554688 1283.17285156 l 1,13,14
 1122 881 1122 881 1124.62534091 402 c 4,15,16
 1125.4782836 203.665011012 1125.4782836 203.665011012 949.2421875 85.298828125 c 0,17,18
 820 -2 820 -2 625.114257812 -1.3291015625 c 0,19,20
 342 -1 342 -1 210.59375 137.111328125 c 0,21,22
 80 276 80 276 108.568359375 498.184570312 c 0,23,24
 131 673 131 673 222 816 c 0,25,26
 335 991 335 991 453.510742188 1092.30761719 c 1,27,-1
 388.1953125 1128.59375 l 1,12,-1
EndSplineSet
EndChar

StartChar: afii57398
Encoding: 1638 1638 65
Width: 1250
VWidth: 2553
GlyphClass: 2
Flags: W
LayerCount: 2
Fore
SplineSet
91.5263671875 1330.12207031 m 5,0,1
 311 1274 311 1274 531.360351562 1273.6796875 c 4,2,3
 752 1274 752 1274 1006 1331 c 5,4,5
 1010 618 1010 618 1161.07714844 3.9091796875 c 1,6,-1
 957.666015625 3.9091796875 l 1,7,8
 876.881138604 374.373451702 876.881138604 374.373451702 823.571289062 1116.8984375 c 5,9,10
 672 1075 672 1075 483.75 1074.82910156 c 4,11,12
 295 1075 295 1075 91.5263671875 1132.41992188 c 5,13,-1
 91.5263671875 1330.12207031 l 5,0,1
EndSplineSet
EndChar

StartChar: afii57399
Encoding: 1639 1639 66
Width: 1212
VWidth: 2553
GlyphClass: 2
Flags: W
LayerCount: 2
Fore
SplineSet
516.002929688 3.9091796875 m 5,0,1
 401 671 401 671 80.7333984375 1275.83984375 c 5,2,-1
 272 1340 l 5,3,4
 509 832 509 832 611 405 c 5,5,6
 697 774 697 774 950 1340 c 5,7,-1
 1131.26660156 1275.83984375 l 5,8,9
 818 686 818 686 704.961914062 3.9091796875 c 5,10,-1
 516.002929688 3.9091796875 l 5,0,1
EndSplineSet
EndChar

StartChar: afii57400
Encoding: 1640 1640 67
Width: 1212
VWidth: 2553
GlyphClass: 2
Flags: W
LayerCount: 2
Fore
SplineSet
516.002929688 1340 m 1,0,1
 704.961914062 1340 l 1,2,3
 818 657.909179688 818 657.909179688 1131.26660156 68.0693359375 c 1,4,-1
 950 3.9091796875 l 1,5,6
 697 569.909179688 697 569.909179688 611 938.909179688 c 1,7,8
 509 511.909179688 509 511.909179688 272 3.9091796875 c 1,9,-1
 80.7333984375 68.0693359375 l 1,10,11
 401 672.909179688 401 672.909179688 516.002929688 1340 c 1,0,1
EndSplineSet
EndChar

StartChar: afii57401
Encoding: 1641 1641 68
Width: 1163
VWidth: 2553
GlyphClass: 2
Flags: W
LayerCount: 2
Fore
SplineSet
481.439453125 587.34375 m 0,0,1
 287 587 287 587 195.174804688 694.642578125 c 0,2,3
 110 795 110 795 110.05859375 939.556640625 c 0,4,5
 110 1112 110 1112 202.036132812 1212.18066406 c 0,6,7
 318 1339 318 1339 515 1339 c 0,8,9
 842 1339 842 1339 874.966796875 977.190429688 c 0,10,11
 887 845 887 845 895.015625 730.543945312 c 0,12,13
 921 337 921 337 942.25390625 3.9091796875 c 1,14,-1
 762.578125 3.9091796875 l 1,15,16
 748 309 748 309 730.4296875 648.017578125 c 1,17,18
 629 587 629 587 481.439453125 587.34375 c 0,0,1
470.797851562 746.668945312 m 0,19,20
 618 738 618 738 708.049804688 836.3828125 c 1,21,22
 708 916 708 916 693.129882812 1017.28808594 c 0,23,24
 670 1174 670 1174 524.451171875 1173.76757812 c 0,25,26
 380 1174 380 1174 319.197265625 1086.29296875 c 0,27,28
 265 1009 265 1009 278.166992188 921.240234375 c 0,29,30
 302 757 302 757 470.797851562 746.668945312 c 0,19,20
EndSplineSet
EndChar

StartChar: afii57381
Encoding: 1642 1642 69
Width: 1291
VWidth: 2553
GlyphClass: 2
Flags: W
LayerCount: 2
Fore
SplineSet
795.73828125 178.34765625 m 0,0,1
 795.331054688 240.686523438 795.331054688 240.686523438 841.432617188 285.006835938 c 0,2,3
 887.331054688 329.686523438 887.331054688 329.686523438 950.860351562 329.545898438 c 0,4,5
 1014.33105469 329.686523438 1014.33105469 329.686523438 1060.28808594 285.006835938 c 0,6,7
 1106.33105469 240.686523438 1106.33105469 240.686523438 1105.98339844 178.34765625 c 0,8,9
 1106.33105469 116.686523438 1106.33105469 116.686523438 1060.28808594 71.6884765625 c 128,-1,10
 1014.33105469 26.6865234375 1014.33105469 26.6865234375 950.860351562 27.1494140625 c 0,11,12
 887.331054688 26.6865234375 887.331054688 26.6865234375 841.432617188 71.6884765625 c 0,13,14
 795.331054688 116.686523438 795.331054688 116.686523438 795.73828125 178.34765625 c 0,0,1
185.407226562 1204.66113281 m 4,15,16
 185 1267 185 1267 231.1015625 1311.3203125 c 4,17,18
 277 1356 277 1356 340.529296875 1355.859375 c 4,19,20
 404 1356 404 1356 449.95703125 1311.3203125 c 4,21,22
 496 1267 496 1267 495.65234375 1204.66113281 c 4,23,24
 496 1143 496 1143 449.95703125 1098.00195312 c 132,-1,25
 404 1053 404 1053 340.529296875 1053.46289062 c 4,26,27
 277 1053 277 1053 231.1015625 1098.00195312 c 4,28,29
 185 1143 185 1143 185.407226562 1204.66113281 c 4,15,16
890.688476562 1360.36816406 m 1,30,-1
 1046 1282 l 1,31,-1
 357.364257812 8.9091796875 l 1,32,-1
 204 90 l 1,33,-1
 890.688476562 1360.36816406 l 1,30,-1
EndSplineSet
EndChar

StartChar: uni066B
Encoding: 1643 1643 70
Width: 667
VWidth: 2553
GlyphClass: 2
Flags: W
LayerCount: 2
Fore
SplineSet
55 -211 m 1,0,-1
 454.059570312 575.4765625 l 5,1,-1
 577 517 l 1,2,3
 181.846679688 -271.249023438 l 1,4,-1
 55 -211 l 1,0,-1
EndSplineSet
EndChar

StartChar: uni066C
Encoding: 1644 1644 71
Width: 592
VWidth: 2304
GlyphClass: 2
Flags: W
LayerCount: 2
Fore
SplineSet
299 262 m 0,0,1
 431 259 431 259 441.162109375 146.842773438 c 0,2,3
 450 48 450 48 420 -53 c 0,4,5
 364 -243 364 -243 170 -331 c 1,6,-1
 120 -285 l 1,7,8
 310 -179 310 -179 328.817382812 -0.3359375 c 1,9,10
 298 -1 298 -1 287.9140625 -0.0322265625 c 0,11,12
 153 7 153 7 155.07421875 124 c 4,13,14
 157 265 157 265 299 262 c 0,0,1
EndSplineSet
EndChar

StartChar: afii63167
Encoding: 1645 1645 72
Width: 1411
VWidth: 2553
GlyphClass: 2
Flags: W
LayerCount: 2
Fore
SplineSet
192.791992188 910.817382812 m 1,0,-1
 583.680664062 910.817382812 l 1,1,-1
 705.771484375 1282.53027344 l 1,2,-1
 827.856445312 910.817382812 l 1,3,-1
 1218.74707031 910.817382812 l 1,4,-1
 902.943359375 679.956054688 l 1,5,-1
 1023.75 308.823242188 l 1,6,-1
 705.771484375 538.59765625 l 1,7,-1
 387.788085938 308.823242188 l 1,8,-1
 508.595703125 679.956054688 l 1,9,-1
 192.791992188 910.817382812 l 1,0,-1
EndSplineSet
EndChar

StartChar: uni066E
Encoding: 1646 1646 73
Width: 1931
VWidth: 2553
GlyphClass: 2
Flags: W
AnchorPoint: "Anchor-10" 869.751 1229.53 basechar 0
AnchorPoint: "Anchor-7" 869.751 -214.707 basechar 0
LayerCount: 2
Fore
SplineSet
1463.10742188 188 m 2,0,1
 1660.68261719 188 1660.68261719 188 1660.68261719 451.366210938 c 2,2,-1
 1660.68261719 653.75 l 1,3,-1
 1839.44042969 653.75 l 1,4,-1
 1839.44042969 447.842773438 l 2,5,6
 1839 0 1839 0 1456.4609375 0 c 6,7,-1
 472.935546875 0 l 2,8,9
 91.1514521872 1.94711446966e-09 91.1514521872 1.94711446966e-09 91.1494140625 441.977539062 c 2,10,-1
 91.1484375 653.75 l 1,11,-1
 269.904296875 653.75 l 1,12,-1
 269.904296875 452.541015625 l 2,13,14
 270 188 270 188 467.470703125 188 c 2,15,-1
 1463.10742188 188 l 2,0,1
EndSplineSet
Substitution2: "'init' Initial Forms in Arabic lookup 13 subtable" uni066E.init
Substitution2: "'medi' Medial Forms in Arabic lookup 11 subtable" uni066E.medi
Substitution2: "'fina' Terminal Forms in Arabic lookup 9 subtable" uni066E.fina
EndChar

StartChar: uni066F
Encoding: 1647 1647 74
Width: 1443
VWidth: 2553
GlyphClass: 2
Flags: W
AnchorPoint: "Anchor-10" 343.676 1161.52 basechar 0
AnchorPoint: "Anchor-7" 415.271 -713.467 basechar 0
LayerCount: 2
Fore
SplineSet
1343.15039062 -14.462890625 m 6,0,1
 1343.35546875 -485 1343.35546875 -485 759.385742188 -485 c 6,2,-1
 701.184570312 -485 l 6,3,4
 91.302734375 -485 91.302734375 -485 91.12109375 73.9189453125 c 6,5,-1
 91 446 l 5,6,-1
 269.877929688 446.674804688 l 5,7,-1
 269.877929688 75.0927734375 l 6,8,9
 270 -295.711914062 270 -295.711914062 703.356445312 -295.711914062 c 6,10,-1
 730.865234375 -295.711914062 l 5,11,-1
 757.770507812 -295.125 l 6,12,13
 1170.09765625 -285.998046875 1170.09765625 -285.998046875 1168.56347656 -11.064453125 c 6,14,-1
 1168.20605469 52.98046875 l 5,15,-1
 987.346679688 52.98046875 l 6,16,17
 678 53 678 53 679.383789062 413.602539062 c 4,18,19
 681 777 681 777 1015.87792969 778.463867188 c 4,20,21
 1342.8046875 779 1342.8046875 779 1342.96679688 406.827148438 c 6,22,-1
 1343.15039062 -14.462890625 l 6,0,1
1011.91992188 603.248046875 m 4,23,24
 838 603 838 603 838.166992188 415.099609375 c 4,25,26
 838 238.927734375 838 238.927734375 986.307617188 238.874023438 c 6,27,-1
 1178.01757812 238.8046875 l 5,28,-1
 1177.56640625 400.874023438 l 6,29,30
 1177 604 1177 604 1011.91992188 603.248046875 c 4,23,24
EndSplineSet
Substitution2: "'init' Initial Forms in Arabic lookup 13 subtable" uni066F.init
Substitution2: "'medi' Medial Forms in Arabic lookup 11 subtable" uni066F.medi
Substitution2: "'fina' Terminal Forms in Arabic lookup 9 subtable" uni066F.fina
EndChar

StartChar: uni0670
Encoding: 1648 1648 75
Width: 11
VWidth: 2553
GlyphClass: 4
Flags: W
AnchorPoint: "Anchor-10" 648 1490.29 mark 0
AnchorPoint: "Anchor-9" 648 1490.29 mark 0
AnchorPoint: "Anchor-1" 648 2086.6 basemark 0
AnchorPoint: "Anchor-1" 648 1490.29 mark 0
LayerCount: 2
Fore
SplineSet
604.571289062 1557.38378906 m 1,0,-1
 604.571289062 2019.51757812 l 5,1,-1
 691.427734375 2019.51757812 l 5,2,-1
 691.427734375 1557.38378906 l 1,3,-1
 604.571289062 1557.38378906 l 1,0,-1
EndSplineSet
EndChar

StartChar: uni0674
Encoding: 1652 1652 76
Width: 759
VWidth: 2553
GlyphClass: 2
Flags: W
LayerCount: 2
Fore
SplineSet
161.505859375 1776.52950978 m 1,0,-1
 270.56497862 1801.69567833 l 1,1,2
 191 1849 191 1849 172.381282354 1919.10907815 c 0,3,4
 164 1950 164 1950 164.018554688 1987.76855469 c 0,5,6
 164 2100 164 2100 264.772460938 2157.04492188 c 0,7,8
 351 2206 351 2206 475.813643022 2180.37203311 c 0,9,10
 514 2172 514 2172 559.309570312 2148.38523232 c 1,11,-1
 559.309570312 2033.42906726 l 1,12,13
 485 2076 485 2076 401.819890011 2070.87784069 c 4,14,15
 282.23140512 2061.64362202 282.23140512 2061.64362202 275.441453037 1984.07374436 c 0,16,17
 266.84282758 1888.24842974 266.84282758 1888.24842974 395.855011189 1851.35484206 c 0,18,19
 433 1841 433 1841 585.682617188 1873.77048489 c 1,20,-1
 585.682617188 1752.89747923 l 1,21,-1
 161.505859375 1657.66927849 l 1,22,-1
 161.505859375 1776.52950978 l 1,0,-1
EndSplineSet
EndChar

StartChar: uni06A1
Encoding: 1697 1697 80
Width: 1931
VWidth: 2553
GlyphClass: 2
Flags: W
AnchorPoint: "Anchor-10" 494.245 1207.49 basechar 0
AnchorPoint: "Anchor-7" 511.19 -185.02 basechar 0
LayerCount: 2
Fore
SplineSet
1836.39257812 363.82421875 m 2,0,1
 1836.92478778 5.1045390137e-11 1836.92478778 5.1045390137e-11 1318.48925781 0 c 2,2,-1
 472.358398438 0 l 6,3,4
 90.5577017451 1.87901605386e-09 90.5577017451 1.87901605386e-09 90.5556640625 441.885742188 c 2,5,-1
 90.5546875 653.66015625 l 1,6,-1
 269.311523438 653.66015625 l 1,7,-1
 269.311523438 452.4453125 l 2,8,9
 269 188 269 188 466.877929688 188 c 2,10,-1
 1315.04296875 188 l 2,11,12
 1643.79277288 188 1643.79277288 188 1648.82714844 338.044921875 c 2,13,-1
 1649.92871094 370.875976562 l 1,14,15
 1579 366 1579 366 1509 366.33984375 c 0,16,17
 1307 367 1307 367 1222.85546875 459.404296875 c 0,18,19
 1159 530 1159 530 1158.96191406 688.303710938 c 0,20,21
 1159 1034 1159 1034 1493.33691406 1034.38964844 c 0,22,23
 1835.41223169 1033.99952987 1835.41223169 1033.99952987 1835.86328125 725.657226562 c 2,24,-1
 1836.39257812 363.82421875 l 2,0,1
1660 708.5 m 2,25,26
 1659.81889839 859.000440436 1659.81889839 859.000440436 1494.96289062 859.401367188 c 0,27,28
 1320 859 1320 859 1319.83300781 698.990234375 c 0,29,30
 1320 553 1320 553 1504 553 c 0,31,32
 1595 553 1595 553 1660.17675781 561.609375 c 1,33,-1
 1660 708.5 l 2,25,26
EndSplineSet
Substitution2: "'init' Initial Forms in Arabic lookup 13 subtable" uni06A1.init
Substitution2: "'medi' Medial Forms in Arabic lookup 11 subtable" uni06A1.medi
Substitution2: "'fina' Terminal Forms in Arabic lookup 9 subtable" uni06A1.fina
EndChar

StartChar: uni06A9
Encoding: 1705 1705 81
Width: 1835
VWidth: 2553
GlyphClass: 2
Flags: W
AnchorPoint: "Anchor-10" 459.222 1405.6 basechar 0
AnchorPoint: "Anchor-7" 402.269 -315.044 basechar 0
LayerCount: 2
Fore
SplineSet
269.814453125 451.571289062 m 2,0,1
 269.814453125 188 269.814453125 188 467.379882812 188 c 2,2,-1
 1290.24316406 188 l 2,3,4
 1496 188 1496 188 1498.03222656 322.884765625 c 0,5,6
 1499.00427473 378.243448092 1499.00427473 378.243448092 1390.97070312 501.4140625 c 2,7,-1
 1120.18164062 810.14453125 l 2,8,9
 1065 873 1065 873 1039.05890712 907.905326741 c 0,10,11
 1015 941 1015 941 1018.18505859 990.559570312 c 0,12,13
 1027.9917536 1121.8895653 1027.9917536 1121.8895653 1136.60058594 1159.90332031 c 2,14,-1
 1783.82421875 1386.43554688 l 5,15,-1
 1783.82421875 1202.04296875 l 5,16,-1
 1195 1000 l 1,17,-1
 1527.74902344 624.4921875 l 2,18,19
 1678 455 1678 455 1659.39968583 286.843280138 c 0,20,21
 1642 136 1642 136 1518.88769531 53.8486328125 c 0,22,23
 1438.02454144 0.0163377509967 1438.02454144 0.0163377509967 1298.75 0 c 2,24,-1
 474.583984375 -0.0966796875 l 2,25,26
 91.0596366593 -1.5030723489e-05 91.0596366593 -1.5030723489e-05 91.0576171875 441.977539062 c 2,27,-1
 91.056640625 655.706054688 l 1,28,-1
 269.814453125 654.703125 l 1,29,-1
 269.814453125 451.571289062 l 2,0,1
EndSplineSet
Substitution2: "'init' Initial Forms in Arabic lookup 13 subtable" uniFB90
Substitution2: "'medi' Medial Forms in Arabic lookup 11 subtable" uniFB91
Substitution2: "'fina' Terminal Forms in Arabic lookup 9 subtable" uniFB8F
EndChar

StartChar: afii57514
Encoding: 1722 1722 83
Width: 1422
VWidth: 2553
GlyphClass: 2
Flags: W
AnchorPoint: "Anchor-10" 587.158 925.159 basechar 0
AnchorPoint: "Anchor-7" 691.132 -706.307 basechar 0
LayerCount: 2
Fore
SplineSet
91 446 m 5,0,-1
 269.877929688 446.033203125 l 5,1,-1
 269.877929688 104.58984375 l 2,2,3
 270.000054158 -263.163085938 270.000054158 -263.163085938 693.842773438 -263.163085938 c 2,4,-1
 715.5234375 -263.163085938 l 1,5,-1
 737.290039062 -262.572265625 l 2,6,7
 1149.05513247 -250.998450347 1149.05513247 -250.998450347 1148.84277344 88.697265625 c 2,8,-1
 1148.49511719 644.818359375 l 1,9,-1
 1329.94726562 644.911132812 l 1,10,-1
 1329.94726562 89.310546875 l 2,11,12
 1329.99999419 -436.941998745 1329.99999419 -436.941998745 738.567382812 -451.874023438 c 2,13,-1
 715.359375 -452.459960938 l 1,14,-1
 691.671875 -452.459960938 l 2,15,16
 91.3174185948 -452.000243061 91.3174185948 -452.000243061 91.12109375 103.416992188 c 2,17,-1
 91 446 l 5,0,-1
EndSplineSet
Substitution2: "'init' Initial Forms in Arabic lookup 13 subtable" uni06BA.init
Substitution2: "'medi' Medial Forms in Arabic lookup 11 subtable" uni06BA.medi
Substitution2: "'fina' Terminal Forms in Arabic lookup 9 subtable" uniFB9F
EndChar

StartChar: uni06F4
Encoding: 1780 1780 90
Width: 1096
VWidth: 2553
GlyphClass: 2
Flags: W
LayerCount: 2
Fore
SplineSet
954.85546875 1151.29589844 m 1,0,1
 835 1181 835 1181 764.009765625 1181.4921875 c 0,2,3
 638 1181 638 1181 569.79296875 1111.39746094 c 0,4,5
 497 1038 497 1038 497 918 c 0,6,7
 497 781 497 781 732.732421875 775.7265625 c 0,8,9
 860 773 860 773 1003.36523438 805.034179688 c 1,10,-1
 1005.85546875 644.295898438 l 5,11,12
 582 542 582 542 394 728 c 5,13,14
 430 568 430 568 433.03515625 3.9091796875 c 1,15,-1
 254.0546875 3.9091796875 l 1,16,17
 251 847 251 847 113.041015625 1281.29589844 c 1,18,-1
 285.041015625 1330.29589844 l 1,19,20
 336 1141 336 1141 359 937 c 1,21,22
 374 1333 374 1333 729 1341 c 0,23,24
 854 1344 854 1344 954.85546875 1299.70703125 c 1,25,-1
 954.85546875 1151.29589844 l 1,0,1
EndSplineSet
EndChar

StartChar: uni06F5
Encoding: 1781 1781 91
Width: 1205
VWidth: 2553
GlyphClass: 2
Flags: W
LayerCount: 2
Fore
SplineSet
394.6796875 191.653320312 m 0,0,1
 517 191 517 191 538.43359375 418.513671875 c 5,2,-1
 671.314453125 418.513671875 l 1,3,4
 681 190 681 190 832.109375 187.567382812 c 0,5,6
 962 185 962 185 961.333984375 346.813476562 c 0,7,8
 961 420 961 420 934.516601562 496.103515625 c 0,9,10
 858 714 858 714 600.676757812 1003.47851562 c 1,11,12
 359 725 359 725 280.034179688 490.849609375 c 0,13,14
 250 402 250 402 251.311672222 344.941376906 c 0,15,16
 255 192 255 192 394.6796875 191.653320312 c 0,0,1
360.313476562 -0.4072265625 m 0,17,18
 80 -0 80 -0 80.0682309978 308.868410491 c 0,19,20
 80 650 80 650 488.501953125 1122.52148438 c 1,21,22
 463 1150 463 1150 437.76953125 1176.52148438 c 1,23,-1
 559.76953125 1317.52148438 l 1,24,25
 584 1287 584 1287 652.522460938 1213.90722656 c 0,26,27
 1125 703 1125 703 1124.93261719 355.603515625 c 0,28,29
 1125 324 1125 324 1121.56738281 292.87890625 c 0,30,31
 1091 0 1091 0 834.362304688 0.021484375 c 0,32,33
 660.779726059 -2.72980216778e-05 660.779726059 -2.72980216778e-05 604.713867188 155.643554688 c 2,34,-1
 599.650390625 169.700195312 l 1,35,-1
 594.579101562 155.646484375 l 2,36,37
 538 0 538 0 360.313476562 -0.4072265625 c 0,17,18
EndSplineSet
EndChar

StartChar: uni06F6
Encoding: 1782 1782 92
Width: 950
VWidth: 2553
GlyphClass: 2
Flags: W
LayerCount: 2
Fore
SplineSet
265.875 971.692382812 m 0,0,1
 267 809 267 809 460.893554688 781.696289062 c 0,2,3
 550 769 550 769 609.990234375 811.506835938 c 0,4,5
 690 868 690 868 770 924.716796875 c 1,6,-1
 860 766.716796875 l 1,7,8
 631 636 631 636 328 0 c 1,9,-1
 174 75 l 1,10,11
 265 288 265 288 483 622.716796875 c 1,12,13
 103 649 103 649 102.846679688 966.373046875 c 0,14,15
 103 1125 103 1125 201 1232.71679688 c 0,16,17
 295 1337 295 1337 466 1344 c 0,18,19
 589 1349 589 1349 676.52734375 1295.29003906 c 1,20,-1
 675.52734375 1136.71679688 l 1,21,22
 588 1182 588 1182 500 1182.30664062 c 0,23,24
 434 1183 434 1183 386 1161 c 0,25,26
 265 1106 265 1106 265.875 971.692382812 c 0,0,1
EndSplineSet
EndChar

StartChar: uniFB8F
Encoding: 64399 64399 107
Width: 2018
VWidth: 2553
GlyphClass: 2
Flags: W
AnchorPoint: "Anchor-7" 443.692 -290.794 basechar 0
AnchorPoint: "Anchor-10" 475.382 1372.92 basechar 0
LayerCount: 2
Fore
SplineSet
2023.73828125 0 m 2,0,-1
 2010.12792969 0 l 2,1,2
 1808 0 1808 0 1650.29882812 220.591796875 c 1,3,4
 1576.01076341 0.0319563453969 1576.01076341 0.0319563453969 1302.18652344 0 c 2,5,-1
 473.767578125 -0.0966796875 l 2,6,7
 90.2295495594 -5.78281776598e-05 90.2295495594 -5.78281776598e-05 90.2275390625 441.977539062 c 2,8,-1
 90.2265625 656.66015625 l 1,9,-1
 268.984375 656.66015625 l 1,10,-1
 268.984375 452.541015625 l 2,11,12
 268.999989887 189.170573837 268.999989887 189.170573837 466.549804688 189.200195312 c 2,13,-1
 1293.6796875 189.32421875 l 2,14,15
 1501 189 1501 189 1501.46875 322.875976562 c 0,16,17
 1501.99761105 378.747618652 1501.99761105 378.747618652 1394.40625 501.4140625 c 2,18,-1
 1123.6171875 810.14453125 l 2,19,20
 1072 869 1072 869 1043.90625 906.205078125 c 0,21,22
 1018 941 1018 941 1021.67871094 990.8828125 c 0,23,24
 1032.01796761 1123.22999356 1032.01796761 1123.22999356 1140.0390625 1160.875 c 2,25,-1
 1787.26074219 1386.4296875 l 5,26,-1
 1787.26074219 1202.04296875 l 5,27,-1
 1199.98144531 997.08203125 l 1,28,-1
 1788.77246094 330.063476562 l 2,29,30
 1914 188 1914 188 2003.13378906 188 c 2,31,-1
 2023.73828125 188 l 2,32,33
 2098.73828125 188 2098.73828125 188 2098.73828125 99 c 2,34,-1
 2098.73828125 88 l 2,35,36
 2099 0 2099 0 2023.73828125 0 c 2,0,-1
EndSplineSet
EndChar

StartChar: uniFB9F
Encoding: 64415 64415 115
Width: 1610
VWidth: 2553
GlyphClass: 2
Flags: W
AnchorPoint: "Anchor-10" 322.402 799.573 basechar 0
AnchorPoint: "Anchor-7" 282.474 -702.176 basechar 0
LayerCount: 2
Fore
SplineSet
1614.9765625 0 m 2,0,-1
 1537.31738281 0 l 2,1,2
 1386 0 1386 0 1319.57128906 90.068359375 c 5,3,-1
 1319.57128906 43.86328125 l 6,4,5
 1319.99962724 -436.581890274 1319.99962724 -436.581890274 738.819335938 -450.350585938 c 6,6,-1
 713.921875 -450.940429688 l 5,7,-1
 683.1015625 -450.940429688 l 6,8,9
 91.316934928 -450.999968114 91.316934928 -450.999968114 91.12109375 103.276367188 c 6,10,-1
 91 446 l 5,11,-1
 269.877929688 446.033203125 l 5,12,-1
 269.877929688 104.44921875 l 6,13,14
 269.999885964 -261.657669043 269.999885964 -261.657669043 685.272460938 -261.643554688 c 6,15,-1
 714.004882812 -261.642578125 l 5,16,-1
 737.385742188 -261.053710938 l 6,17,18
 1146.33676485 -250.991714101 1146.33676485 -250.991714101 1146.16210938 48.5576171875 c 6,19,-1
 1145.81445312 644.818359375 l 5,20,-1
 1332.26757812 644.911132812 l 5,21,-1
 1332.26757812 419.294921875 l 6,22,23
 1332 188 1332 188 1556.40722656 188 c 2,24,-1
 1614.9765625 188 l 2,25,26
 1689.9765625 188 1689.9765625 188 1689.9765625 99 c 2,27,-1
 1689.9765625 88 l 2,28,29
 1690 0 1690 0 1614.9765625 0 c 2,0,-1
EndSplineSet
EndChar

StartChar: uniFBE8
Encoding: 64488 64488 118
Width: 678
VWidth: 2553
GlyphClass: 2
Flags: W
AnchorPoint: "Anchor-10" 379.938 1220.35 basechar 0
AnchorPoint: "Anchor-7" 417.497 -142.32 basechar 0
LayerCount: 2
Fore
SplineSet
-5.0234375 0 m 6,0,1
 -80 0 -80 0 -80.0234375 88 c 6,2,-1
 -80.0234375 99 l 6,3,4
 -80.0234375 188 -80.0234375 188 -5.0234375 188 c 6,5,-1
 227.59765625 188.23046875 l 2,6,7
 407.999180941 188.409201096 407.999180941 188.409201096 407.56640625 404.623046875 c 2,8,-1
 407.56640625 690.689453125 l 1,9,-1
 586.322265625 690.689453125 l 1,10,-1
 586.322265625 410.48828125 l 2,11,12
 586.322265625 6.23353723926e-05 586.322265625 6.23353723926e-05 242.688476562 -0.06640625 c 2,13,-1
 -5.0234375 0 l 6,0,1
EndSplineSet
EndChar

StartChar: uniFBE9
Encoding: 64489 64489 119
Width: 877
VWidth: 2553
GlyphClass: 2
Flags: W
AnchorPoint: "Anchor-10" 369.939 1126.45 basechar 0
AnchorPoint: "Anchor-7" 348.812 -147.016 basechar 0
LayerCount: 2
Fore
SplineSet
882.2265625 0 m 2,0,-1
 861.33203125 0 l 2,1,2
 625 0 625 0 508.498046875 149.439453125 c 1,3,4
 394 0 394 0 156.1484375 0 c 2,5,-1
 -5.0234375 0 l 2,6,7
 -80.0234375 0 -80.0234375 0 -80.0234375 88 c 2,8,-1
 -80.0234375 99 l 2,9,10
 -80 188 -80 188 -5.0234375 188 c 2,11,-1
 161.162109375 188 l 2,12,13
 412.671875 188 412.671875 188 412.671875 397.358398438 c 2,14,-1
 412.671875 651.372070312 l 1,15,-1
 597.15625 651.372070312 l 1,16,-1
 597.15625 397.380859375 l 2,17,18
 597 188 597 188 860.405273438 188 c 2,19,-1
 882.2265625 188 l 2,20,21
 957.2265625 188 957.2265625 188 957.2265625 99 c 2,22,-1
 957.2265625 88 l 2,23,24
 957 0 957 0 882.2265625 0 c 2,0,-1
EndSplineSet
EndChar

StartChar: uniFE73
Encoding: 65139 65139 127
Width: 683
VWidth: 2553
GlyphClass: 2
Flags: W
AnchorPoint: "Anchor-10" 252.404 1490.29 basechar 0
AnchorPoint: "Anchor-7" 252.404 -142.32 basechar 0
LayerCount: 2
Fore
SplineSet
342.298828125 400.2109375 m 2,0,1
 342.298828125 320.515620792 342.298828125 320.515620792 408.206542969 254.607908052 c 128,-1,2
 474.114257812 188.700195312 474.114257812 188.700195312 609.067382812 188.700195312 c 2,3,-1
 677.61328125 188.700195312 l 1,4,-1
 677.61328125 8.9091796875 l 1,5,-1
 539.997070312 8.9091796875 l 2,6,7
 372.288085938 8.9091796875 372.288085938 8.9091796875 267.398925781 113.798339844 c 128,-1,8
 162.509765625 218.6875 162.509765625 218.6875 162.509765625 385.141601562 c 2,9,-1
 162.509765625 413.498046875 l 1,10,-1
 342.298828125 413.498046875 l 1,11,-1
 342.298828125 400.2109375 l 2,0,1
EndSplineSet
EndChar

StartChar: uniFE8E
Encoding: 65166 65166 153
Width: 551
VWidth: 2553
GlyphClass: 2
Flags: W
AnchorPoint: "Anchor-10" 250.923 1543.04 basechar 0
AnchorPoint: "Anchor-7" 265.009 -292.554 basechar 0
LayerCount: 2
Fore
SplineSet
556.901367188 0 m 2,0,-1
 531.231445312 0 l 2,1,2
 157.69140625 0 157.69140625 0 157.69140625 417.251953125 c 2,3,-1
 157.69140625 1367.18847656 l 5,4,-1
 336 1367.18847656 l 5,5,-1
 336 426.139648438 l 2,6,7
 336 188 336 188 534.014648438 188 c 2,8,-1
 556.901367188 188 l 2,9,10
 631.901367188 188 631.901367188 188 631.901367188 99 c 2,11,-1
 631.901367188 88 l 2,12,13
 632 0 632 0 556.901367188 0 c 2,0,-1
EndSplineSet
EndChar

StartChar: uniFEA2
Encoding: 65186 65186 173
Width: 1369
VWidth: 2553
GlyphClass: 2
Flags: W
AnchorPoint: "Anchor-10" 677.761 1461.94 basechar 0
AnchorPoint: "Anchor-7" 481.334 -893.653 basechar 0
LayerCount: 2
Fore
SplineSet
1373.9765625 0 m 6,0,-1
 1321.75683594 0 l 2,1,2
 968 0 968 0 934 265 c 1,3,4
 267 162 267 162 265.6875 -197.775390625 c 0,5,6
 264.002201091 -572.510575655 264.002201091 -572.510575655 814.475585938 -572.172851562 c 2,7,-1
 1228.33007812 -571.918945312 l 1,8,-1
 1228.33007812 -755.474609375 l 1,9,-1
 802.448242188 -754.58203125 l 2,10,11
 414 -754 414 -754 252.054809136 -598.833917204 c 0,12,13
 87 -441 87 -441 90.109375 -215.653320312 c 0,14,15
 96 342 96 342 987.4375 454.530273438 c 1,16,17
 986.994427792 475.260712174 986.994427792 475.260712174 952.010742188 491.46875 c 2,18,-1
 734.010742188 592.46875 l 2,19,20
 651 631 651 631 578.987304688 631.418945312 c 0,21,22
 500.523246149 630.997438894 500.523246149 630.997438894 439.010742188 584.46875 c 2,23,-1
 283.010742188 466.46875 l 1,24,-1
 165.3828125 598.612304688 l 1,25,-1
 311.010742188 721.46875 l 2,26,27
 434 825 434 825 570.834960938 825.236328125 c 0,28,29
 667.624338772 825.000913696 667.624338772 825.000913696 771.010742188 773.46875 c 2,30,-1
 1092.01074219 613.46875 l 2,31,32
 1225 547 1225 547 1225.26367188 466.450195312 c 0,33,-1
 1225.18945312 324.193359375 l 1,34,35
 1146 317 1146 317 1088 305.45703125 c 1,36,37
 1089 188 1089 188 1323.16308594 188 c 2,38,-1
 1373.9765625 188 l 6,39,40
 1448.9765625 188 1448.9765625 188 1448.9765625 99 c 6,41,-1
 1448.9765625 88 l 6,42,43
 1449 0 1449 0 1373.9765625 0 c 6,0,-1
EndSplineSet
EndChar

StartChar: uniFEA3
Encoding: 65187 65187 174
Width: 1273
VWidth: 2553
GlyphClass: 2
Flags: W
AnchorPoint: "Anchor-10" 490.912 1239.39 basechar 0
AnchorPoint: "Anchor-7" 425.185 -293.728 basechar 0
LayerCount: 2
Fore
SplineSet
-5.0234375 0 m 2,0,1
 -80 0 -80 0 -80.0234375 88 c 2,2,-1
 -80.0234375 99 l 2,3,4
 -80 188 -80 188 -5.0234375 188 c 2,5,-1
 320 188 l 2,6,7
 535 188 535 188 705 276 c 2,8,-1
 875 362 l 2,9,10
 980.81120944 415.528023599 980.81120944 415.528023599 983 421 c 1,11,-1
 904 463 l 2,12,-1
 663 588 l 2,13,14
 494.542084942 675.717730918 494.542084942 675.717730918 368 580 c 2,15,-1
 212 462 l 1,16,-1
 94.3720703125 594.143554688 l 1,17,-1
 240 717 l 2,18,19
 456.371424105 899.3129592 456.371424105 899.3129592 700 769 c 2,20,-1
 1044 585 l 2,21,22
 1343 425 1343 425 977 219 c 2,23,-1
 815 128 l 2,24,25
 587 0 587 0 322 0 c 2,26,-1
 -5.0234375 0 l 2,0,1
EndSplineSet
EndChar

StartChar: uniFEA4
Encoding: 65188 65188 175
Width: 1319
VWidth: 2553
GlyphClass: 2
Flags: W
AnchorPoint: "Anchor-10" 454.527 1219.29 basechar 0
AnchorPoint: "Anchor-7" 494.433 -291.487 basechar 0
LayerCount: 2
Fore
SplineSet
1323.9765625 0 m 6,0,-1
 1236.07324219 0 l 2,1,2
 1031 0 1031 0 921 185.904296875 c 1,3,-1
 814 127 l 2,4,5
 583 0 583 0 322 0 c 2,6,-1
 -5.0234375 0 l 2,7,8
 -80.0234375 0 -80.0234375 0 -80.0234375 88 c 2,9,-1
 -80.0234375 99 l 2,10,11
 -80 188 -80 188 -5.0234375 188 c 2,12,-1
 320 188 l 2,13,14
 534 188 534 188 704 275 c 2,15,-1
 874 362 l 1,16,-1
 985 420 l 9,17,-1
 903 463 l 2,18,-1
 663 589 l 2,19,20
 589 628 589 628 507.9765625 627.951171875 c 0,21,22
 430.135481063 627.999915163 430.135481063 627.999915163 368 581 c 2,23,-1
 212 463 l 1,24,-1
 94.3720703125 595.143554688 l 1,25,-1
 240 718 l 2,26,27
 363 822 363 822 499.82421875 821.767578125 c 0,28,29
 603.590881506 821.999087234 603.590881506 821.999087234 700 770 c 2,30,-1
 1043 585 l 2,31,32
 1176 513 1176 513 1176.25292969 437.981445312 c 0,33,34
 1176 357 1176 357 1042.15039062 262 c 1,35,36
 1114 188 1114 188 1233.06835938 188 c 2,37,-1
 1323.9765625 188 l 6,38,39
 1398.9765625 188 1398.9765625 188 1398.9765625 99 c 6,40,-1
 1398.9765625 88 l 6,41,42
 1399 0 1399 0 1323.9765625 0 c 6,0,-1
EndSplineSet
EndChar

StartChar: uniFEAA
Encoding: 65194 65194 181
Width: 1194
VWidth: 2553
GlyphClass: 2
Flags: W
AnchorPoint: "Anchor-10" 403.389 1316.77 basechar 0
AnchorPoint: "Anchor-7" 334.739 -286.099 basechar 0
LayerCount: 2
Fore
SplineSet
1198.9765625 0 m 6,0,-1
 1183.35644531 0 l 2,1,2
 996 0 996 0 859 172 c 1,3,4
 794 0 794 0 472.64453125 0 c 2,5,-1
 91.8994140625 0 l 1,6,-1
 91.8994140625 188 l 1,7,-1
 459.596679688 188 l 2,8,9
 721 188 721 188 716.510603493 307 c 0,10,11
 714.011787188 378.661962737 714.011787188 378.661962737 614.106445312 494.20703125 c 2,12,-1
 339.762695312 811.498046875 l 1,13,-1
 465.588867188 949.270507812 l 1,14,-1
 1003 302 l 2,15,16
 1098 188 1098 188 1190.41015625 188 c 2,17,-1
 1198.9765625 188 l 6,18,19
 1273.9765625 188 1273.9765625 188 1273.9765625 99 c 6,20,-1
 1273.9765625 88 l 6,21,22
 1274 0 1274 0 1198.9765625 0 c 6,0,-1
EndSplineSet
EndChar

StartChar: uniFEAE
Encoding: 65198 65198 185
Width: 883
VWidth: 2553
GlyphClass: 2
Flags: W
AnchorPoint: "Anchor-10" 390.643 948.634 basechar 0
AnchorPoint: "Anchor-7" 274.358 -757.397 basechar 0
LayerCount: 2
Fore
SplineSet
888.022460938 0 m 6,0,-1
 871.923828125 0 l 2,1,2
 740 0 740 0 667.3828125 78.0068359375 c 1,3,-1
 667.383789062 -17.318359375 l 2,4,5
 667.00025569 -492.683088686 667.00025569 -492.683088686 125.353515625 -492.412109375 c 2,6,-1
 21.8974609375 -492.360351562 l 1,7,-1
 21.900390625 -304.196289062 l 1,8,-1
 120.57421875 -304.265625 l 2,9,10
 481.584960938 -303.973945011 481.584960938 -303.973945011 481.584960938 -18.5009765625 c 2,11,-1
 481.584960938 608.626953125 l 1,12,-1
 666.209960938 609.68359375 l 1,13,-1
 666.209960938 345.16015625 l 1,14,15
 672 188 672 188 871.923828125 188 c 2,16,-1
 888.022460938 188 l 6,17,18
 963.022460938 188 963.022460938 188 963.022460938 99 c 6,19,-1
 963.022460938 88 l 6,20,21
 963 0 963 0 888.022460938 0 c 6,0,-1
EndSplineSet
PairPos2: "'kern' Horizontal Kerning lookup 15-1" uniFEFB dx=-100 dy=0 dh=-100 dv=0 dx=0 dy=0 dh=0 dv=0
PairPos2: "'kern' Horizontal Kerning lookup 15-1" uniFEDF dx=-100 dy=0 dh=-100 dv=0 dx=0 dy=0 dh=0 dv=0
PairPos2: "'kern' Horizontal Kerning lookup 15-1" uni062F dx=-100 dy=0 dh=-100 dv=0 dx=0 dy=0 dh=0 dv=0
PairPos2: "'kern' Horizontal Kerning lookup 15-2" uniFB90 dx=-142 dy=0 dh=-142 dv=0 dx=0 dy=0 dh=0 dv=0
PairPos2: "'kern' Horizontal Kerning lookup 15-2" uniFB8E dx=-142 dy=0 dh=-142 dv=0 dx=0 dy=0 dh=0 dv=0
PairPos2: "'kern' Horizontal Kerning lookup 15-2" uni06A9 dx=-142 dy=0 dh=-142 dv=0 dx=0 dy=0 dh=0 dv=0
PairPos2: "'kern' Horizontal Kerning lookup 15-2" uniFEEB dx=-100 dy=0 dh=-100 dv=0 dx=0 dy=0 dh=0 dv=0
PairPos2: "'kern' Horizontal Kerning lookup 15-2" uni0647 dx=-100 dy=0 dh=-100 dv=0 dx=0 dy=0 dh=0 dv=0
PairPos2: "'kern' Horizontal Kerning lookup 15-2" uniFEE7 dx=-100 dy=0 dh=-100 dv=0 dx=0 dy=0 dh=0 dv=0
PairPos2: "'kern' Horizontal Kerning lookup 15-2" uniFEE3 dx=-100 dy=0 dh=-100 dv=0 dx=0 dy=0 dh=0 dv=0
PairPos2: "'kern' Horizontal Kerning lookup 15-2" uni0645 dx=-100 dy=0 dh=-100 dv=0 dx=0 dy=0 dh=0 dv=0
PairPos2: "'kern' Horizontal Kerning lookup 15-2" uniFEDB dx=-142 dy=0 dh=-142 dv=0 dx=0 dy=0 dh=0 dv=0
PairPos2: "'kern' Horizontal Kerning lookup 15-2" uni0643 dx=-100 dy=0 dh=-100 dv=0 dx=0 dy=0 dh=0 dv=0
PairPos2: "'kern' Horizontal Kerning lookup 15-2" uniFED7 dx=-100 dy=0 dh=-100 dv=0 dx=0 dy=0 dh=0 dv=0
PairPos2: "'kern' Horizontal Kerning lookup 15-2" uniFED3 dx=-100 dy=0 dh=-100 dv=0 dx=0 dy=0 dh=0 dv=0
PairPos2: "'kern' Horizontal Kerning lookup 15-2" uni0641 dx=-100 dy=0 dh=-100 dv=0 dx=0 dy=0 dh=0 dv=0
PairPos2: "'kern' Horizontal Kerning lookup 15-2" uniFECF dx=-100 dy=0 dh=-100 dv=0 dx=0 dy=0 dh=0 dv=0
PairPos2: "'kern' Horizontal Kerning lookup 15-2" uniFECB dx=-100 dy=0 dh=-100 dv=0 dx=0 dy=0 dh=0 dv=0
PairPos2: "'kern' Horizontal Kerning lookup 15-2" uniFEC7 dx=-100 dy=0 dh=-100 dv=0 dx=0 dy=0 dh=0 dv=0
PairPos2: "'kern' Horizontal Kerning lookup 15-2" uni0638 dx=-100 dy=0 dh=-100 dv=0 dx=0 dy=0 dh=0 dv=0
PairPos2: "'kern' Horizontal Kerning lookup 15-2" uniFEC3 dx=-100 dy=0 dh=-100 dv=0 dx=0 dy=0 dh=0 dv=0
PairPos2: "'kern' Horizontal Kerning lookup 15-2" uni0637 dx=-100 dy=0 dh=-100 dv=0 dx=0 dy=0 dh=0 dv=0
PairPos2: "'kern' Horizontal Kerning lookup 15-2" uniFEBF dx=-100 dy=0 dh=-100 dv=0 dx=0 dy=0 dh=0 dv=0
PairPos2: "'kern' Horizontal Kerning lookup 15-2" uni0636 dx=-100 dy=0 dh=-100 dv=0 dx=0 dy=0 dh=0 dv=0
PairPos2: "'kern' Horizontal Kerning lookup 15-2" uniFEBB dx=-100 dy=0 dh=-100 dv=0 dx=0 dy=0 dh=0 dv=0
PairPos2: "'kern' Horizontal Kerning lookup 15-2" uni0635 dx=-100 dy=0 dh=-100 dv=0 dx=0 dy=0 dh=0 dv=0
PairPos2: "'kern' Horizontal Kerning lookup 15-2" uniFEB7 dx=-100 dy=0 dh=-100 dv=0 dx=0 dy=0 dh=0 dv=0
PairPos2: "'kern' Horizontal Kerning lookup 15-2" uni0634 dx=-100 dy=0 dh=-100 dv=0 dx=0 dy=0 dh=0 dv=0
PairPos2: "'kern' Horizontal Kerning lookup 15-2" uniFEB3 dx=-100 dy=0 dh=-100 dv=0 dx=0 dy=0 dh=0 dv=0
PairPos2: "'kern' Horizontal Kerning lookup 15-2" uni0633 dx=-100 dy=0 dh=-100 dv=0 dx=0 dy=0 dh=0 dv=0
PairPos2: "'kern' Horizontal Kerning lookup 15-2" uniFEA7 dx=-100 dy=0 dh=-100 dv=0 dx=0 dy=0 dh=0 dv=0
PairPos2: "'kern' Horizontal Kerning lookup 15-2" uniFEA3 dx=-100 dy=0 dh=-100 dv=0 dx=0 dy=0 dh=0 dv=0
PairPos2: "'kern' Horizontal Kerning lookup 15-2" uniFE9F dx=-100 dy=0 dh=-100 dv=0 dx=0 dy=0 dh=0 dv=0
PairPos2: "'kern' Horizontal Kerning lookup 15-2" uniFE9B dx=-100 dy=0 dh=-100 dv=0 dx=0 dy=0 dh=0 dv=0
PairPos2: "'kern' Horizontal Kerning lookup 15-2" uni062B dx=-100 dy=0 dh=-100 dv=0 dx=0 dy=0 dh=0 dv=0
PairPos2: "'kern' Horizontal Kerning lookup 15-2" uniFE97 dx=-100 dy=0 dh=-100 dv=0 dx=0 dy=0 dh=0 dv=0
PairPos2: "'kern' Horizontal Kerning lookup 15-2" uni062A dx=-100 dy=0 dh=-100 dv=0 dx=0 dy=0 dh=0 dv=0
PairPos2: "'kern' Horizontal Kerning lookup 15-2" uni0629 dx=-100 dy=0 dh=-100 dv=0 dx=0 dy=0 dh=0 dv=0
PairPos2: "'kern' Horizontal Kerning lookup 15-2" uniFE91 dx=-47 dy=0 dh=-47 dv=0 dx=0 dy=0 dh=0 dv=0
PairPos2: "'kern' Horizontal Kerning lookup 15-2" uni0628 dx=-100 dy=0 dh=-100 dv=0 dx=0 dy=0 dh=0 dv=0
PairPos2: "'kern' Horizontal Kerning lookup 15-2" uni0627 dx=-100 dy=0 dh=-100 dv=0 dx=0 dy=0 dh=0 dv=0
PairPos2: "'kern' Horizontal Kerning lookup 15-2" uni0622 dx=-100 dy=0 dh=-100 dv=0 dx=0 dy=0 dh=0 dv=0
PairPos2: "'kern' Horizontal Kerning lookup 15-2" uni0621 dx=-100 dy=0 dh=-100 dv=0 dx=0 dy=0 dh=0 dv=0
PairPos2: "'kern' Horizontal Kerning lookup 15-2" uniFB94 dx=-142 dy=0 dh=-142 dv=0 dx=0 dy=0 dh=0 dv=0
PairPos2: "'kern' Horizontal Kerning lookup 15-2" uniFB92 dx=-142 dy=0 dh=-142 dv=0 dx=0 dy=0 dh=0 dv=0
PairPos2: "'kern' Horizontal Kerning lookup 15-2" afii57509 dx=-142 dy=0 dh=-142 dv=0 dx=0 dy=0 dh=0 dv=0
PairPos2: "'kern' Horizontal Kerning lookup 15-2" uniFB7C dx=-100 dy=0 dh=-100 dv=0 dx=0 dy=0 dh=0 dv=0
PairPos2: "'kern' Horizontal Kerning lookup 15-2" afii57506 dx=-100 dy=0 dh=-100 dv=0 dx=0 dy=0 dh=0 dv=0
PairPos2: "'kern' Horizontal Kerning lookup 15-2" afii57440 dx=-100 dy=0 dh=-100 dv=0 dx=0 dy=0 dh=0 dv=0
EndChar

StartChar: uniFEB2
Encoding: 65202 65202 189
Width: 2646
VWidth: 2553
GlyphClass: 2
Flags: W
AnchorPoint: "Anchor-10" 684.089 1029.03 basechar 0
AnchorPoint: "Anchor-7" 261.557 -625.885 basechar 0
LayerCount: 2
Fore
SplineSet
2651.71191406 0 m 6,0,-1
 2581.93945312 0 l 2,1,2
 2364 0 2364 0 2289.17675781 161.09765625 c 1,3,4
 2234 0 2234 0 2036.41113281 -0.06640625 c 0,5,6
 1828 0 1828 0 1770.88378906 170.723632812 c 1,7,8
 1721 -1 1721 -1 1542.75390625 0 c 0,9,10
 1377 1 1377 1 1320.62597656 98.7099609375 c 1,11,-1
 1320.29394531 43.9072265625 l 2,12,13
 1317.00130404 -434.810404757 1317.00130404 -434.810404757 747.471679688 -452.205078125 c 2,14,-1
 728.415039062 -452.787109375 l 1,15,-1
 701.224609375 -452.787109375 l 2,16,17
 91.16015625 -452.999944126 91.16015625 -452.999944126 91.16015625 43.2763671875 c 2,18,-1
 91.16015625 316.163085938 l 2,19,-1
 91 446 l 1,20,-1
 269.91796875 446.033203125 l 1,21,-1
 269.91796875 44.447265625 l 2,22,23
 270.000130801 -263.490234375 270.000130801 -263.490234375 703.396484375 -263.490234375 c 2,24,-1
 728.682617188 -263.490234375 l 1,25,-1
 756.385742188 -262.901367188 l 2,26,27
 1144.04185213 -254.99914686 1144.04185213 -254.99914686 1143.88574219 48.5576171875 c 2,28,-1
 1143.57910156 644.822265625 l 1,29,-1
 1333.88769531 644.990234375 l 1,30,-1
 1334.48339844 395.1328125 l 2,31,32
 1335 188 1335 188 1533.29003906 188.67578125 c 0,33,34
 1679.43922391 189.000977316 1679.43922391 189.000977316 1679.69042969 396.787109375 c 2,35,-1
 1679.99902344 652.041992188 l 1,36,-1
 1863.94628906 652.041992188 l 1,37,-1
 1864.58886719 390.651367188 l 2,38,39
 1865 186 1865 186 2041.46484375 188.571289062 c 0,40,41
 2188.39550781 191.006555247 2188.39550781 191.006555247 2188.39550781 401.665039062 c 2,42,-1
 2188.39550781 652.979492188 l 1,43,-1
 2371.15234375 652.979492188 l 1,44,-1
 2372.15234375 399.6484375 l 2,45,46
 2373 188 2373 188 2605.48144531 188 c 2,47,-1
 2651.71191406 188 l 6,48,49
 2726.71191406 188 2726.71191406 188 2726.71191406 99 c 6,50,-1
 2726.71191406 88 l 6,51,52
 2727 0 2727 0 2651.71191406 0 c 6,0,-1
EndSplineSet
EndChar

StartChar: uniFEB3
Encoding: 65203 65203 190
Width: 1574
VWidth: 2553
GlyphClass: 2
Flags: W
AnchorPoint: "Anchor-10" 744.679 1113.53 basechar 0
AnchorPoint: "Anchor-7" 904.307 -327.179 basechar 0
LayerCount: 2
Fore
SplineSet
-5.0234375 0 m 6,0,1
 -80 0 -80 0 -80.0234375 88 c 6,2,-1
 -80.0234375 99 l 6,3,4
 -80.0234375 188 -80.0234375 188 -5.0234375 188 c 6,5,-1
 29.7529296875 188 l 2,6,7
 261 188 261 188 261.376953125 401.948242188 c 2,8,-1
 261.810546875 646.999023438 l 1,9,-1
 445.765625 646.999023438 l 1,10,-1
 446.34765625 397.413085938 l 2,11,12
 446.833670721 189.00094765 446.833670721 189.00094765 622.517578125 188 c 0,13,14
 791 187 791 187 790.215820312 394.716796875 c 2,15,-1
 789.52734375 646.172851562 l 1,16,-1
 971.737304688 646.172851562 l 1,17,-1
 972.376953125 393.9765625 l 2,18,19
 972.896836188 189.000560688 972.896836188 189.000560688 1156.99511719 188 c 0,20,21
 1303 187 1303 187 1303.484375 392.9921875 c 2,22,-1
 1303.484375 690.362304688 l 1,23,-1
 1482.2421875 690.362304688 l 1,24,-1
 1482.2421875 385.029296875 l 2,25,26
 1482.2421875 0 1482.2421875 0 1164.95898438 0 c 0,27,28
 942 0 942 0 877.42578125 173.176757812 c 1,29,30
 824 -0 824 -0 631.898222045 0 c 0,31,32
 428 -0 428 -0 366.506835938 158.888671875 c 1,33,34
 292 0 292 0 28.82421875 0 c 2,35,-1
 -5.0234375 0 l 6,0,1
EndSplineSet
EndChar

StartChar: uniFEB4
Encoding: 65204 65204 191
Width: 1771
VWidth: 2548
GlyphClass: 2
Flags: W
AnchorPoint: "Anchor-10" 850.65 1107.67 basechar 0
AnchorPoint: "Anchor-7" 862.824 -287.272 basechar 0
LayerCount: 2
Fore
SplineSet
1776.8046875 0 m 6,0,-1
 1716.80078125 0 l 2,1,2
 1461 0 1461 0 1409.91503906 166.916015625 c 1,3,4
 1350 -1 1350 -1 1169.73566289 -0.489521095941 c 0,5,6
 972 -0 972 -0 899.986328125 167.909179688 c 1,7,8
 843 0 843 0 649.4765625 0.0126953125 c 0,9,10
 438 0 438 0 380.678710938 164.245117188 c 1,11,12
 317 0 317 0 59.7490234375 0 c 2,13,-1
 -5.0234375 0 l 2,14,15
 -80.0234375 0 -80.0234375 0 -80.0234375 88 c 2,16,-1
 -80.0234375 99 l 2,17,18
 -80 188 -80 188 -5.0234375 188 c 2,19,-1
 58.099609375 188 l 2,20,21
 290.607840044 188 290.607840044 188 288.87890625 375.979492188 c 2,22,-1
 286.379882812 647.6875 l 1,23,-1
 474.487304688 647.6875 l 1,24,-1
 474.108398438 384.181640625 l 2,25,26
 474 188 474 188 654.182617188 187.9609375 c 0,27,28
 806.354004894 188.000091085 806.354004894 188.000091085 806.149414062 384.741210938 c 2,29,-1
 805.875976562 647.6875 l 1,30,-1
 990.993164062 647.6875 l 1,31,-1
 992.345703125 386.685546875 l 2,32,33
 993 188 993 188 1171.109375 188.11328125 c 0,34,35
 1302.58948294 188.000352594 1302.58948294 188.000352594 1303.10644531 385.19140625 c 2,36,-1
 1303.80273438 650.78515625 l 1,37,-1
 1487.03808594 650.78515625 l 1,38,-1
 1487.01757812 387.545898438 l 2,39,40
 1487 188 1487 188 1719.37304688 188 c 2,41,-1
 1776.8046875 188 l 6,42,43
 1851.8046875 188 1851.8046875 188 1851.8046875 99 c 6,44,-1
 1851.8046875 88 l 6,45,46
 1852 0 1852 0 1776.8046875 0 c 6,0,-1
EndSplineSet
EndChar

StartChar: uniFEBA
Encoding: 65210 65210 197
Width: 2592
VWidth: 2553
GlyphClass: 2
Flags: W
AnchorPoint: "Anchor-10" 652.398 1146.4 basechar 0
AnchorPoint: "Anchor-7" 270.946 -692.786 basechar 0
LayerCount: 2
Fore
SplineSet
2597.67382812 0 m 2,0,-1
 2570.16699219 0 l 2,1,2
 2409 0 2409 0 2299.61816406 111.51953125 c 1,3,4
 2176.24889383 -0.183736734166 2176.24889383 -0.183736734166 1951.43945312 -0.2958984375 c 6,5,-1
 1581.49902344 -0.48046875 l 2,6,7
 1392 -1 1392 -1 1320.25390625 112.287109375 c 1,8,-1
 1320.25390625 43.865234375 l 2,9,10
 1319.99978099 -434.41218012 1319.99978099 -434.41218012 737.431640625 -452.205078125 c 2,11,-1
 718.375 -452.787109375 l 1,12,-1
 691.1875 -452.787109375 l 2,13,14
 91 -453 91 -453 91.12109375 103.276367188 c 1,15,-1
 91 446 l 1,16,-1
 269.877929688 446.033203125 l 1,17,-1
 269.877929688 104.44921875 l 2,18,19
 270.000162861 -263.490234375 270.000162861 -263.490234375 693.356445312 -263.490234375 c 2,20,-1
 718.642578125 -263.490234375 l 1,21,-1
 746.364257812 -262.901367188 l 2,22,23
 1144.02260783 -253.999493907 1144.02260783 -253.999493907 1143.84570312 48.5576171875 c 2,24,-1
 1143.49707031 644.818359375 l 1,25,-1
 1324.94824219 644.911132812 l 1,26,-1
 1325.0390625 466.603515625 l 2,27,28
 1325 244 1325 244 1438.17480469 214.51953125 c 1,29,30
 1668 772 1668 772 2007.67480469 772.51953125 c 0,31,32
 2197 773 2197 773 2305.17480469 630.426757812 c 0,33,34
 2390 518 2390 518 2390.73730469 358.98828125 c 0,35,36
 2391 312 2391 312 2382.41113281 269.51953125 c 1,37,38
 2460 188 2460 188 2578.29296875 188 c 2,39,-1
 2597.67382812 188 l 2,40,41
 2672.67382812 188 2672.67382812 188 2672.67382812 99 c 2,42,-1
 2672.67382812 88 l 2,43,44
 2673 0 2673 0 2597.67382812 0 c 2,0,-1
2214.75097656 423.267578125 m 0,45,46
 2175 592 2175 592 1997.29589844 591.533203125 c 0,47,48
 1797 592 1797 592 1613.17871094 191.046875 c 1,49,-1
 1971.43554688 191.046875 l 2,50,51
 2126 191 2126 191 2177.17480469 236.51953125 c 0,52,53
 2221 276 2221 276 2221.17480469 348.51953125 c 0,54,55
 2221 394 2221 394 2214.75097656 423.267578125 c 0,45,46
EndSplineSet
EndChar

StartChar: uniFEBB
Encoding: 65211 65211 198
Width: 1628
VWidth: 2553
GlyphClass: 2
Flags: W
AnchorPoint: "Anchor-10" 630.109 1250.04 basechar 0
AnchorPoint: "Anchor-7" 630.109 -266.146 basechar 0
LayerCount: 2
Fore
SplineSet
-5.0234375 0 m 6,0,1
 -80 0 -80 0 -80.0234375 88 c 6,2,-1
 -80.0234375 99 l 6,3,4
 -80.0234375 188 -80.0234375 188 -5.0234375 188 c 6,5,-1
 51.2724609375 188 l 2,6,7
 268 188 268 188 267.774414062 397.534179688 c 2,8,-1
 267.774414062 649.1796875 l 1,9,-1
 444.749023438 649.1796875 l 1,10,-1
 445.829101562 393.998046875 l 2,11,12
 446.586726109 215 446.586726109 215 578 215 c 1,13,14
 809 773 809 773 1147.5 773 c 0,15,16
 1338 773 1338 773 1445 631.907226562 c 0,17,18
 1530 519 1530 519 1530.5625 359.46875 c 0,19,20
 1531 184 1531 184 1416 91 c 0,21,22
 1304 0 1304 0 1091.26464844 0.1845703125 c 2,23,-1
 710.32421875 0 l 2,24,25
 458.083153332 -0.12221389131 458.083153332 -0.12221389131 369.004882812 130.799804688 c 1,26,27
 291 0 291 0 58.154296875 0 c 2,28,-1
 -5.0234375 0 l 6,0,1
1354.57617188 423.748046875 m 0,29,30
 1315 592 1315 592 1137.12109375 592.013671875 c 0,31,32
 937 592 937 592 753.00390625 191.52734375 c 1,33,-1
 1111.26074219 191.52734375 l 2,34,35
 1265 192 1265 192 1317 237 c 0,36,37
 1361 276 1361 276 1361 349 c 0,38,39
 1361 394 1361 394 1354.57617188 423.748046875 c 0,29,30
EndSplineSet
EndChar

StartChar: uniFEBC
Encoding: 65212 65212 199
Width: 1734
VWidth: 2553
GlyphClass: 2
Flags: W
AnchorPoint: "Anchor-10" 689.854 1252.04 basechar 0
AnchorPoint: "Anchor-7" 719.196 -303.704 basechar 0
LayerCount: 2
Fore
SplineSet
1738.9765625 0 m 2,0,-1
 1709.9921875 0 l 2,1,2
 1548 0 1548 0 1439.44335938 112 c 1,3,4
 1323.23839624 0.297260260126 1323.23839624 0.297260260126 1091.26464844 0.1845703125 c 6,5,-1
 711.32421875 0 l 2,6,7
 456 -0 456 -0 369.004882812 130.799804688 c 1,8,9
 290.730091961 -0.452586011325 290.730091961 -0.452586011325 58.154296875 -0.0966796875 c 2,10,-1
 -5.0234375 0 l 2,11,12
 -80.0234375 0 -80.0234375 0 -80.0234375 88 c 2,13,-1
 -80.0234375 99 l 2,14,15
 -80 188 -80 188 -5.0234375 188 c 2,16,-1
 51.2724609375 188 l 2,17,18
 267.774414062 187.979033661 267.774414062 187.979033661 267.774414062 397.534179688 c 2,19,-1
 267.774414062 648.1796875 l 1,20,-1
 444.749023438 648.1796875 l 1,21,-1
 445.829101562 393.998046875 l 2,22,23
 447 215 447 215 578 215 c 1,24,25
 809 773 809 773 1147.5 773 c 0,26,27
 1337 773 1337 773 1445 630.907226562 c 0,28,29
 1530 518 1530 518 1530.5625 359.46875 c 0,30,31
 1531 312 1531 312 1522.23632812 270 c 1,32,33
 1600 188 1600 188 1716.11816406 188 c 2,34,-1
 1738.9765625 188 l 2,35,36
 1813.9765625 188 1813.9765625 188 1813.9765625 99 c 2,37,-1
 1813.9765625 88 l 2,38,39
 1814 0 1814 0 1738.9765625 0 c 2,0,-1
1354.57617188 423.748046875 m 0,40,41
 1315 592 1315 592 1137.12109375 592.013671875 c 0,42,43
 937 592 937 592 753.00390625 191.52734375 c 1,44,-1
 1111.26074219 191.52734375 l 2,45,46
 1265 192 1265 192 1317 237 c 0,47,48
 1361 276 1361 276 1361 349 c 0,49,50
 1361 394 1361 394 1354.57617188 423.748046875 c 0,40,41
EndSplineSet
EndChar

StartChar: uniFEC2
Encoding: 65218 65218 205
Width: 1387
VWidth: 2553
GlyphClass: 2
Flags: W
AnchorPoint: "Anchor-7" 525.078 -284.734 basechar 0
AnchorPoint: "Anchor-10" 403.545 1503.1 basechar 0
LayerCount: 2
Fore
SplineSet
1391.9765625 0 m 2,0,-1
 1364.49316406 0 l 2,1,2
 1203 0 1203 0 1093.94433594 112.48046875 c 1,3,4
 968.279197239 0.249350128638 968.279197239 0.249350128638 744.940429688 0.1845703125 c 2,5,-1
 91.7705078125 -0.0048828125 l 1,6,-1
 91.7705078125 189.200195312 l 1,7,-1
 213 189 l 1,8,9
 231 241 231 241 315.905273438 402.119140625 c 1,10,-1
 315.905273438 1368.64355469 l 5,11,-1
 491 1368.64355469 l 5,12,-1
 491 622.859375 l 1,13,14
 643 773 643 773 800.17578125 773 c 0,15,16
 995 773 995 773 1099.67578125 633.907226562 c 0,17,18
 1185 520 1185 520 1184.23828125 359.46875 c 0,19,20
 1184 318 1184 318 1176.73730469 270.48046875 c 1,21,22
 1255 188 1255 188 1369.61914062 188 c 2,23,-1
 1391.9765625 188 l 2,24,25
 1466.9765625 188 1466.9765625 188 1466.9765625 99 c 2,26,-1
 1466.9765625 88 l 2,27,28
 1467 0 1467 0 1391.9765625 0 c 2,0,-1
1008.25195312 423.748046875 m 0,29,30
 969 592 969 592 797.796875 592.013671875 c 0,31,32
 591 592 591 592 406.6796875 191.52734375 c 1,33,-1
 764.936523438 191.52734375 l 2,34,35
 919 192 919 192 970.67578125 237 c 0,36,37
 1015 276 1015 276 1014.67578125 349 c 0,38,39
 1015 394 1015 394 1008.25195312 423.748046875 c 0,29,30
EndSplineSet
EndChar

StartChar: uniFEC3
Encoding: 65219 65219 206
Width: 1146
VWidth: 2553
GlyphClass: 2
Flags: W
AnchorPoint: "Anchor-10" 250.277 1497.82 basechar 0
AnchorPoint: "Anchor-7" 348.078 -302.734 basechar 0
LayerCount: 2
Fore
SplineSet
-5.0234375 0 m 2,0,1
 -80.0234375 0 -80.0234375 0 -80.0234375 88 c 2,2,-1
 -80.0234375 99 l 2,3,4
 -80 188 -80 188 -5.0234375 188 c 2,5,-1
 77.7841796875 188 l 1,6,7
 96 239 96 239 180.689453125 402.319335938 c 1,8,-1
 180.689453125 1368.84375 l 5,9,-1
 355.784179688 1368.84375 l 5,10,-1
 355.784179688 623.059570312 l 1,11,12
 508 773 508 773 663.959960938 773.200195312 c 0,13,14
 860 773 860 773 964.459960938 634.107421875 c 0,15,16
 1049 522 1049 522 1049.02246094 359.668945312 c 0,17,18
 1050 197 1050 197 934.459960938 91.2001953125 c 0,19,20
 834 0 834 0 609.724609375 0 c 2,21,-1
 -5.0234375 0 l 2,0,1
873.036132812 423.948242188 m 0,22,23
 833 592 833 592 655.581054688 592.213867188 c 0,24,25
 455 592 455 592 271.463867188 188.727539062 c 1,26,-1
 629.720703125 188.727539062 l 2,27,28
 784 189 784 189 835.459960938 234.200195312 c 0,29,30
 880 274 880 274 879.459960938 349.200195312 c 0,31,32
 879 399 879 399 873.036132812 423.948242188 c 0,22,23
EndSplineSet
EndChar

StartChar: uniFEC4
Encoding: 65220 65220 207
Width: 1254
VWidth: 2553
GlyphClass: 2
Flags: W
AnchorPoint: "Anchor-10" 260.783 1498.53 basechar 0
AnchorPoint: "Anchor-7" 490.837 -294.314 basechar 0
LayerCount: 2
Fore
SplineSet
1258.9765625 0 m 2,0,-1
 1232.27734375 0 l 2,1,2
 1071 0 1071 0 961.728515625 112.680664062 c 1,3,4
 834.458585006 0.522873081833 834.458585006 0.522873081833 612.724609375 0.384765625 c 2,5,-1
 -5.0234375 0 l 2,6,7
 -80.0234375 -0 -80.0234375 -0 -80.0234375 88 c 2,8,-1
 -80.0234375 99 l 2,9,10
 -80 188 -80 188 -5.0234375 188 c 2,11,-1
 80.7841796875 188 l 1,12,13
 99 239 99 239 183.689453125 402.319335938 c 1,14,-1
 183.689453125 1368.84375 l 5,15,-1
 358.784179688 1368.84375 l 5,16,-1
 358.784179688 623.059570312 l 1,17,18
 511 773 511 773 667.959960938 773.200195312 c 0,19,20
 863 773 863 773 967.459960938 634.107421875 c 0,21,22
 1053 521 1053 521 1052.02246094 359.668945312 c 0,23,24
 1052 318 1052 318 1044.52148438 270.680664062 c 1,25,26
 1123 188 1123 188 1237.40332031 188 c 2,27,-1
 1258.9765625 188 l 2,28,29
 1333.9765625 188 1333.9765625 188 1333.9765625 99 c 2,30,-1
 1333.9765625 88 l 2,31,32
 1334 0 1334 0 1258.9765625 0 c 2,0,-1
876.036132812 423.948242188 m 0,33,34
 837 592 837 592 665.581054688 592.213867188 c 0,35,36
 458 592 458 592 274.463867188 191.727539062 c 1,37,-1
 632.720703125 191.727539062 l 2,38,39
 787 192 787 192 838.459960938 237.200195312 c 0,40,41
 882 275 882 275 882.459960938 349.200195312 c 0,42,43
 883 394 883 394 876.036132812 423.948242188 c 0,33,34
EndSplineSet
EndChar

StartChar: uniFECA
Encoding: 65226 65226 213
Width: 1277
VWidth: 2553
GlyphClass: 2
Flags: W
AnchorPoint: "Anchor-10" 554.282 1348.27 basechar 0
AnchorPoint: "Anchor-7" 222.935 -761.024 basechar 0
LayerCount: 2
Fore
SplineSet
1281.9765625 0 m 6,0,-1
 1128.21679688 0 l 2,1,2
 858 0 858 0 650 152 c 1,3,4
 270 36 270 36 265.6875 -197.775390625 c 0,5,6
 260.005491495 -572.637706554 260.005491495 -572.637706554 814.475585938 -572.172851562 c 2,7,-1
 1117.33007812 -571.918945312 l 1,8,-1
 1117.33007812 -755.474609375 l 1,9,-1
 802.448242188 -754.58203125 l 2,10,11
 415 -753 415 -753 252.054809136 -598.833917204 c 0,12,13
 87 -441 87 -441 90.109375 -215.653320312 c 0,14,15
 96 139 96 139 485 273 c 1,16,17
 243 447 243 447 245.474609375 573.07421875 c 0,18,19
 248 693 248 693 383.491210938 757.916992188 c 0,20,21
 472 800 472 800 665.141601562 800.323242188 c 0,22,23
 922 800 922 800 1018.20410156 711.126953125 c 0,24,25
 1084 651 1084 651 1084.40559196 571 c 0,26,27
 1084 381 1084 381 803 244 c 1,28,29
 890 188 890 188 1139.4453125 188 c 2,30,-1
 1281.9765625 188 l 6,31,32
 1356.9765625 188 1356.9765625 188 1356.9765625 99 c 6,33,-1
 1356.9765625 88 l 6,34,35
 1357 0 1357 0 1281.9765625 0 c 6,0,-1
896.823242188 541.212890625 m 0,36,37
 895 631 895 631 661.805664062 631.885742188 c 0,38,39
 448 632 448 632 448.055664062 548.2421875 c 0,40,41
 448 512 448 512 524.385742188 451.069335938 c 0,42,43
 640 358 640 358 653.740234375 350.637695312 c 1,44,45
 753 385 753 385 828 441 c 0,46,47
 898 494 898 494 896.823242188 541.212890625 c 0,36,37
EndSplineSet
EndChar

StartChar: uniFECB
Encoding: 65227 65227 214
Width: 1063
VWidth: 2553
GlyphClass: 2
Flags: W
AnchorPoint: "Anchor-10" 394.602 1421.91 basechar 0
AnchorPoint: "Anchor-7" 545.228 -262.038 basechar 0
LayerCount: 2
Fore
SplineSet
-5.0234375 0 m 6,0,1
 -80 0 -80 0 -80.0234375 88 c 6,2,-1
 -80.0234375 99 l 6,3,4
 -80.0234375 188 -80.0234375 188 -5.0234375 188 c 6,5,-1
 308.684570312 188 l 1,6,7
 167 311 167 311 167.352588866 483.206876368 c 0,8,9
 168 656 168 656 276.946681858 767.623521244 c 0,10,11
 387 880 387 880 584.306264901 880.165121556 c 0,12,13
 791 880 791 880 913 729 c 1,14,-1
 838.681640625 592.89453125 l 1,15,16
 737 692 737 692 588.619591319 691.749936015 c 0,17,18
 440 692 440 692 374.295898438 604.436523438 c 0,19,20
 335 552 335 552 334.584960938 474.029296875 c 0,21,22
 335 367 335 367 438.812090514 284.141672472 c 0,23,24
 510 227 510 227 585.480871428 227.395206765 c 0,25,26
 659 227 659 227 737.791015625 244.159179688 c 2,27,-1
 972 295.391601562 l 1,28,-1
 972 105 l 1,29,30
 600 0 600 0 304.7578125 0 c 2,31,-1
 -5.0234375 0 l 6,0,1
EndSplineSet
EndChar

StartChar: uniFECC
Encoding: 65228 65228 215
Width: 1104
VWidth: 2553
GlyphClass: 2
Flags: W
AnchorPoint: "Anchor-10" 505.677 1208.6 basechar 0
AnchorPoint: "Anchor-7" 456.382 -263.212 basechar 0
LayerCount: 2
Fore
SplineSet
1108.9765625 0 m 6,0,-1
 1058.58203125 0 l 2,1,2
 726 0 726 0 557.24609375 120.828125 c 1,3,4
 409 0 409 0 35.9580078125 0 c 2,5,-1
 -5.0234375 0 l 2,6,7
 -80 0 -80 0 -80.0234375 88 c 2,8,-1
 -80.0234375 99 l 2,9,10
 -80.0234375 188 -80.0234375 188 -5.0234375 188 c 2,11,-1
 35.330078125 188 l 2,12,13
 335 188 335 188 416.038085938 229.124023438 c 1,14,15
 119 389 119 389 122.474609375 543.07421875 c 0,16,17
 125 666 125 666 254.491210938 727.916992188 c 0,18,19
 343 770 343 770 542.141601562 770.323242188 c 0,20,21
 738 770 738 770 844 726.515625 c 0,22,23
 963 678 963 678 965.34685213 541 c 0,24,25
 967 393 967 393 688 223 c 1,26,27
 797 188 797 188 1065.32910156 188 c 2,28,-1
 1108.9765625 188 l 6,29,30
 1184 188 1184 188 1183.9765625 99 c 6,31,-1
 1183.9765625 88 l 6,32,33
 1184 0 1184 0 1108.9765625 0 c 6,0,-1
770.823242188 511.212890625 m 0,34,35
 769 601 769 601 548.805664062 601.885742188 c 0,36,37
 325 602 325 602 325.055664062 514.2421875 c 0,38,39
 325 473 325 473 401.385742188 421.069335938 c 0,40,41
 536 330 536 330 558.740234375 320.637695312 c 1,42,43
 579 326 579 326 700 419 c 0,44,45
 772 474 772 474 770.823242188 511.212890625 c 0,34,35
EndSplineSet
EndChar

StartChar: uniFEDA
Encoding: 65242 65242 229
Width: 2039
VWidth: 2553
GlyphClass: 2
Flags: W
AnchorPoint: "Anchor-10" 637.624 1529.46 basechar 0
AnchorPoint: "Anchor-7" 544.902 -313.681 basechar 0
LayerCount: 2
Fore
SplineSet
2044.734375 -1.06640625 m 2,0,-1
 1987.75488281 -1.06640625 l 2,1,2
 1792 -1 1792 -1 1689.91699219 125.884765625 c 1,3,4
 1587.94666085 -1.06640625 1587.94666085 -1.06640625 1395.66992188 -1.06640625 c 2,5,-1
 493.995117188 -1.06640625 l 2,6,7
 153.660159697 -1.00032235835 153.660159697 -1.00032235835 125.6796875 377.255859375 c 0,8,9
 122.195927015 421.511082136 122.195927015 421.511082136 122.1953125 440.826171875 c 2,10,-1
 122.188476562 655.689453125 l 1,11,-1
 300.944335938 655.689453125 l 1,12,-1
 300.944335938 451.571289062 l 2,13,14
 300.999951327 188.23046875 300.999951327 188.23046875 498.510742188 188.23046875 c 2,15,-1
 1402.87207031 188.23046875 l 1,16,17
 1600.45605469 188.942633281 1600.45605469 188.942633281 1600.45605469 416.446289062 c 2,18,-1
 1600.45605469 1367.18847656 l 5,19,-1
 1779.21289062 1367.18847656 l 5,20,-1
 1779.21289062 391.061523438 l 2,21,22
 1778.99962271 193.650762294 1778.99962271 193.650762294 1998.14257812 188.111328125 c 2,23,-1
 2044.734375 186.93359375 l 2,24,25
 2119.734375 185.006823976 2119.734375 185.006823976 2119.734375 97.93359375 c 2,26,-1
 2119.734375 86.93359375 l 2,27,28
 2120 -1 2120 -1 2044.734375 -1.06640625 c 2,0,-1
734.5546875 743.643554688 m 2,29,30
 803.131956473 735.001765879 803.131956473 735.001765879 839.706054688 735.491210938 c 0,31,32
 989 735 989 735 1038.59765625 785.987304688 c 0,33,34
 1068 816 1068 816 1068.09960938 842.194335938 c 0,35,36
 1068 894 1068 894 977.216796875 908.501953125 c 0,37,38
 886 923 886 923 850.263671875 970.057617188 c 0,39,40
 796 1042 796 1042 820.032226562 1118.515625 c 0,41,42
 866.92166943 1266.75236497 866.92166943 1266.75236497 1131.48535156 1286.41015625 c 2,43,-1
 1160.75488281 1288.58496094 l 1,44,-1
 1160.75488281 1188.15820312 l 1,45,-1
 1135.71386719 1186.12109375 l 2,46,47
 921.056885701 1168.87037013 921.056885701 1168.87037013 919.6328125 1073.37792969 c 0,48,49
 920 1025 920 1025 973.572265625 1007.42089844 c 0,50,51
 1001 998 1001 998 1052.90820312 990.569335938 c 0,52,53
 1104 983 1104 983 1138.02539062 950.435546875 c 128,-1,54
 1172 918 1172 918 1171.64941406 861.016601562 c 0,55,56
 1172 804 1172 804 1148.35058594 766.818359375 c 0,57,58
 1035.83860634 587.743124168 1035.83860634 587.743124168 726.939453125 636.025390625 c 2,59,-1
 703.897460938 639.626953125 l 1,60,-1
 703.897460938 747.506835938 l 1,61,-1
 734.5546875 743.643554688 l 2,29,30
EndSplineSet
EndChar

StartChar: uniFEDB
Encoding: 65243 65243 230
Width: 888
VWidth: 2553
GlyphClass: 2
Flags: W
AnchorPoint: "Anchor-10" 296.18 1446.67 basechar 0
AnchorPoint: "Anchor-7" 421.179 -274.565 basechar 0
LayerCount: 2
Fore
SplineSet
-5.0234375 0 m 2,0,1
 -80.0234375 0.0182897540429 -80.0234375 0.0182897540429 -80.0234375 88 c 2,2,-1
 -80.0234375 99 l 2,3,4
 -80 188 -80 188 -5.0234375 188 c 2,5,-1
 342.91796875 188 l 2,6,7
 550 188 550 188 550.708007812 322.768554688 c 0,8,9
 550.999595643 378.922129532 550.999595643 378.922129532 443.646484375 501.317382812 c 2,10,-1
 172.858398438 810.047851562 l 2,11,12
 115 876 115 876 93.494140625 905.619140625 c 0,13,14
 67 941 67 941 71.6220703125 1000.41113281 c 0,15,16
 82.0228446984 1122.26765078 82.0228446984 1122.26765078 189.275390625 1159.80664062 c 2,17,-1
 836.5 1386.33886719 l 5,18,-1
 836.5 1201.94628906 l 5,19,-1
 247.211914062 995.982421875 l 1,20,-1
 566.962890625 632.473632812 l 2,21,22
 730 447 730 447 712.686523438 285.399902344 c 0,23,24
 696 133 696 133 565.368164062 47.052734375 c 0,25,26
 493.81548716 -0.121648549854 493.81548716 -0.121648549854 391.426757812 -0.0966796875 c 2,27,-1
 -5.0234375 0 l 2,0,1
EndSplineSet
EndChar

StartChar: uniFEDC
Encoding: 65244 65244 231
Width: 1066
VWidth: 2553
GlyphClass: 2
Flags: W
AnchorPoint: "Anchor-10" 293.27 1381.68 basechar 0
AnchorPoint: "Anchor-7" 307.814 -331.873 basechar 0
LayerCount: 2
Fore
SplineSet
1071.06835938 -0.48046875 m 2,0,-1
 1056.45019531 -0.48046875 l 2,1,2
 854 -0 854 -0 696.606445312 219.549804688 c 1,3,4
 621.055781908 -1.83654209806 621.055781908 -1.83654209806 358.515625 -1.06640625 c 2,5,-1
 -5.0234375 0 l 2,6,7
 -80.0234375 0 -80.0234375 0 -80.0234375 88 c 2,8,-1
 -80.0234375 99 l 2,9,10
 -80 188 -80 188 -5.0234375 188 c 2,11,-1
 340.0078125 188 l 2,12,13
 547 188 547 188 547.798828125 321.798828125 c 0,14,15
 548.000188982 378.052795607 548.000188982 378.052795607 440.736328125 500.346679688 c 2,16,-1
 169.948242188 809.078125 l 2,17,18
 123.934927752 860.726028793 123.934927752 860.726028793 90.5974865884 904.820373277 c 0,19,20
 64 940 64 940 68.712890625 999.439453125 c 0,21,22
 79.0337985332 1122.40267548 79.0337985332 1122.40267548 186.369140625 1159.80859375 c 2,23,-1
 833.58984375 1385.36230469 l 5,24,-1
 833.58984375 1200.9765625 l 5,25,-1
 244 998 l 1,26,-1
 820.413085938 343.630859375 l 2,27,28
 956.202342702 189.770729474 956.202342702 189.770729474 1046.55273438 188 c 2,29,-1
 1071.06835938 187.51953125 l 2,30,31
 1146.06835938 185.998613747 1146.06835938 185.998613747 1146.06835938 98.51953125 c 2,32,-1
 1146.06835938 87.51953125 l 2,33,34
 1146 -0 1146 -0 1071.06835938 -0.48046875 c 2,0,-1
EndSplineSet
EndChar

StartChar: uniFEDE
Encoding: 65246 65246 233
Width: 1487
VWidth: 2553
GlyphClass: 2
Flags: W
AnchorPoint: "Anchor-10" 462.754 1161.62 basechar 0
AnchorPoint: "Anchor-7" 288.91 -677.293 basechar 0
LayerCount: 2
Fore
SplineSet
1491.9765625 0 m 2,0,-1
 1470.84960938 0 l 2,1,2
 1307 0 1307 0 1244.68652344 81.6357421875 c 1,3,-1
 1244.25488281 53.984375 l 2,4,5
 1236.99602158 -429.264858365 1236.99602158 -429.264858365 720.430664062 -445.068359375 c 2,6,-1
 701.374023438 -445.651367188 l 1,7,-1
 674.188476562 -445.651367188 l 2,8,9
 91.3151682342 -445.999811591 91.3151682342 -445.999811591 91.12109375 103.276367188 c 2,10,-1
 91 446 l 1,11,-1
 269.877929688 446.033203125 l 1,12,-1
 269.877929688 104.44921875 l 2,13,14
 270.000120053 -256.354492188 270.000120053 -256.354492188 676.356445312 -256.354492188 c 2,15,-1
 701.643554688 -256.354492188 l 1,16,-1
 729.365234375 -255.764648438 l 2,17,18
 1071.36248965 -247.991761358 1071.36248965 -247.991761358 1071.36523438 58.416015625 c 2,19,-1
 1071.37695312 1366.63671875 l 5,20,-1
 1245.29882812 1366.63671875 l 5,21,-1
 1245.29882812 433.765625 l 2,22,23
 1245 188 1245 188 1464.24902344 188 c 2,24,-1
 1491.9765625 188 l 2,25,26
 1566.9765625 188 1566.9765625 188 1566.9765625 99 c 2,27,-1
 1566.9765625 88 l 2,28,29
 1567 0 1567 0 1491.9765625 0 c 2,0,-1
EndSplineSet
EndChar

StartChar: uniFEDF
Encoding: 65247 65247 234
Width: 589
VWidth: 2553
GlyphClass: 2
Flags: W
AnchorPoint: "Anchor-10" 345.682 1513.64 basechar 0
AnchorPoint: "Anchor-7" 181.01 -242.415 basechar 0
LayerCount: 2
Fore
SplineSet
-5.0234375 0 m 2,0,1
 -80.0234375 0 -80.0234375 0 -80.0234375 88 c 2,2,-1
 -80.0234375 99 l 2,3,4
 -80 188 -80 188 -5.0234375 188 c 2,5,-1
 96.9697265625 188 l 2,6,7
 280.95703125 188 280.95703125 188 280.95703125 402.866210938 c 2,8,-1
 280.95703125 1368.15820312 l 5,9,-1
 459.71484375 1368.15820312 l 5,10,-1
 459.71484375 394.938476562 l 2,11,12
 460 0 460 0 96.173828125 0 c 2,13,-1
 -5.0234375 0 l 2,0,1
EndSplineSet
EndChar

StartChar: uniFEE0
Encoding: 65248 65248 235
Width: 699
VWidth: 2553
GlyphClass: 2
Flags: W
AnchorPoint: "Anchor-10" 373.225 1605.2 basechar 0
AnchorPoint: "Anchor-7" 291.065 -292.554 basechar 0
LayerCount: 2
Fore
SplineSet
704.518554688 0 m 2,0,-1
 659.068359375 0 l 2,1,2
 492 0 492 0 371.234375 139.458007812 c 1,3,4
 263 0 263 0 89.7177734375 0 c 2,5,-1
 -5.0234375 0 l 2,6,7
 -80.0234375 0 -80.0234375 0 -80.0234375 88 c 2,8,-1
 -80.0234375 99 l 2,9,10
 -80 188 -80 188 -5.0234375 188 c 2,11,-1
 87.873046875 188 l 2,12,13
 283.931640625 188 283.931640625 188 283.931640625 439.43359375 c 2,14,-1
 283.931640625 1367.72753906 l 1,15,-1
 459.02734375 1367.72753906 l 1,16,-1
 459.02734375 438.258789062 l 2,17,18
 459 188 459 188 668.973632812 188 c 2,19,-1
 704.518554688 188 l 2,20,21
 779.518554688 188 779.518554688 188 779.518554688 99 c 2,22,-1
 779.518554688 88 l 2,23,24
 780 0 780 0 704.518554688 0 c 2,0,-1
EndSplineSet
EndChar

StartChar: uniFEE2
Encoding: 65250 65250 237
Width: 1360
VWidth: 2553
GlyphClass: 2
Flags: W
AnchorPoint: "Anchor-10" 589.565 1154.03 basechar 0
LayerCount: 2
Fore
SplineSet
1364.9765625 0 m 6,0,-1
 1330.15429688 0 l 2,1,2
 1173 0 1173 0 1116 105 c 1,3,4
 1043 -18 1043 -18 871 -16.6494140625 c 0,5,6
 702 -16 702 -16 611.123046875 71.6357421875 c 0,7,8
 493 184 493 184 498.890625 425.30859375 c 0,9,10
 501 513 501 513 505.227539062 553.943359375 c 1,11,12
 265.010742188 531.001025952 265.010742188 531.001025952 265.010742188 161.032226562 c 2,13,-1
 265.010742188 -496.416992188 l 1,14,-1
 90.94921875 -496.416992188 l 1,15,-1
 90.94921875 156.591796875 l 2,16,17
 90.9999571739 744.50376847 90.9999571739 744.50376847 573.255859375 744.525390625 c 2,18,-1
 878.190429688 744.5390625 l 2,19,20
 1169 745 1169 745 1190.44140625 465.870117188 c 0,21,22
 1195 408 1195 408 1192.22152526 371.417047205 c 0,23,24
 1188 313 1188 313 1188 305 c 0,25,26
 1187 188 1187 188 1326.3671875 188 c 2,27,-1
 1364.9765625 188 l 6,28,29
 1439.9765625 188 1439.9765625 188 1439.9765625 99 c 6,30,-1
 1439.9765625 88 l 6,31,32
 1440 0 1440 0 1364.9765625 0 c 6,0,-1
832.837890625 574.115234375 m 0,33,34
 711 574 711 574 678.53125 569.491210938 c 1,35,36
 675 524 675 524 675.83203125 400.116680651 c 0,37,38
 677 248 677 248 730.286132812 193.526367188 c 0,39,40
 780 143 780 143 868.740234375 142.890625 c 0,41,42
 1031 143 1031 143 1022.97265625 411.822265625 c 0,43,44
 1018 574 1018 574 832.837890625 574.115234375 c 0,33,34
EndSplineSet
EndChar

StartChar: uniFEE3
Encoding: 65251 65251 238
Width: 936
VWidth: 2553
GlyphClass: 2
Flags: W
AnchorPoint: "Anchor-10" 401.346 1046.25 basechar 0
AnchorPoint: "Anchor-7" 408.389 -252.648 basechar 0
LayerCount: 2
Fore
SplineSet
-5.0234375 0 m 6,0,1
 -80 0 -80 0 -80.0234375 88 c 6,2,-1
 -80.0234375 99 l 6,3,4
 -80.0234375 188 -80.0234375 188 -5.0234375 188 c 6,5,-1
 64.806640625 188 l 2,6,7
 165 188 165 188 165.111328125 262.42578125 c 0,8,9
 165 500 165 500 202.231445312 590.555664062 c 0,10,11
 282.176140867 785.000035843 282.176140867 785.000035843 505.309570312 785.006835938 c 0,12,13
 846 785 846 785 845.510742188 379.966796875 c 24,14,15
 845 -15 845 -15 513.368164062 -13.58984375 c 0,16,17
 346 -13 346 -13 242.626953125 88.8740234375 c 1,18,19
 178 0 178 0 47.23046875 0 c 2,20,-1
 -5.0234375 0 l 6,0,1
511.029296875 613.109375 m 0,21,22
 345 613 345 613 341.678710938 389.6875 c 0,23,24
 338 165 338 165 512.587890625 163.83984375 c 0,25,26
 672 163 672 163 671.700195312 388.733398438 c 0,27,28
 672 613 672 613 511.029296875 613.109375 c 0,21,22
EndSplineSet
EndChar

StartChar: uniFEE4
Encoding: 65252 65252 239
Width: 1018
VWidth: 2553
GlyphClass: 2
Flags: W
AnchorPoint: "Anchor-10" 516.487 1160.49 basechar 0
AnchorPoint: "Anchor-7" 495.36 -274.948 basechar 0
LayerCount: 2
Fore
SplineSet
1023.24023438 0 m 6,0,-1
 974.501953125 0 l 2,1,2
 831 0 831 0 774 91.296875 c 1,3,4
 698 -14 698 -14 513.368164062 -13.58984375 c 0,5,6
 316 -13 316 -13 242.626953125 88.8740234375 c 1,7,8
 178 0 178 0 47.23046875 0 c 2,9,-1
 -5.0234375 0 l 2,10,11
 -80.0234375 0 -80.0234375 0 -80.0234375 88 c 2,12,-1
 -80.0234375 99 l 2,13,14
 -80 188 -80 188 -5.0234375 188 c 2,15,-1
 54.806640625 188 l 2,16,17
 165 188 165 188 165.111328125 262.42578125 c 0,18,19
 165 501 165 501 202.231445312 590.555664062 c 0,20,21
 282 785 282 785 508.309570312 785.006835938 c 0,22,23
 752 785 752 785 811.973942261 591 c 0,24,25
 835 517 835 517 840.184570312 268.44921875 c 0,26,27
 842 188 842 188 978.973632812 188 c 2,28,-1
 1023.24023438 188 l 6,29,30
 1098.24023438 188 1098.24023438 188 1098.24023438 99 c 6,31,-1
 1098.24023438 88 l 6,32,33
 1098 0 1098 0 1023.24023438 0 c 6,0,-1
512.029296875 613.109375 m 0,34,35
 346 613 346 613 341.678710938 385.6875 c 0,36,37
 338 165 338 165 515.587890625 163.83984375 c 0,38,39
 673 163 673 163 672.700195312 384.733398438 c 0,40,41
 673 613 673 613 512.029296875 613.109375 c 0,34,35
EndSplineSet
EndChar

StartChar: uniFEEA
Encoding: 65258 65258 245
Width: 1104
VWidth: 2553
GlyphClass: 2
Flags: W
AnchorPoint: "Anchor-10" 669.183 1271.91 basechar 0
AnchorPoint: "Anchor-7" 443.281 -274.565 basechar 0
LayerCount: 2
Fore
SplineSet
1109.39941406 0 m 2,0,-1
 1073.02050781 0 l 2,1,2
 828 0 828 0 763.745117188 187.0390625 c 1,3,4
 121 119 121 119 90.279296875 409.462890625 c 0,5,6
 55 742 55 742 613.188476562 831.181640625 c 1,7,-1
 594.653320312 924.513671875 l 1,8,-1
 774 959 l 1,9,-1
 873.192382812 379.846679688 l 2,10,11
 906 188 906 188 1084.06347656 188 c 2,12,-1
 1109.39941406 188 l 2,13,14
 1184.39941406 188 1184.39941406 188 1184.39941406 99 c 2,15,-1
 1184.39941406 88 l 2,16,17
 1184 0 1184 0 1109.39941406 0 c 2,0,-1
705.69921875 369.87890625 m 1,18,-1
 653.245117188 666.3515625 l 1,19,20
 249 616 249 616 251.432617188 457.896484375 c 0,21,22
 253 325 253 325 705.69921875 369.87890625 c 1,18,-1
EndSplineSet
EndChar

StartChar: uniFEEB
Encoding: 65259 65259 246
Width: 1253
VWidth: 2553
GlyphClass: 2
Flags: W
AnchorPoint: "Anchor-10" 572.837 1442.83 basechar 0
AnchorPoint: "Anchor-7" 518.543 -279.197 basechar 0
LayerCount: 2
Fore
SplineSet
-5.0234375 0 m 6,0,1
 -80 0 -80 0 -80.0234375 88 c 6,2,-1
 -80.0234375 99 l 6,3,4
 -80.0234375 188 -80.0234375 188 -5.0234375 188 c 6,5,-1
 253.69140625 188 l 1,6,7
 139 281 139 281 139.354492188 442.256835938 c 0,8,9
 140 548 140 548 199.134765625 642.346679688 c 0,10,11
 273 757 273 757 398.296875 783.701171875 c 0,12,13
 510 808 510 808 616 756 c 1,14,-1
 719.844726562 906.895507812 l 1,15,16
 1165 489 1165 489 1159.46191406 223.848632812 c 0,17,18
 1157 84 1157 84 1019 -17 c 0,19,20
 941 -74 941 -74 792 -50 c 0,21,22
 622 -22 622 -22 472.094726562 70.3291015625 c 1,23,24
 238 0 238 0 50.302734375 0 c 2,25,-1
 -5.0234375 0 l 6,0,1
461.174804688 239.8671875 m 1,26,27
 601.248252894 333.573410303 601.248252894 333.573410303 628.539174486 471 c 0,28,29
 649 577 649 577 565.725585938 621.46875 c 0,30,31
 498.585978863 656.742905776 498.585978863 656.742905776 422.850585938 625.737304688 c 0,32,33
 339 591 339 591 311.452148438 497.588867188 c 0,34,35
 280 388 280 388 332 315 c 128,-1,36
 384 242 384 242 461.174804688 239.8671875 c 1,26,27
629.65625 183.368164062 m 1,37,38
 742 121 742 121 830.743164062 110.302734375 c 0,39,40
 903 102 903 102 939 133 c 0,41,42
 993 180 993 180 1001 247 c 0,43,44
 1016 376 1016 376 746 632 c 1,45,46
 822 369 822 369 629.65625 183.368164062 c 1,37,38
EndSplineSet
EndChar

StartChar: uniFEEC
Encoding: 65260 65260 247
Width: 961
VWidth: 2553
GlyphClass: 2
Flags: W
AnchorPoint: "Anchor-7" 142.183 -722.715 basechar 0
AnchorPoint: "Anchor-10" 415.514 1176.02 basechar 0
LayerCount: 2
Fore
SplineSet
966.715820312 0 m 6,0,-1
 686.204101562 0 l 1,1,2
 786 -102 786 -102 795.48046875 -247.553710938 c 0,3,4
 804 -384 804 -384 717.109375 -481.69140625 c 0,5,6
 652 -556 652 -556 541.225585938 -565.853515625 c 0,7,8
 330 -585 330 -585 228.90234375 -363.864257812 c 0,9,10
 168 -231 168 -231 176.73046875 0 c 1,11,-1
 -5.0234375 0 l 2,12,13
 -80.0234375 0 -80.0234375 0 -80.0234375 88 c 2,14,-1
 -80.0234375 99 l 2,15,16
 -80 188 -80 188 -5.0234375 188 c 2,17,-1
 182.21484375 188 l 1,18,19
 173 419 173 419 234.38671875 553.96484375 c 0,20,21
 335 776 335 776 546.709960938 755.954101562 c 0,22,23
 657 746 657 746 722.59375 671.791992188 c 0,24,25
 810 573 810 573 800.96484375 437.654296875 c 0,26,27
 791 290 791 290 691.688476562 188 c 1,28,-1
 966.715820312 188 l 6,29,30
 1041.71582031 188 1041.71582031 188 1041.71582031 99 c 6,31,-1
 1041.71582031 88 l 6,32,33
 1042 0 1042 0 966.715820312 0 c 6,0,-1
634.515625 -249.899414062 m 0,34,35
 634 -145 634 -145 568.515625 -68.8994140625 c 0,36,37
 510 -0 510 -0 412.021484375 1.0078125 c 2,38,-1
 334 2.015625 l 1,39,40
 326 -63 326 -63 337.772460938 -158.81640625 c 0,41,42
 369 -409 369 -409 494.233398438 -408.530273438 c 0,43,44
 636 -408 636 -408 634.515625 -249.899414062 c 0,34,35
640 440 m 0,45,46
 641 599 641 599 499.717773438 598.630859375 c 0,47,48
 375 599 375 599 343.256835938 348.916992188 c 0,49,50
 331 253 331 253 339.484375 188.084960938 c 1,51,-1
 417.505859375 189.092773438 l 2,52,53
 515 190 515 190 574 259 c 0,54,55
 639 335 639 335 640 440 c 0,45,46
EndSplineSet
EndChar

StartChar: uniFEEE
Encoding: 65262 65262 249
Width: 911
VWidth: 2553
GlyphClass: 2
Flags: W
AnchorPoint: "Anchor-10" 348.37 1237.36 basechar 0
AnchorPoint: "Anchor-7" 390.055 -688.957 basechar 0
LayerCount: 2
Fore
SplineSet
916.352539062 0 m 6,0,-1
 763.920898438 0 l 1,1,2
 756.00535226 -490.668224526 756.00535226 -490.668224526 222.75390625 -490.412109375 c 2,3,-1
 117.0234375 -490.361328125 l 1,4,-1
 116.920898438 -302.1953125 l 1,5,-1
 216.883789062 -302.265625 l 2,6,7
 580.979603696 -302.999958863 580.979603696 -302.999958863 579.970703125 -20.1533203125 c 2,8,-1
 579.8984375 0.1064453125 l 1,9,-1
 399.0390625 0.1064453125 l 2,10,11
 90 0 90 0 91.076171875 363.728515625 c 0,12,13
 93 728 93 728 427.5703125 728.58984375 c 0,14,15
 761.70007524 728.999632162 761.70007524 728.999632162 762.659179688 356.953125 c 2,16,-1
 763.094726562 188 l 1,17,-1
 916.352539062 188 l 6,18,19
 991.352539062 188 991.352539062 188 991.352539062 99 c 6,20,-1
 991.352539062 88 l 6,21,22
 991 0 991 0 916.352539062 0 c 6,0,-1
423.612304688 553.374023438 m 0,23,24
 250 553 250 553 249.859375 365.225585938 c 0,25,26
 249.999957286 189.053527327 249.999957286 189.053527327 398 189 c 2,27,-1
 589.709960938 188.930664062 l 1,28,-1
 589.258789062 351 l 2,29,30
 589 554 589 554 423.612304688 553.374023438 c 0,23,24
EndSplineSet
EndChar

StartChar: uniFEF0
Encoding: 65264 65264 251
Width: 1433
VWidth: 2553
GlyphClass: 2
Flags: W
AnchorPoint: "Anchor-10" 244.973 701.354 basechar 0
AnchorPoint: "Anchor-7" 210.008 -673.278 basechar 0
LayerCount: 2
Fore
SplineSet
1437.9765625 0 m 6,0,-1
 1335.71484375 0 l 1,1,-1
 1334.71484375 -76.86328125 l 2,2,3
 1329 -511 1329 -511 730.879882812 -511 c 2,4,-1
 705.913085938 -511 l 1,5,-1
 682.252929688 -511 l 2,6,7
 90.6338851438 -511 90.6338851438 -511 90.2431640625 40.669921875 c 2,8,-1
 90 384 l 25,9,-1
 269.000976562 383 l 1,10,-1
 269.000976562 41.841796875 l 2,11,12
 269.000000276 -321.89711467 269.000000276 -321.89711467 679.427734375 -321.880859375 c 2,13,-1
 701.125976562 -321.88 l 1,14,-1
 734.692382812 -321.879882812 l 2,15,16
 1159.30566406 -322.00008653 1159.30566406 -322.00008653 1159.30566406 -70.384765625 c 2,17,-1
 1159.30566406 -0.1826171875 l 1,18,-1
 907.569335938 -0.2578125 l 2,19,20
 855 -0 855 -0 832.111328125 89.841796875 c 0,21,22
 809 180 809 180 838.721679688 188 c 1,23,-1
 1437.9765625 188 l 6,24,25
 1512.9765625 188 1512.9765625 188 1512.9765625 99 c 6,26,-1
 1512.9765625 88 l 6,27,28
 1513 0 1513 0 1437.9765625 0 c 6,0,-1
EndSplineSet
EndChar

StartChar: uniFEFB
Encoding: 65275 65275 262
Width: 1136
VWidth: 2553
GlyphClass: 3
Flags: W
AnchorPoint: "Anchor-9" 900.412 1510.27 baselig 0
AnchorPoint: "Anchor-6" 875.517 -264.566 baselig 0
AnchorPoint: "Anchor-6" 215.087 -316.797 baselig 1
AnchorPoint: "Anchor-9" 230.411 1511.19 baselig 1
LayerCount: 2
Fore
SplineSet
151.5859375 1368.69726562 m 5,0,-1
 326.681640625 1368.69726562 l 5,1,-1
 326.681640625 300.924804688 l 1,2,-1
 151.5859375 300.924804688 l 1,3,-1
 151.5859375 1368.69726562 l 5,0,-1
1006.70898438 393.971679688 m 2,4,5
 1006.70898438 -0.110913273975 1006.70898438 -0.110913273975 623.16796875 -0.0966796875 c 2,6,-1
 150.650390625 -0.0966796875 l 1,7,-1
 150.650390625 189.200195312 l 1,8,-1
 630.384765625 189.200195312 l 2,9,10
 827.951171875 189.000049466 827.951171875 189.000049466 827.951171875 411.596679688 c 2,11,-1
 827.951171875 1368.15820312 l 5,12,-1
 1006.70898438 1368.15820312 l 5,13,-1
 1006.70898438 393.971679688 l 2,4,5
EndSplineSet
LCarets2: 1 0
Ligature2: "'rlig' Required Ligatures in Arabic lookup 16 subtable" uniFEDF uniFE8E
EndChar

StartChar: arabic_dot
Encoding: 65536 -1 263
Width: 204
VWidth: 2629
GlyphClass: 2
Flags: W
LayerCount: 2
Fore
SplineSet
-28 89 m 128,-1,1
 -28 143.17766953 -28 143.17766953 9.66116523517 180.838834765 c 128,-1,2
 47.3223304703 218.5 47.3223304703 218.5 101 218.5 c 0,3,4
 155.67766953 218.5 155.67766953 218.5 193.338834765 180.838834765 c 128,-1,5
 231 143.17766953 231 143.17766953 231 89.5 c 0,6,7
 231 34.8223304703 231 34.8223304703 193.338834765 -2.83883476483 c 128,-1,8
 155.67766953 -40.5 155.67766953 -40.5 102 -40.5 c 0,9,10
 47.3223304703 -40.5 47.3223304703 -40.5 9.66116523517 -2.83883476483 c 128,-1,0
 -28 34.8223304703 -28 34.8223304703 -28 89 c 128,-1,1
EndSplineSet
EndChar

StartChar: arabic_2dots
Encoding: 65537 -1 264
Width: 527
VWidth: 2629
GlyphClass: 2
Flags: W
LayerCount: 2
Fore
SplineSet
296 89 m 128,-1,1
 296 143.17766953 296 143.17766953 333.661165235 180.838834765 c 128,-1,2
 371.32233047 218.5 371.32233047 218.5 425 218.5 c 0,3,4
 479.67766953 218.5 479.67766953 218.5 517.338834765 180.838834765 c 0,5,6
 535.990409181 162.187260349 535.990409181 162.187260349 545.49520459 139.124240267 c 128,-1,7
 555 116.061220185 555 116.061220185 555 89.5 c 0,8,9
 555 34.8223304703 555 34.8223304703 517.338834765 -2.83883476483 c 128,-1,10
 479.67766953 -40.5 479.67766953 -40.5 426 -40.5 c 0,11,12
 371.32233047 -40.5 371.32233047 -40.5 333.661165235 -2.83883476483 c 128,-1,0
 296 34.8223304703 296 34.8223304703 296 89 c 128,-1,1
-28 89 m 128,-1,14
 -28 143.17766953 -28 143.17766953 9.66116523517 180.838834765 c 128,-1,15
 47.3223304703 218.5 47.3223304703 218.5 101 218.5 c 0,16,17
 155.67766953 218.5 155.67766953 218.5 193.338834765 180.838834765 c 128,-1,18
 231 143.17766953 231 143.17766953 231 89.5 c 0,19,20
 231 34.8223304703 231 34.8223304703 193.338834765 -2.83883476483 c 128,-1,21
 155.67766953 -40.5 155.67766953 -40.5 102 -40.5 c 0,22,23
 47.3223304703 -40.5 47.3223304703 -40.5 9.66116523517 -2.83883476483 c 128,-1,13
 -28 34.8223304703 -28 34.8223304703 -28 89 c 128,-1,14
EndSplineSet
EndChar

StartChar: arabic_3dots
Encoding: 65538 -1 265
Width: 527
VWidth: 2629
GlyphClass: 2
Flags: W
LayerCount: 2
Fore
SplineSet
135.5 399 m 128,-1,1
 135.5 453.17766953 135.5 453.17766953 173.161165235 490.838834765 c 128,-1,2
 210.82233047 528.5 210.82233047 528.5 264.5 528.5 c 0,3,4
 319.17766953 528.5 319.17766953 528.5 356.838834765 490.838834765 c 128,-1,5
 394.5 453.17766953 394.5 453.17766953 394.5 399.5 c 0,6,7
 394.5 344.82233047 394.5 344.82233047 356.838834765 307.161165235 c 128,-1,8
 319.17766953 269.5 319.17766953 269.5 265.5 269.5 c 0,9,10
 210.82233047 269.5 210.82233047 269.5 173.161165235 307.161165235 c 128,-1,0
 135.5 344.82233047 135.5 344.82233047 135.5 399 c 128,-1,1
296 89 m 128,-1,12
 296 143.17766953 296 143.17766953 333.661165235 180.838834765 c 128,-1,13
 371.32233047 218.5 371.32233047 218.5 425 218.5 c 0,14,15
 479.67766953 218.5 479.67766953 218.5 517.338834765 180.838834765 c 0,16,17
 535.990409181 162.187260349 535.990409181 162.187260349 545.49520459 139.124240267 c 128,-1,18
 555 116.061220185 555 116.061220185 555 89.5 c 0,19,20
 555 34.8223304703 555 34.8223304703 517.338834765 -2.83883476483 c 128,-1,21
 479.67766953 -40.5 479.67766953 -40.5 426 -40.5 c 0,22,23
 371.32233047 -40.5 371.32233047 -40.5 333.661165235 -2.83883476483 c 128,-1,11
 296 34.8223304703 296 34.8223304703 296 89 c 128,-1,12
-28 89 m 128,-1,25
 -28 143.17766953 -28 143.17766953 9.66116523517 180.838834765 c 128,-1,26
 47.3223304703 218.5 47.3223304703 218.5 101 218.5 c 0,27,28
 155.67766953 218.5 155.67766953 218.5 193.338834765 180.838834765 c 128,-1,29
 231 143.17766953 231 143.17766953 231 89.5 c 0,30,31
 231 34.8223304703 231 34.8223304703 193.338834765 -2.83883476483 c 128,-1,32
 155.67766953 -40.5 155.67766953 -40.5 102 -40.5 c 0,33,34
 47.3223304703 -40.5 47.3223304703 -40.5 9.66116523517 -2.83883476483 c 128,-1,24
 -28 34.8223304703 -28 34.8223304703 -28 89 c 128,-1,25
EndSplineSet
EndChar

StartChar: arabic_3dots_a
Encoding: 65539 -1 266
Width: 527
VWidth: 2629
GlyphClass: 2
Flags: W
LayerCount: 2
Fore
SplineSet
135.5 -203 m 132,-1,1
 135.5 -148.82233047 135.5 -148.82233047 173.161165235 -111.161165235 c 4,2,3
 191.812739651 -92.5095908192 191.812739651 -92.5095908192 214.875759733 -83.0047954096 c 132,-1,4
 237.938779815 -73.5 237.938779815 -73.5 264.5 -73.5 c 4,5,6
 319.17766953 -73.5 319.17766953 -73.5 356.838834765 -111.161165235 c 132,-1,7
 394.5 -148.82233047 394.5 -148.82233047 394.5 -202.5 c 4,8,9
 394.5 -257.17766953 394.5 -257.17766953 356.838834765 -294.838834765 c 132,-1,10
 319.17766953 -332.5 319.17766953 -332.5 265.5 -332.5 c 4,11,12
 210.82233047 -332.5 210.82233047 -332.5 173.161165235 -294.838834765 c 132,-1,0
 135.5 -257.17766953 135.5 -257.17766953 135.5 -203 c 132,-1,1
296 107 m 132,-1,14
 296 161.17766953 296 161.17766953 333.661165235 198.838834765 c 132,-1,15
 371.32233047 236.5 371.32233047 236.5 425 236.5 c 4,16,17
 479.67766953 236.5 479.67766953 236.5 517.338834765 198.838834765 c 4,18,19
 535.990409181 180.187260349 535.990409181 180.187260349 545.49520459 157.124240267 c 132,-1,20
 555 134.061220185 555 134.061220185 555 107.5 c 4,21,22
 555 52.8223304703 555 52.8223304703 517.338834765 15.1611652352 c 132,-1,23
 479.67766953 -22.5 479.67766953 -22.5 426 -22.5 c 4,24,25
 371.32233047 -22.5 371.32233047 -22.5 333.661165235 15.1611652352 c 132,-1,13
 296 52.8223304703 296 52.8223304703 296 107 c 132,-1,14
-28 107 m 132,-1,27
 -28 161.17766953 -28 161.17766953 9.66116523517 198.838834765 c 132,-1,28
 47.3223304703 236.5 47.3223304703 236.5 101 236.5 c 4,29,30
 155.67766953 236.5 155.67766953 236.5 193.338834765 198.838834765 c 132,-1,31
 231 161.17766953 231 161.17766953 231 107.5 c 4,32,33
 231 52.8223304703 231 52.8223304703 193.338834765 15.1611652352 c 132,-1,34
 155.67766953 -22.5 155.67766953 -22.5 102 -22.5 c 4,35,36
 47.3223304703 -22.5 47.3223304703 -22.5 9.66116523517 15.1611652352 c 132,-1,26
 -28 52.8223304703 -28 52.8223304703 -28 107 c 132,-1,27
EndSplineSet
EndChar

StartChar: uni066E.fina
Encoding: 65540 -1 267
Width: 2070
VWidth: 2553
GlyphClass: 2
Flags: W
AnchorPoint: "Anchor-10" 672.312 1239.13 basechar 0
AnchorPoint: "Anchor-7" 672.312 -215.677 basechar 0
LayerCount: 2
Fore
SplineSet
2075.89453125 0 m 6,0,-1
 2046.70898438 0 l 2,1,2
 1826 0 1826 0 1751.23046875 180.654296875 c 1,3,4
 1651 0 1651 0 1388.95996094 0 c 2,5,-1
 471.77734375 0 l 2,6,7
 91.1516109843 -2.17187334783e-09 91.1516109843 -2.17187334783e-09 91.1494140625 453.916992188 c 2,8,-1
 91.1484375 655.689453125 l 1,9,-1
 269.904296875 655.689453125 l 1,10,-1
 269.904296875 451.571289062 l 2,11,12
 270 188 270 188 467.470703125 188 c 2,13,-1
 1391.46484375 188 l 2,14,15
 1663.57220294 188 1663.57220294 188 1663.41796875 424.291992188 c 2,16,-1
 1663.2734375 645.71875 l 1,17,-1
 1846.01074219 645.71875 l 1,18,-1
 1846.18847656 421.938476562 l 2,19,20
 1846 188 1846 188 2048.51269531 188 c 2,21,-1
 2075.89453125 188 l 6,22,23
 2150.89453125 188 2150.89453125 188 2150.89453125 99 c 6,24,-1
 2150.89453125 88 l 6,25,26
 2151 0 2151 0 2075.89453125 0 c 6,0,-1
EndSplineSet
EndChar

StartChar: uni06A1.fina
Encoding: 65543 -1 270
Width: 2054
VWidth: 2553
GlyphClass: 2
Flags: W
AnchorPoint: "Anchor-10" 464.606 1364.71 basechar 0
AnchorPoint: "Anchor-7" 590.192 -267.906 basechar 0
LayerCount: 2
Fore
SplineSet
2059.54882812 0 m 6,0,-1
 1902.59570312 0 l 2,1,2
 1684 0 1684 0 1546.51855469 108.455078125 c 1,3,4
 1379.03899483 0.0252460844579 1379.03899483 0.0252460844579 1191.42871094 0 c 2,5,-1
 472.9765625 -0.0966796875 l 2,6,7
 91.1910236627 -4.83496886545e-05 91.1910236627 -4.83496886545e-05 91.189453125 441.977539062 c 2,8,-1
 91.1884765625 716.799804688 l 1,9,-1
 269.944335938 716.799804688 l 1,10,-1
 269.944335938 452.541015625 l 2,11,12
 270 188 270 188 467.510742188 188 c 2,13,-1
 1399.36035156 188 l 1,14,15
 1334 217 1334 217 1296.08984375 255.684570312 c 0,16,17
 1192 361 1192 361 1192.13085938 500.806640625 c 0,18,19
 1192 644 1192 644 1296.08984375 745.9140625 c 0,20,21
 1402 848 1402 848 1547.73242188 847.7890625 c 0,22,23
 1695 847 1695 847 1799.37011719 745.9140625 c 0,24,25
 1903 646 1903 646 1903.17773438 500.983398438 c 0,26,27
 1904 361 1904 361 1799.37011719 256.684570312 c 0,28,29
 1763 220 1763 220 1693.12011719 188 c 1,30,-1
 2059.54882812 188 l 6,31,32
 2134.54882812 188 2134.54882812 188 2134.54882812 99 c 6,33,-1
 2134.54882812 88 l 6,34,35
 2135 0 2135 0 2059.54882812 0 c 6,0,-1
1362.78710938 499.515625 m 0,36,37
 1363 425.43359375 1363 425.43359375 1416.50878906 372.942382812 c 128,-1,38
 1470 320.43359375 1470 320.43359375 1546.31835938 320.428710938 c 0,39,40
 1622 320.43359375 1622 320.43359375 1676.19335938 373.004882812 c 0,41,42
 1730 425.43359375 1730 425.43359375 1729.84863281 499.515625 c 0,43,44
 1730 573.43359375 1730 573.43359375 1676.19335938 626.01953125 c 0,45,46
 1622 678.43359375 1622 678.43359375 1546.31835938 678.598632812 c 0,47,48
 1470 678.43359375 1470 678.43359375 1416.44238281 626.01953125 c 128,-1,49
 1363 573.43359375 1363 573.43359375 1362.78710938 499.515625 c 0,36,37
EndSplineSet
EndChar

StartChar: uni06A1.init
Encoding: 65544 -1 271
Width: 831
VWidth: 2553
GlyphClass: 2
Flags: W
AnchorPoint: "Anchor-10" 396.999 1392.33 basechar 0
AnchorPoint: "Anchor-7" 451.628 -205.113 basechar 0
LayerCount: 2
Fore
SplineSet
-5.0234375 0 m 6,0,1
 -80 0 -80 0 -80.0234375 88 c 6,2,-1
 -80.0234375 99 l 6,3,4
 -80.0234375 188 -80.0234375 188 -5.0234375 188 c 6,5,-1
 235.087890625 188 l 2,6,7
 553 188 553 188 552.928710938 349.958007812 c 2,8,-1
 552.928710938 370.875976562 l 1,9,10
 482 366 482 366 412 366.33984375 c 0,11,12
 211 367 211 367 126.85546875 459.404296875 c 0,13,14
 62 531 62 531 61.9619140625 688.303710938 c 0,15,16
 62 1034 62 1034 396.336914062 1034.38964844 c 0,17,18
 739 1034 739 1034 738.86328125 725.657226562 c 2,19,-1
 738.727539062 377.400390625 l 2,20,21
 738.580437414 2.26236807066e-11 738.580437414 2.26236807066e-11 232.553710938 0 c 2,22,-1
 -5.0234375 0 l 6,0,1
563 708.5 m 2,23,24
 562.818898391 859.000440436 562.818898391 859.000440436 397.962890625 859.401367188 c 0,25,26
 223 859 223 859 222.833007812 698.990234375 c 0,27,28
 223 553 223 553 407 553 c 0,29,30
 478 553 478 553 563.176757812 561.609375 c 1,31,-1
 563 708.5 l 2,23,24
EndSplineSet
EndChar

StartChar: uni06A1.medi
Encoding: 65545 -1 272
Width: 1022
VWidth: 2553
GlyphClass: 2
Flags: W
AnchorPoint: "Anchor-10" 504.997 1176.33 basechar 0
AnchorPoint: "Anchor-7" 504.997 -205.113 basechar 0
LayerCount: 2
Fore
SplineSet
1027.109375 0 m 6,0,-1
 861.15625 0 l 2,1,2
 655 0 655 0 505.166992188 107.44921875 c 1,3,4
 339 0 339 0 149.987304688 0 c 2,5,-1
 -5.0234375 0 l 2,6,7
 -80.0234375 0 -80.0234375 0 -80.0234375 88 c 2,8,-1
 -80.0234375 99 l 2,9,10
 -80 188 -80 188 -5.0234375 188 c 2,11,-1
 360.360351562 188 l 1,12,13
 295 218 295 218 257.08984375 255.250976562 c 0,14,15
 153 358 153 358 153.130859375 500.373046875 c 0,16,17
 153 644 153 644 257.08984375 745.48046875 c 0,18,19
 362 847 362 847 508.732421875 847.35546875 c 0,20,21
 656 847 656 847 760.370117188 745.48046875 c 0,22,23
 864 645 864 645 864.177734375 500.549804688 c 0,24,25
 865 357 865 357 760.370117188 255.250976562 c 0,26,27
 726 222 726 222 654.120117188 188 c 1,28,-1
 1027.109375 188 l 6,29,30
 1102.109375 188 1102.109375 188 1102.109375 99 c 6,31,-1
 1102.109375 88 l 6,32,33
 1102 0 1102 0 1027.109375 0 c 6,0,-1
323.787109375 499.08203125 m 0,34,35
 324 425 324 425 377.508789062 372.508789062 c 128,-1,36
 431 320 431 320 507.318359375 319.995117188 c 0,37,38
 583 320 583 320 637.193359375 372.571289062 c 0,39,40
 691 425 691 425 690.848632812 499.08203125 c 0,41,42
 691 573 691 573 637.193359375 625.5859375 c 0,43,44
 583 678 583 678 507.318359375 678.165039062 c 0,45,46
 431 678 431 678 377.442382812 625.5859375 c 128,-1,47
 324 573 324 573 323.787109375 499.08203125 c 0,34,35
EndSplineSet
EndChar

StartChar: uni066F.fina
Encoding: 65546 -1 273
Width: 1496
VWidth: 2553
GlyphClass: 2
Flags: W
AnchorPoint: "Anchor-10" 388.276 1051.72 basechar 0
AnchorPoint: "Anchor-7" 505.229 -698.06 basechar 0
LayerCount: 2
Fore
SplineSet
1500.9765625 0 m 6,0,-1
 1343.27929688 0 l 1,1,-1
 1343.15039062 -64.462890625 l 2,2,3
 1342 -535 1342 -535 759.385742188 -535 c 2,4,-1
 701.184570312 -535 l 2,5,6
 91.3029938768 -535 91.3029938768 -535 91.12109375 23.9189453125 c 2,7,-1
 91 396 l 1,8,-1
 269.877929688 396.674804688 l 1,9,-1
 269.877929688 25.0927734375 l 2,10,11
 269.999905235 -345.711914062 269.999905235 -345.711914062 703.356445312 -345.711914062 c 2,12,-1
 730.865234375 -345.711914062 l 1,13,-1
 757.770507812 -345.125 l 2,14,15
 1170.09782467 -335.99783458 1170.09782467 -335.99783458 1168.56347656 -61.064453125 c 2,16,-1
 1168.20605469 2.98046875 l 1,17,-1
 987.346679688 2.98046875 l 2,18,19
 678 3 678 3 679.383789062 363.602539062 c 0,20,21
 681 727 681 727 1015.87792969 728.463867188 c 0,22,23
 1345.21111288 729.000343898 1345.21111288 729.000343898 1343.96679688 356.827148438 c 2,24,-1
 1343.40234375 188 l 1,25,-1
 1500.9765625 188 l 6,26,27
 1575.9765625 188 1575.9765625 188 1575.9765625 99 c 6,28,-1
 1575.9765625 88 l 6,29,30
 1576 0 1576 0 1500.9765625 0 c 6,0,-1
1011.91992188 553.248046875 m 0,31,32
 838 553 838 553 838.166992188 365.099609375 c 0,33,34
 837.999931403 188.92766203 837.999931403 188.92766203 986.307617188 188.874023438 c 2,35,-1
 1178.01757812 188.8046875 l 1,36,-1
 1177.56640625 350.874023438 l 2,37,38
 1177 554 1177 554 1011.91992188 553.248046875 c 0,31,32
EndSplineSet
EndChar

StartChar: arabic_ring
Encoding: 65549 -1 276
Width: 524
VWidth: 2391
GlyphClass: 2
Flags: W
LayerCount: 2
Fore
SplineSet
316.577148438 134.233398438 m 0,0,1
 386.274414062 167.527775565 386.274414062 167.527775565 386.274414062 236.784667969 c 0,2,3
 386.274414062 282.827053844 386.274414062 282.827053844 376.698242188 298.102003485 c 128,-1,4
 367.122070312 313.376953125 367.122070312 313.376953125 364.889648438 316.687988281 c 0,5,6
 328.273123116 370.99609375 328.273123116 370.99609375 252.967539185 370.99609375 c 0,7,8
 177.661955254 370.99609375 177.661955254 370.99609375 146.803710938 295.033203125 c 0,9,10
 137.805664062 272.876026953 137.805664062 272.876026953 137.805664062 233.019556445 c 128,-1,11
 137.805664062 193.163085938 137.805664062 193.163085938 173.766601562 157.844726562 c 128,-1,12
 209.727539062 122.526367188 209.727539062 122.526367188 250.898802205 122.526367188 c 0,13,14
 292.070065347 122.526367188 292.070065347 122.526367188 316.577148438 134.233398438 c 0,0,1
508.694335938 246.760742188 m 128,-1,16
 508.694335938 143.036730895 508.694335938 143.036730895 437.205084824 70.9851623226 c 0,17,18
 365.71583371 -1.06640625 365.71583371 -1.06640625 262.041015625 -1.06640625 c 128,-1,19
 158.409179688 -1.06640625 158.409179688 -1.06640625 86.8974609375 71.0083007812 c 128,-1,20
 15.3857421875 143.083007812 15.3857421875 143.083007812 15.3857421875 246.760742188 c 128,-1,21
 15.3857421875 350.438476562 15.3857421875 350.438476562 86.8745117188 421.927246094 c 0,22,23
 158.36328125 493.416015625 158.36328125 493.416015625 262.041015625 493.416015625 c 128,-1,24
 365.765625 493.416015625 365.765625 493.416015625 437.793945312 422.513671875 c 0,25,15
 508.694335938 350.487304688 508.694335938 350.487304688 508.694335938 246.760742188 c 128,-1,16
EndSplineSet
EndChar

StartChar: arabic_gaf_bar
Encoding: 65550 -1 277
Width: 657
VWidth: 2391
GlyphClass: 2
Flags: W
LayerCount: 2
Fore
SplineSet
627.461914062 1786.35058594 m 5,0,-1
 15.3857421875 1570.20507812 l 1,1,-1
 15.3857421875 1674.74902344 l 1,2,-1
 627.461914062 1890.89257812 l 5,3,-1
 627.461914062 1786.35058594 l 5,0,-1
EndSplineSet
EndChar

StartChar: uni066E.init.math
Encoding: 65560 -1 287
Width: 1039
VWidth: 2553
GlyphClass: 2
Flags: W
LayerCount: 2
Fore
SplineSet
674.8125 107.743164062 m 0,0,1
 592.064453125 8.9091796875 592.064453125 8.9091796875 406.875 8.9091796875 c 2,2,-1
 5.5263671875 8.9091796875 l 1,3,-1
 5.5263671875 188.700195312 l 1,4,-1
 337.802734375 188.700195312 l 2,5,6
 472.755859375 188.700195312 472.755859375 188.700195312 538.663574219 254.607910156 c 0,7,8
 604.571289062 320.515625 604.571289062 320.515625 604.571289062 464.258789062 c 2,9,-1
 604.571289062 711.13671875 l 1,10,-1
 784.362304688 711.13671875 l 1,11,-1
 784.362304688 464.258789062 l 2,12,13
 784.362304688 238.727539062 784.362304688 238.727539062 674.8125 107.743164062 c 0,0,1
EndSplineSet
EndChar

StartChar: guillemotleft
Encoding: 171 171 288
Width: 995
Flags: W
LayerCount: 2
Fore
SplineSet
454.049804688 951.09765625 m 1,0,-1
 420.057617188 891.32421875 l 2,1,2
 302.0546875 683.844687338 302.0546875 683.844687338 302.0546875 478.6171875 c 0,3,4
 302.0546875 271.587222141 302.0546875 271.587222141 420.005859375 65.0107421875 c 2,5,-1
 454.169921875 5.177734375 l 1,6,-1
 297.421875 5.177734375 l 1,7,-1
 285.637695312 23.7392578125 l 2,8,9
 138.0546875 256.19423894 138.0546875 256.19423894 138.0546875 478.6171875 c 0,10,11
 138.0546875 699.097366565 138.0546875 699.097366565 285.604492188 932.47265625 c 2,12,-1
 297.380859375 951.09765625 l 1,13,-1
 454.049804688 951.09765625 l 1,0,-1
830.049804688 951.09765625 m 1,14,-1
 796.057617188 891.32421875 l 2,15,16
 678.0546875 683.841603231 678.0546875 683.841603231 678.0546875 478.6171875 c 0,17,18
 678.0546875 272.036600994 678.0546875 272.036600994 795.745117188 65.4677734375 c 2,19,-1
 830.169921875 5.177734375 l 1,20,-1
 673.421875 5.177734375 l 1,21,-1
 661.637695312 23.7392578125 l 2,22,23
 514.0546875 257.149148194 514.0546875 257.149148194 514.0546875 478.6171875 c 0,24,25
 514.0546875 699.097366565 514.0546875 699.097366565 661.604492188 932.47265625 c 2,26,-1
 673.380859375 951.09765625 l 1,27,-1
 830.049804688 951.09765625 l 1,14,-1
EndSplineSet
EndChar

StartChar: guillemotright
Encoding: 187 187 289
Width: 992
Flags: W
LayerCount: 2
Fore
SplineSet
540.950195312 951.09765625 m 1,0,-1
 697.619140625 951.09765625 l 1,1,-1
 709.395507812 932.47265625 l 2,2,3
 856.9453125 699.096679688 856.9453125 699.096679688 856.9453125 477.861328125 c 128,-1,4
 856.9453125 256.625976562 856.9453125 256.625976562 709.670898438 24.2255859375 c 2,5,-1
 697.578125 5.177734375 l 1,6,-1
 540.830078125 5.177734375 l 1,7,-1
 574.994140625 65.0107421875 l 2,8,9
 692.9453125 271.5859375 692.9453125 271.5859375 692.9453125 477.71484375 c 128,-1,10
 692.9453125 683.842773438 692.9453125 683.842773438 574.942382812 891.32421875 c 2,11,-1
 540.950195312 951.09765625 l 1,0,-1
164.950195312 951.09765625 m 1,12,-1
 321.619140625 951.09765625 l 1,13,-1
 333.395507812 932.47265625 l 2,14,15
 480.9453125 699.096679688 480.9453125 699.096679688 480.9453125 477.64453125 c 128,-1,16
 480.9453125 256.192382812 480.9453125 256.192382812 333.362304688 23.740234375 c 2,17,-1
 321.578125 5.177734375 l 1,18,-1
 164.830078125 5.177734375 l 1,19,-1
 198.994140625 65.0107421875 l 2,20,21
 316.9453125 271.5859375 316.9453125 271.5859375 316.9453125 477.71484375 c 128,-1,22
 316.9453125 683.842773438 316.9453125 683.842773438 198.942382812 891.32421875 c 2,23,-1
 164.950195312 951.09765625 l 1,12,-1
EndSplineSet
EndChar

StartChar: uniFEFC
Encoding: 65276 65276 296
Width: 1243
VWidth: 2553
Flags: W
AnchorPoint: "Anchor-9" 235.664 1506.56 baselig 1
AnchorPoint: "Anchor-6" 188.608 -246.627 baselig 1
AnchorPoint: "Anchor-6" 813.826 -233.129 baselig 0
AnchorPoint: "Anchor-9" 905.017 1515.22 baselig 0
LayerCount: 2
Fore
SplineSet
1247.9765625 0 m 2,0,-1
 1223.21777344 0 l 2,1,2
 1026 0 1026 0 915.379882812 140.426757812 c 1,3,4
 806.925383642 -0.0966796875 806.925383642 -0.0966796875 637.42578125 -0.0966796875 c 2,5,-1
 150.88671875 -0.0966796875 l 1,6,-1
 150.88671875 189.200195312 l 1,7,-1
 619.995117188 189.200195312 l 2,8,9
 828.081054688 188.821758691 828.081054688 188.821758691 828.081054688 466.403320312 c 2,10,-1
 828.081054688 1368.69726562 l 5,11,-1
 1003.17578125 1368.69726562 l 5,12,-1
 1003.17578125 465.228515625 l 2,13,14
 1003 188 1003 188 1224.83203125 188 c 2,15,-1
 1247.9765625 188 l 2,16,17
 1322.9765625 188 1322.9765625 188 1322.9765625 99 c 2,18,-1
 1322.9765625 88 l 2,19,20
 1323 0 1323 0 1247.9765625 0 c 2,0,-1
151.759765625 1368.69726562 m 5,21,-1
 326.853515625 1368.69726562 l 5,22,-1
 326.853515625 300.924804688 l 1,23,-1
 151.759765625 300.924804688 l 1,24,-1
 151.759765625 1368.69726562 l 5,21,-1
EndSplineSet
LCarets2: 1 0
Ligature2: "'rlig' Required Ligatures in Arabic lookup 16 subtable" uniFEE0 uniFE8E
EndChar

StartChar: NameMe.65562
Encoding: 65562 -1 301
Width: 699
VWidth: 2553
Flags: W
AnchorPoint: "Anchor-10" 373.225 1345.2 basechar 0
AnchorPoint: "Anchor-7" 291.065 -292.554 basechar 0
LayerCount: 2
Fore
SplineSet
704.518554688 0 m 2,0,-1
 659.068359375 0 l 2,1,2
 492 0 492 0 371.234375 139.458007812 c 1,3,4
 263 0 263 0 89.7177734375 0 c 2,5,-1
 -5.0234375 0 l 2,6,7
 -80.0234375 0 -80.0234375 0 -80.0234375 88 c 2,8,-1
 -80.0234375 99 l 2,9,10
 -80 188 -80 188 -5.0234375 188 c 2,11,-1
 87.873046875 188 l 2,12,13
 283.931640625 188 283.931640625 188 283.931640625 439.43359375 c 2,14,-1
 283.931640625 1197.72753906 l 5,15,-1
 459.02734375 1197.72753906 l 5,16,-1
 459.02734375 438.258789062 l 2,17,18
 459 188 459 188 668.973632812 188 c 2,19,-1
 704.518554688 188 l 2,20,21
 779.518554688 188 779.518554688 188 779.518554688 99 c 2,22,-1
 779.518554688 88 l 2,23,24
 780 0 780 0 704.518554688 0 c 2,0,-1
EndSplineSet
EndChar
